SplineFontDB: 3.0
FontName: Leipzig
FullName: Leipzig
FamilyName: Leipzig
Weight: Regular
Copyright: Created by Etienne Darbellay, Jean-Francois Marti and Laurent Pugin. \nThis font is licensed under the SIL Open Font License \\(http://scripts.sil.org/OFL\\).\nVersion 5.2.37

StartChar: uniE0A3
Encoding: 57507 57507 0
Width: 314
VWidth: 2048
Flags: HW
AnchorPoint: "cutOutSE" 269 -60 basechar 0
AnchorPoint: "cutOutNW" 35 60 basechar 0
LayerCount: 2
Fore
SplineSet
98 -102 m 1024,0,0
200 138 m 1,0,0
 241 133 l 2,0,0
 239 133 200 138 200 138 c 1,0,0
278 64 m 0,8,9
 278 86 261 103 235 103 c 0,11,12
 223 103 209 100 194 93 c 0,13,14
 109 50 29 -1 29 -63 c 1,0,1
 34 -88 44 -95 78 -95 c 1,3,4
 145 -84 278 0 278 64 c 0,8,9
0 -36 m 0,28,29
 0 32 73 138 200 138 c 0,17,18
 266 138 314 99 314 41 c 0,22,23
 314 -43 208 -132 96 -132 c 0,26,27
 32 -132 0 -100 0 -36 c 0,28,29
EndSplineSet
Validated: 5
EndChar

StartChar: uniE080
Encoding: 57472 57472 1
Width: 427
VWidth: 2048
Flags: HW
LayerCount: 2
Fore
SplineSet
209 251 m 1024,0,0
210 -250 m 4,12,13
 111 -250 0 -156 0 1 c 0,0,1
 0 153 93 251 209 251 c 0,4,5
 325 251 414 132 414 1 c 256,8,9
 414 -138 311 -250 210 -250 c 4,12,13
119 1 m 0,28,29
 119 -78 132 -214 207 -214 c 0,19,20
 275 -214 291 -102 291 1 c 0,22,23
 291 77 276 217 207 217 c 0,25,26
 139 217 119 81 119 1 c 0,28,29
EndSplineSet
Validated: 1
EndChar

StartChar: uniE081
Encoding: 57473 57473 2
Width: 296
VWidth: 2048
Flags: HW
LayerCount: 2
Fore
SplineSet
48 -250 m 1
 48 -214 l 1
 71 -214 88 -208 97 -196 c 1
 105 -182 109 -163 109 -139 c 2
 109 111 l 1
 27 -18 l 1
 0 -5 l 1
 107 250 l 1
 235 250 l 1
 235 -144 l 2
 235 -168 240 -186 249 -197 c 128
 258 -208 274 -214 296 -214 c 1
 296 -250 l 1
 48 -250 l 1
EndSplineSet
Validated: 1
EndChar

StartChar: uniE082
Encoding: 57474 57474 3
Width: 402
VWidth: 2048
Flags: HW
LayerCount: 2
Fore
SplineSet
104 -185 m 1
 86 -185 49 -199 39 -250 c 1
 3 -250 l 1
 0 -221 l 1
 0 -196 6 -175 18 -157 c 1
 29 -138 40 -127 57 -114 c 1
 178 -32 l 1
 215 -3 l 2
 230 8 242 26 253 51 c 1
 265 75 271 98 271 121 c 0
 271 161 252 209 177 209 c 0
 152 209 145 209 127 201 c 1
 113 196 104 189 101 179 c 1
 104 170 108 164 111 161 c 2
 135 144 l 1
 147 137 152 133 162 123 c 1
 167 116 169 107 169 96 c 0
 169 84 169 39 90 22 c 1
 60 22 14 48 14 116 c 0
 14 182 94 251 210 251 c 0
 282 251 392 219 392 101 c 0
 392 48 360 6 279 -32 c 1
 188 -73 l 2
 162 -84 143 -96 131 -110 c 1
 180 -103 l 1
 264 -103 295 -144 328 -144 c 0
 348 -144 361 -124 367 -83 c 1
 402 -83 l 1
 402 -235 334 -251 288 -251 c 0
 271 -251 233 -251 219 -244 c 2
 219 -244 l 1
 191 -227 l 1
 142 -190 122 -187 104 -185 c 1
EndSplineSet
Validated: 5
EndChar

StartChar: uniE083
Encoding: 57475 57475 4
Width: 383
VWidth: 2048
Flags: HW
LayerCount: 2
Fore
SplineSet
188 250 m 0
 285 250 365 198 365 134 c 0
 365 65 325 23 247 9 c 1
 303 4 372 -35 372 -107 c 0
 372 -138 362 -164 341 -185 c 1
 322 -206 296 -223 263 -234 c 1
 213 -245 l 2
 198 -248 177 -252 158 -252 c 0
 108 -252 72 -236 45 -214 c 1
 29 -204 22 -196 11 -180 c 1
 4 -167 0 -155 0 -142 c 0
 0 -99 27 -59 68 -59 c 1
 71 -61 l 1
 132 -61 146 -103 146 -131 c 0
 146 -150 122 -173 120 -188 c 1
 127 -205 140 -213 157 -213 c 0
 201 -213 251 -184 251 -135 c 0
 251 -60 217 -10 113 -10 c 1
 113 26 l 1
 197 26 244 48 244 124 c 0
 244 178 207 212 157 212 c 256
 131 212 114 205 106 190 c 1
 121 168 150 174 150 120 c 0
 150 83 113 58 79 58 c 0
 57 58 10 73 10 134 c 0
 10 213 111 250 188 250 c 0
EndSplineSet
Validated: 1
EndChar

StartChar: uniE084
Encoding: 57476 57476 5
Width: 387
VWidth: 2048
Flags: HW
LayerCount: 2
Fore
SplineSet
0 -78 m 1
 84 19 114 102 134 251 c 1
 304 251 l 1
 291 219 222 119 205 100 c 2
 121 3 l 1
 88 -33 62 -60 41 -78 c 1
 203 -78 l 1
 203 24 l 1
 330 147 l 1
 330 -78 l 1
 387 -78 l 1
 387 -117 l 1
 330 -117 l 1
 330 -151 l 2
 330 -194 349 -216 387 -216 c 1
 387 -250 l 1
 143 -250 l 1
 143 -214 l 1
 191 -214 203 -188 203 -144 c 2
 203 -117 l 1
 0 -117 l 1
 0 -78 l 1
EndSplineSet
Validated: 1
EndChar

StartChar: uniE085
Encoding: 57477 57477 6
Width: 354
VWidth: 2048
Flags: HW
LayerCount: 2
Fore
SplineSet
141 38 m 0
 127 38 85 33 49 -13 c 1
 17 -13 l 1
 22 250 l 1
 77 239 130 232 180 232 c 0
 220 232 265 238 314 249 c 1
 306 197 275 135 155 135 c 1
 105 137 l 2
 86 139 74 141 56 147 c 1
 51 36 l 1
 89 62 132 75 180 75 c 0
 274 75 357 11 357 -84 c 0
 357 -184 259 -250 146 -250 c 0
 58 -250 0 -197 0 -135 c 0
 0 -82 39 -52 75 -52 c 0
 112 -52 144 -84 144 -124 c 0
 144 -128 143 -134 140 -142 c 1
 113 -179 l 2
 111 -182 110 -187 110 -193 c 0
 110 -208 122 -216 146 -216 c 0
 220 -216 238 -139 238 -84 c 0
 238 -29 203 38 141 38 c 0
EndSplineSet
Validated: 1
EndChar

StartChar: uniE086
Encoding: 57478 57478 7
Width: 394
VWidth: 2048
Flags: HW
LayerCount: 2
Fore
SplineSet
264 -91 m 0
 264 -54 236 1 197 1 c 0
 162 1 132 -53 132 -110 c 0
 132 -162 154 -214 200 -214 c 0
 247 -214 264 -146 264 -91 c 0
210 214 m 0
 174 214 120 181 120 30 c 1
 122 -6 l 1
 162 18 203 30 242 30 c 0
 322 30 382 -18 382 -91 c 0
 382 -190 283 -250 200 -250 c 4
 40 -250 0 -77 0 -6 c 256
 0 15 2 37 7 65 c 1
 17 100 l 129
 43 185 90 215 115 226 c 0
 156 245 189 250 218 250 c 0
 311 250 360 187 360 145 c 0
 360 87 308 73 287 73 c 0
 254 73 228 97 222 108 c 128
 219 113 216 122 215 133 c 1
 226 163 l 2
 232 178 235 190 235 198 c 0
 235 209 226 214 210 214 c 0
EndSplineSet
Validated: 1
EndChar

StartChar: uniE087
Encoding: 57479 57479 8
Width: 404
VWidth: 2048
Flags: HW
LayerCount: 2
Fore
SplineSet
330 125 m 1
 319 116 277 79 235 79 c 1
 217 81 202 87 191 96 c 1
 174 115 158 130 143 141 c 1
 130 152 116 158 101 158 c 0
 78 158 56 136 37 92 c 1
 0 92 l 1
 0 247 l 1
 37 247 l 1
 41 229 48 219 58 217 c 1
 66 218 73 220 80 225 c 1
 90 230 l 1
 104 240 l 2
 107 242 118 246 125 247 c 130
 136 249 l 130
 144 250 169 250 178 250 c 0
 217 250 235 243 268 207 c 1
 279 192 294 184 312 181 c 1
 339 184 357 210 366 251 c 1
 404 250 l 1
 403 241 393 162 375 126 c 1
 370 113 363 98 354 80 c 2
 321 20 l 1
 266 -72 252 -142 252 -250 c 1
 78 -250 l 5
 78 -205 89 -164 111 -128 c 1
 134 -93 170 -54 217 -11 c 1
 316 73 330 85 330 125 c 1
EndSplineSet
Validated: 1
EndChar

StartChar: uniE088
Encoding: 57480 57480 9
Width: 386
VWidth: 2048
Flags: HW
LayerCount: 2
Fore
SplineSet
185 -214 m 0
 261 -214 273 -156 275 -146 c 1
 275 -112 240 -86 218 -73 c 2
 166 -44 l 1
 145 -34 134 -27 132 -24 c 1
 93 -57 74 -78 70 -116 c 1
 75 -139 93 -214 185 -214 c 0
291 135 m 0
 291 196 219 211 178 211 c 0
 138 211 101 194 101 160 c 1
 104 139 116 122 127 110 c 1
 144 95 160 84 175 76 c 1
 240 48 l 1
 274 75 291 104 291 135 c 0
166 -250 m 4
 109 -250 0 -224 -0 -118 c 0
 0 -71 30 -32 89 -2 c 1
 56 13 10 58 10 117 c 0
 10 196 95 249 188 249 c 2
 206 249 l 130
 211 249 227 250 234 248 c 1
 259 248 360 218 360 138 c 0
 360 101 337 62 291 22 c 1
 334 -3 374 -49 374 -97 c 0
 374 -198 256 -250 166 -250 c 4
EndSplineSet
Validated: 1
EndChar

StartChar: uniE089
Encoding: 57481 57481 10
Width: 397
VWidth: 2048
Flags: HW
LayerCount: 2
Fore
SplineSet
119 107 m 0
 119 56 141 3 185 3 c 0
 223 3 249 51 249 113 c 0
 249 163 218 213 185 213 c 0
 145 213 119 157 119 107 c 0
94 -74 m 0
 134 -74 166 -101 166 -139 c 0
 166 -147 163 -158 157 -173 c 2
 150 -189 l 1
 145 -204 l 1
 147 -212 157 -216 176 -216 c 0
 232 -216 260 -143 260 3 c 1
 228 -21 189 -33 141 -33 c 0
 112 -33 85 -27 62 -13 c 1
 11 13 5 65 -0 95 c 1
 0 159 56 250 188 250 c 0
 346 250 385 99 385 13 c 0
 385 -132 293 -250 178 -250 c 4
 69 -250 23 -182 23 -149 c 0
 23 -103 56 -74 94 -74 c 0
EndSplineSet
Validated: 1
EndChar

StartChar: uniE0A2
Encoding: 57506 57506 11
Width: 405
VWidth: 2048
Flags: HW
AnchorPoint: "cutOutSE" 392 -58 basechar 0
AnchorPoint: "cutOutNW" 15 61 basechar 0
LayerCount: 2
Fore
SplineSet
198 133 m 0
 300 133 405 88 405 0 c 0
 405 -92 307 -133 198 -133 c 0
 97 -133 0 -87 0 0 c 256
 0 88 93 133 198 133 c 0
293 -21 m 0
 293 -7 290 8 285 23 c 0
 278 43 267 61 252 77 c 0
 232 98 209 108 184 108 c 1
 164 106 l 1
 149 101 137 92 128 78 c 1
 124 69 122 61 120 54 c 128
 118 47 117 38 117 27 c 0
 117 12 120 -7 126 -30 c 128
 132 -53 144 -71 160 -85 c 1
 175 -100 196 -108 222 -108 c 0
 226 -108 232 -107 240 -106 c 0
 259 -101 272 -91 280 -76 c 128
 288 -61 293 -42 293 -21 c 0
EndSplineSet
Validated: 1
EndChar

StartChar: uniE0A4
Encoding: 57508 57508 12
Width: 314
VWidth: 2048
Flags: HMW
AnchorPoint: "cutOutSE" 272 -61 basechar 0
AnchorPoint: "cutOutNW" 36 60 basechar 0
LayerCount: 2
Fore
SplineSet
0 -39 m 0
 0 29 73 133 200 133 c 0
 266 133 314 96 314 38 c 0
 314 -46 208 -133 96 -133 c 4
 32 -133 0 -103 0 -39 c 0
EndSplineSet
Validated: 1
EndChar

StartChar: uniE05C
Encoding: 57436 57436 13
Width: 656
VWidth: 2048
Flags: HW
LayerCount: 2
Fore
SplineSet
0 502 m 5
 118 502 l 5
 118 0 l 5
 79 0 39 0 0 0 c 5
 0 502 l 5
175 0 m 5
 175 -502 l 5
 218 -502 l 5
 218 -46 l 5
 231 -53 243 -64 255 -75 c 5
 265 -87 275 -99 282 -113 c 5
 288 -127 292 -144 296 -162 c 4
 299 -182 301 -203 301 -224 c 5
 308 -189 333 -170 374 -164 c 5
 452 -183 473 -232 474 -329 c 4
 474 -373 465 -406 443 -429 c 5
 425 -452 402 -464 374 -464 c 4
 331 -464 309 -427 308 -380 c 5
 315 -395 327 -398 347 -404 c 5
 353 -404 357 -402 363 -400 c 6
 380 -390 l 5
 390 -376 l 5
 397 -358 l 5
 393 -326 374 -310 341 -310 c 4
 285 -310 264 -349 264 -408 c 5
 274 -444 286 -473 317 -486 c 5
 320 -489 339 -495 344 -497 c 5
 378 -500 l 5
 413 -502 l 5
 533 -502 603 -441 603 -324 c 5
 606 -291 l 5
 606 -239 586 -194 546 -157 c 5
 526 -140 501 -128 472 -118 c 5
 441 -109 408 -105 371 -105 c 5
 278 -17 l 5
 278 17 l 5
 278 17 l 5
 371 105 l 5
 408 105 441 109 472 118 c 5
 501 128 526 140 546 157 c 5
 586 194 606 239 606 291 c 5
 603 324 l 5
 603 441 533 502 413 502 c 5
 378 500 l 5
 344 497 l 5
 339 495 320 489 317 486 c 5
 308 482 301 476 294 469 c 4
 277 452 272 436 264 408 c 5
 264 349 285 310 341 310 c 4
 374 310 393 326 397 358 c 5
 390 376 l 5
 380 390 l 5
 363 400 l 6
 357 402 353 404 347 404 c 5
 327 398 315 395 308 380 c 5
 309 427 331 464 374 464 c 4
 402 464 425 452 443 429 c 5
 465 406 474 373 474 329 c 4
 473 232 452 183 374 164 c 5
 333 170 308 189 301 224 c 5
 301 203 299 182 296 162 c 4
 292 144 288 127 282 113 c 5
 275 99 265 87 255 75 c 5
 243 64 231 53 218 46 c 5
 218 502 l 5
 175 502 l 5
 175 0 l 5
0 -502 m 5
 0 0 l 5
 118 0 l 5
 118 -502 l 5
 0 -502 l 5
EndSplineSet
Validated: 5
EndChar

StartChar: uniE05D
Encoding: 57437 57437 14
Width: 616
VWidth: 2048
Flags: HW
LayerCount: 2
Fore
SplineSet
380 -545 m 0
 380 -518 359 -505 331 -505 c 0
 316 -505 300 -513 300 -530 c 0
 300 -544 310 -555 318 -564 c 0
 326 -572 334 -582 344 -589 c 1
 349 -591 354 -593 357 -593 c 0
 374 -593 380 -563 380 -545 c 0
266 -626 m 1
 263 -628 260 -631 259 -634 c 1
 253 -642 249 -653 249 -664 c 0
 249 -666 249 -668 250 -671 c 0
 257 -703 284 -723 303 -723 c 0
 323 -723 340 -703 340 -687 c 0
 340 -682 338 -678 336 -673 c 0
 329 -654 311 -636 294 -625 c 0
 290 -623 285 -619 280 -619 c 0
 274 -619 269 -622 266 -626 c 1
0 502 m 1
 118 502 l 1
 118 167 118 -167 118 -502 c 1
 0 -502 l 1
 0 -167 0 167 0 502 c 1
321 -488 m 2
 328 -488 l 2
 336 -488 360 -491 381 -501 c 1
 413 -502 l 1
 533 -502 603 -441 603 -324 c 1
 606 -291 l 1
 606 -239 587 -193 546 -157 c 0
 506 -122 445 -105 371 -105 c 1
 278 -17 l 1
 278 17 l 1
 371 105 l 1
 445 105 506 122 546 157 c 0
 587 193 606 239 606 291 c 1
 603 324 l 1
 603 441 533 502 413 502 c 1
 378 500 l 1
 344 497 l 2
 339 495 320 489 317 486 c 1
 286 473 274 444 264 408 c 1
 264 349 285 310 341 310 c 0
 374 310 393 326 397 358 c 1
 390 376 l 1
 380 390 l 1
 363 400 l 2
 357 402 353 404 347 404 c 1
 327 398 315 395 308 380 c 1
 309 427 331 464 374 464 c 0
 402 464 424 451 443 429 c 0
 464 405 474 373 474 329 c 0
 473 232 452 183 374 164 c 1
 333 170 308 189 301 224 c 1
 301 135 275 78 218 46 c 1
 218 502 l 1
 175 502 l 1
 175 167 175 -167 175 -502 c 1
 218 -502 l 1
 218 -46 l 1
 275 -78 301 -135 301 -224 c 1
 308 -189 333 -170 374 -164 c 1
 452 -183 473 -232 474 -329 c 0
 474 -373 464 -405 443 -429 c 0
 424 -451 402 -464 374 -464 c 0
 331 -464 309 -427 308 -380 c 1
 315 -395 327 -398 347 -404 c 1
 353 -404 357 -402 363 -400 c 2
 380 -390 l 1
 390 -376 l 1
 397 -358 l 1
 393 -326 374 -310 341 -310 c 0
 285 -310 264 -349 264 -408 c 1
 274 -444 286 -473 317 -486 c 0
 318 -487 319 -487 321 -488 c 2
303 -735 m 0
 267 -735 211 -711 211 -665 c 0
 211 -637 236 -608 262 -599 c 0
 266 -598 268 -597 268 -594 c 0
 268 -592 267 -591 266 -591 c 0
 255 -578 250 -564 250 -550 c 0
 250 -516 279 -489 321 -488 c 1
 327 -491 340 -496 344 -497 c 2
 378 -500 l 1
 381 -501 l 1
 400 -510 416 -524 416 -548 c 0
 416 -583 394 -591 385 -598 c 0
 379 -603 377 -608 377 -614 c 0
 377 -620 378 -625 381 -630 c 0
 388 -641 390 -652 390 -664 c 0
 390 -691 372 -717 344 -729 c 0
 333 -733 317 -735 303 -735 c 0
EndSplineSet
Validated: 5
EndChar

StartChar: uniE051
Encoding: 57425 57425 15
Width: 650
VWidth: 2048
Flags: HW
LayerCount: 2
Fore
SplineSet
220 -890 m 0
 189 -886 100 -899 100 -881 c 1
 108 -863 129 -888 147 -851 c 0
 155 -835 187 -754 186 -754 c 2
 186 -754 188 -749 188 -745 c 0
 188 -741 187 -738 181 -738 c 0
 171 -738 167 -757 147 -757 c 0
 141 -757 136 -754 136 -749 c 0
 136 -747 136 -746 138 -743 c 0
 144 -736 218 -650 225 -644 c 0
 226 -643 228 -642 229 -641 c 1
 219 -638 210 -633 200 -628 c 0
 150 -604 123 -569 120 -523 c 0
 115 -451 155 -396 219 -392 c 0
 270 -389 318 -432 322 -479 c 0
 326 -535 292 -573 217 -594 c 1
 234 -618 268 -630 319 -630 c 0
 381 -630 435 -587 459 -545 c 0
 468 -529 472 -504 472 -471 c 0
 472 -451 470 -429 467 -404 c 0
 458 -351 449 -298 441 -245 c 1
 418 -249 393 -251 365 -251 c 0
 306 -251 263 -244 235 -231 c 0
 147 -189 85 -138 48 -77 c 0
 22 -33 5 26 0 99 c 0
 -10 231 78 365 154 436 c 0
 199 478 250 521 307 563 c 1
 304 579 299 609 294 655 c 0
 290 698 289 728 289 744 c 0
 289 861 305 916 358 1001 c 0
 392 1055 422 1082 447 1083 c 0
 468 1083 490 1053 516 991 c 0
 542 929 555 876 557 832 c 0
 559 712 538 659 490 576 c 0
 477 556 427 486 392 458 c 0
 379 449 367 439 355 429 c 1
 386 248 l 1
 394 249 404 250 414 250 c 0
 472 250 516 238 547 215 c 0
 606 172 639 111 645 31 c 0
 656 -104 565 -198 465 -239 c 1
 473 -296 482 -349 490 -401 c 0
 494 -432 496 -459 496 -481 c 0
 496 -511 491 -534 482 -551 c 0
 458 -596 424 -626 383 -642 c 1
 392 -642 l 2
 426 -642 459 -641 459 -646 c 0
 459 -668 425 -680 404 -684 c 2
 375 -690 l 2
 364 -692 353 -694 341 -697 c 2
 327 -700 l 1
 322 -704 320 -719 320 -726 c 0
 320 -727 321 -729 324 -729 c 0
 332 -729 346 -726 355 -726 c 0
 379 -726 386 -738 398 -738 c 1
 401 -741 l 1
 416 -752 424 -774 424 -796 c 0
 424 -856 366 -893 312 -893 c 0
 281 -893 250 -873 250 -835 c 0
 250 -822 255 -812 266 -806 c 1
 273 -804 l 1
 277 -804 l 2
 291 -804 301 -816 301 -830 c 0
 301 -845 287 -848 284 -866 c 1
 284 -877 301 -880 313 -880 c 0
 328 -879 353 -870 373 -813 c 0
 378 -799 380 -789 380 -781 c 0
 380 -753 358 -749 347 -749 c 0
 320 -749 300 -776 290 -776 c 0
 279 -776 279 -772 279 -767 c 0
 279 -754 302 -684 317 -655 c 1
 309 -655 300 -655 292 -654 c 1
 282 -680 206 -851 205 -859 c 0
 205 -880 232 -870 232 -881 c 0
 232 -886 227 -890 220 -890 c 0
461 939 m 0
 366 939 326 764 326 653 c 0
 326 629 328 605 331 582 c 1
 381 621 423 664 458 710 c 0
 501 767 521 816 518 858 c 0
 514 912 495 940 461 939 c 0
406 119 m 1
 460 -207 l 1
 540 -180 576 -119 569 -23 c 0
 561 76 507 123 406 119 c 1
382 117 m 1
 308 115 250 67 254 -10 c 0
 256 -56 297 -109 329 -125 c 1
 326 -127 322 -130 319 -135 c 1
 249 -102 203 -47 196 37 c 0
 191 110 238 172 284 207 c 0
 307 224 333 236 362 243 c 1
 333 413 l 1
 312 400 281 376 241 340 c 0
 191 296 155 256 132 221 c 0
 83 146 60 81 65 26 c 0
 70 -42 100 -101 158 -150 c 0
 216 -199 283 -223 361 -223 c 0
 386 -223 411 -220 436 -214 c 1
 417 -103 400 7 382 117 c 1
EndSplineSet
Validated: 33
EndChar

StartChar: uniE050
Encoding: 57424 57424 16
Width: 646
VWidth: 2048
Flags: HW
LayerCount: 2
Fore
SplineSet
441 -245 m 5
 418 -249 393 -251 365 -251 c 4
 306 -251 263 -244 235 -231 c 4
 147 -189 85 -138 48 -77 c 4
 22 -33 5 26 0 99 c 4
 -4 159 11 222 44 288 c 4
 73 345 109 394 154 436 c 132
 199 478 250 521 307 563 c 5
 304 579 299 609 294 655 c 4
 290 698 289 728 289 744 c 4
 289 861 305 916 358 1001 c 4
 392 1055 422 1083 447 1083 c 4
 468 1083 490 1053 516 991 c 132
 542 929 555 876 557 832 c 4
 559 712 538 659 490 576 c 4
 477 556 427 486 392 458 c 4
 379 449 367 439 355 429 c 5
 386 248 l 5
 394 249 404 250 414 250 c 4
 472 250 516 238 547 215 c 4
 606 172 639 111 645 31 c 4
 656 -104 565 -198 465 -239 c 5
 473 -296 482 -349 490 -401 c 4
 495 -432 496 -459 496 -481 c 4
 496 -511 491 -534 482 -551 c 4
 447 -615 394 -650 324 -654 c 4
 282 -657 241 -648 200 -628 c 4
 150 -604 123 -569 120 -523 c 4
 118 -489 125 -460 140 -436 c 4
 158 -408 185 -394 219 -392 c 4
 270 -388 318 -432 322 -479 c 4
 326 -535 292 -573 217 -594 c 5
 234 -618 268 -630 319 -630 c 4
 381 -630 435 -587 459 -545 c 4
 468 -529 472 -504 472 -471 c 4
 472 -451 471 -429 467 -404 c 4
 459 -351 449 -298 441 -245 c 5
461 939 m 4
 366 939 326 764 326 653 c 4
 326 629 328 605 331 582 c 5
 381 621 423 664 458 710 c 4
 501 767 521 816 518 858 c 4
 514 912 495 940 461 939 c 4
406 119 m 5
 460 -207 l 5
 540 -180 576 -119 569 -23 c 4
 562 76 507 123 406 119 c 5
382 117 m 5
 308 115 250 67 254 -10 c 4
 256 -56 297 -109 329 -125 c 5
 326 -127 322 -130 319 -135 c 5
 249 -102 203 -47 196 37 c 4
 191 110 238 172 284 207 c 4
 307 224 333 236 362 243 c 5
 333 413 l 5
 312 400 281 376 241 340 c 4
 191 296 155 256 132 221 c 4
 83 146 61 81 65 26 c 4
 70 -42 100 -101 158 -150 c 132
 216 -199 283 -223 361 -223 c 4
 386 -223 411 -220 436 -214 c 5
 417 -103 400 7 382 117 c 5
EndSplineSet
Validated: 33
EndChar

StartChar: uniE052
Encoding: 57426 57426 17
Width: 646
VWidth: 2048
Flags: HW
LayerCount: 2
Fore
SplineSet
382 117 m 1
 308 115 250 67 254 -10 c 0
 256 -56 297 -109 329 -125 c 1
 326 -127 322 -130 319 -135 c 1
 249 -102 203 -47 196 37 c 0
 191 110 238 172 284 207 c 0
 307 224 333 236 362 243 c 1
 333 413 l 1
 312 400 281 376 241 340 c 0
 191 296 155 256 132 221 c 0
 83 146 61 81 65 26 c 0
 70 -42 100 -101 158 -150 c 0
 216 -199 283 -223 361 -223 c 0
 386 -223 411 -220 436 -214 c 1
 417 -103 400 7 382 117 c 1
406 119 m 1
 460 -207 l 1
 540 -180 576 -119 569 -23 c 0
 562 76 507 123 406 119 c 1
461 939 m 0
 366 939 326 764 326 653 c 0
 326 629 328 605 331 582 c 1
 381 621 423 664 458 710 c 0
 501 767 521 816 518 858 c 0
 514 912 495 940 461 939 c 0
441 -245 m 1
 418 -249 393 -251 365 -251 c 0
 306 -251 263 -244 235 -231 c 0
 147 -189 85 -138 48 -77 c 0
 22 -33 5 26 0 99 c 0
 -4 159 11 222 44 288 c 0
 73 345 109 394 154 436 c 0
 199 478 250 521 307 563 c 1
 304 579 299 609 294 655 c 0
 290 698 289 728 289 744 c 0
 289 861 305 916 358 1001 c 0
 392 1055 422 1083 447 1083 c 0
 468 1083 490 1053 516 991 c 0
 542 929 555 876 557 832 c 0
 559 712 538 659 490 576 c 0
 477 556 427 486 392 458 c 0
 379 449 367 439 355 429 c 1
 386 248 l 1
 394 249 404 250 414 250 c 0
 472 250 516 238 547 215 c 0
 606 172 639 111 645 31 c 0
 656 -104 565 -198 465 -239 c 1
 473 -296 482 -349 490 -401 c 0
 495 -432 496 -459 496 -481 c 0
 496 -511 491 -534 482 -551 c 0
 457 -597 423 -628 380 -643 c 1
 401 -644 465 -656 465 -703 c 0
 465 -738 443 -746 434 -753 c 0
 428 -758 426 -763 426 -769 c 0
 426 -775 426 -780 430 -785 c 1
 436 -796 439 -807 439 -819 c 0
 439 -846 421 -872 393 -884 c 0
 382 -888 366 -890 352 -890 c 0
 318 -890 270 -869 262 -832 c 0
 261 -827 260 -824 260 -820 c 0
 260 -792 285 -763 311 -754 c 0
 315 -753 317 -752 317 -749 c 0
 317 -747 316 -746 315 -746 c 0
 304 -733 299 -719 299 -705 c 0
 299 -684 310 -665 329 -654 c 1
 328 -654 326 -654 324 -654 c 0
 282 -657 241 -648 200 -628 c 0
 150 -604 123 -569 120 -523 c 0
 118 -489 125 -460 140 -436 c 0
 158 -408 185 -394 219 -392 c 0
 270 -388 318 -432 322 -479 c 0
 326 -535 292 -573 217 -594 c 1
 234 -618 268 -630 319 -630 c 0
 381 -630 435 -587 459 -545 c 0
 468 -529 472 -504 472 -471 c 0
 472 -451 471 -429 467 -404 c 0
 459 -351 449 -298 441 -245 c 1
315 -781 m 1
 312 -783 309 -786 308 -789 c 1
 302 -797 298 -808 298 -819 c 0
 298 -821 298 -823 299 -826 c 0
 306 -858 333 -878 352 -878 c 0
 372 -878 389 -858 389 -842 c 0
 389 -837 387 -833 385 -828 c 0
 380 -815 371 -804 360 -794 c 0
 354 -789 349 -784 343 -780 c 0
 339 -778 334 -774 329 -774 c 0
 323 -774 318 -777 315 -781 c 1
349 -685 m 1
 349 -699 359 -710 367 -719 c 0
 375 -727 383 -737 393 -744 c 1
 398 -746 403 -748 406 -748 c 0
 423 -748 428 -718 429 -700 c 0
 429 -691 426 -680 420 -674 c 0
 412 -665 397 -660 380 -660 c 1
 365 -661 351 -668 349 -685 c 1
EndSplineSet
Validated: 33
EndChar

StartChar: uniE053
Encoding: 57427 57427 18
Width: 646
VWidth: 2048
Flags: HW
LayerCount: 2
Fore
SplineSet
382 117 m 5
 308 115 250 67 254 -10 c 4
 256 -56 297 -109 329 -125 c 5
 326 -127 322 -130 319 -135 c 5
 249 -102 203 -47 196 37 c 4
 191 110 238 172 284 207 c 4
 307 224 333 236 362 243 c 5
 333 413 l 5
 312 400 281 376 241 340 c 4
 191 296 155 256 132 221 c 4
 83 146 61 81 65 26 c 4
 70 -42 100 -101 158 -150 c 4
 216 -199 283 -223 361 -223 c 4
 386 -223 411 -220 436 -214 c 5
 417 -103 400 7 382 117 c 5
406 119 m 5
 460 -207 l 5
 540 -180 576 -119 569 -23 c 4
 562 76 507 123 406 119 c 5
461 939 m 4
 366 939 326 764 326 653 c 4
 326 629 328 605 331 582 c 5
 381 621 423 664 458 710 c 4
 501 767 521 816 518 858 c 4
 514 912 495 940 461 939 c 4
441 -245 m 5
 418 -249 393 -251 365 -251 c 4
 306 -251 263 -244 235 -231 c 4
 147 -189 85 -138 48 -77 c 4
 22 -33 5 26 0 99 c 4
 -4 159 11 222 44 288 c 4
 73 345 109 394 154 436 c 4
 199 478 250 521 307 563 c 5
 304 579 299 609 294 655 c 4
 290 698 289 728 289 744 c 4
 289 861 305 916 358 1001 c 4
 380 1036 401 1060 419 1073 c 5
 390 1080 358 1099 352 1128 c 4
 351 1133 350 1136 350 1140 c 4
 350 1168 375 1197 401 1206 c 4
 405 1207 407 1208 407 1211 c 4
 407 1213 406 1214 405 1214 c 4
 394 1227 389 1241 389 1255 c 4
 389 1279 403 1301 429 1311 c 5
 439 1316 451 1317 463 1317 c 6
 467 1317 l 6
 483 1317 555 1307 555 1257 c 4
 555 1222 533 1214 524 1207 c 4
 518 1202 516 1197 516 1191 c 4
 516 1185 516 1180 520 1175 c 5
 526 1164 529 1153 529 1141 c 4
 529 1114 511 1088 483 1076 c 4
 479 1075 474 1073 469 1072 c 5
 484 1058 499 1032 516 991 c 4
 542 929 555 876 557 832 c 4
 559 712 538 659 490 576 c 4
 477 556 427 486 392 458 c 4
 379 449 367 439 355 429 c 5
 386 248 l 5
 394 249 404 250 414 250 c 4
 472 250 516 238 547 215 c 4
 606 172 639 111 645 31 c 4
 656 -104 565 -198 465 -239 c 5
 473 -296 482 -349 490 -401 c 4
 495 -432 496 -459 496 -481 c 4
 496 -511 491 -534 482 -551 c 4
 447 -615 394 -650 324 -654 c 4
 282 -657 241 -648 200 -628 c 4
 150 -604 123 -569 120 -523 c 4
 118 -489 125 -460 140 -436 c 4
 158 -408 185 -394 219 -392 c 4
 270 -388 318 -432 322 -479 c 4
 326 -535 292 -573 217 -594 c 5
 234 -618 268 -630 319 -630 c 4
 381 -630 435 -587 459 -545 c 4
 468 -529 472 -504 472 -471 c 4
 472 -451 471 -429 467 -404 c 4
 459 -351 449 -298 441 -245 c 5
405 1179 m 5
 402 1177 399 1174 398 1171 c 5
 392 1163 388 1152 388 1141 c 4
 388 1139 388 1137 389 1134 c 4
 396 1104 420 1084 439 1082 c 5
 442 1083 444 1083 447 1083 c 4
 448 1083 449 1083 450 1083 c 4
 466 1087 479 1104 479 1118 c 4
 479 1123 477 1127 475 1132 c 4
 470 1145 461 1156 450 1166 c 4
 444 1171 439 1176 433 1180 c 4
 429 1182 424 1186 419 1186 c 4
 413 1186 408 1183 405 1179 c 5
439 1275 m 5
 439 1261 449 1250 457 1241 c 4
 465 1233 473 1223 483 1216 c 5
 488 1214 493 1212 496 1212 c 4
 513 1212 518 1242 519 1260 c 4
 519 1269 516 1280 510 1286 c 4
 502 1295 487 1300 470 1300 c 5
 455 1299 441 1292 439 1275 c 5
EndSplineSet
Validated: 33
EndChar

StartChar: uniE054
Encoding: 57428 57428 19
Width: 646
VWidth: 2048
Flags: HW
LayerCount: 2
Fore
SplineSet
382 117 m 1
 308 115 250 67 254 -10 c 0
 256 -56 297 -109 329 -125 c 1
 326 -127 322 -130 319 -135 c 1
 249 -102 203 -47 196 37 c 1
 191 110 238 172 284 207 c 0
 307 224 333 236 362 243 c 1
 333 413 l 1
 312 400 281 376 241 340 c 0
 191 296 155 256 132 221 c 0
 83 146 61 81 65 26 c 0
 70 -42 100 -101 158 -150 c 0
 216 -199 283 -223 361 -223 c 0
 386 -223 411 -220 436 -214 c 1
 417 -103 400 7 382 117 c 1
406 119 m 1
 460 -207 l 1
 540 -180 576 -119 569 -23 c 0
 562 76 507 123 406 119 c 1
461 939 m 1
 366 939 326 764 326 653 c 0
 326 629 328 605 331 582 c 1
 381 621 423 664 458 710 c 0
 501 767 521 816 518 858 c 0
 514 912 495 940 461 939 c 1
441 1113 m 0
 441 1129 449 1140 464 1144 c 1
 468 1144 l 2
 482 1144 492 1132 492 1118 c 0
 492 1103 478 1100 475 1082 c 1
 475 1071 492 1068 504 1068 c 0
 519 1069 544 1078 564 1135 c 0
 569 1149 571 1159 571 1167 c 0
 571 1195 549 1199 538 1199 c 0
 511 1199 491 1172 481 1172 c 0
 470 1172 470 1176 470 1181 c 0
 470 1197 506 1304 518 1306 c 1
 583 1306 l 2
 617 1306 650 1307 650 1302 c 0
 650 1280 616 1268 595 1264 c 2
 566 1258 l 2
 555 1256 544 1254 532 1251 c 2
 518 1248 l 1
 513 1244 511 1229 511 1222 c 0
 511 1221 512 1219 515 1219 c 0
 523 1219 537 1222 546 1222 c 0
 570 1222 577 1210 589 1210 c 1
 592 1207 l 1
 607 1196 615 1174 615 1152 c 0
 615 1092 557 1055 503 1055 c 0
 496 1055 488 1056 481 1058 c 1
 492 1043 504 1020 516 991 c 0
 542 929 555 876 557 832 c 1
 559 712 538 659 490 576 c 1
 477 556 427 486 392 458 c 1
 379 449 367 439 355 429 c 1
 386 248 l 1
 394 249 404 250 414 250 c 0
 472 250 516 238 547 215 c 0
 606 172 639 111 645 31 c 0
 656 -104 565 -198 465 -239 c 1
 473 -296 482 -349 490 -401 c 0
 495 -432 496 -459 496 -481 c 0
 496 -511 491 -534 482 -551 c 0
 447 -615 394 -650 324 -654 c 0
 282 -657 241 -648 200 -628 c 0
 150 -604 123 -569 120 -523 c 0
 116 -450 154 -396 219 -392 c 0
 270 -388 318 -432 322 -479 c 0
 326 -535 292 -573 217 -594 c 1
 234 -618 268 -630 319 -630 c 0
 381 -630 435 -587 459 -545 c 0
 468 -529 472 -504 472 -471 c 0
 472 -451 471 -429 467 -404 c 0
 459 -351 449 -298 441 -245 c 1
 418 -249 393 -251 365 -251 c 0
 306 -251 263 -244 235 -231 c 0
 147 -189 85 -138 48 -77 c 0
 22 -33 5 26 0 99 c 0
 -9 231 79 366 154 436 c 0
 199 478 250 521 307 563 c 1
 304 579 299 609 294 655 c 0
 290 698 289 728 289 744 c 0
 289 861 305 916 358 1001 c 0
 373 1026 388 1044 402 1058 c 1
 366 1059 291 1050 291 1067 c 1
 299 1085 320 1060 338 1097 c 0
 346 1113 378 1194 377 1194 c 2
 377 1194 379 1199 379 1203 c 0
 379 1207 378 1210 372 1210 c 0
 362 1210 358 1191 338 1191 c 0
 332 1191 327 1194 327 1199 c 0
 327 1201 327 1202 329 1205 c 0
 335 1212 409 1298 416 1304 c 0
 423 1310 427 1313 432 1313 c 0
 442 1313 449 1302 465 1302 c 0
 471 1302 476 1306 479 1306 c 0
 483 1306 484 1305 484 1301 c 2
 484 1297 l 1
 483 1290 397 1097 396 1089 c 1
 396 1074 410 1075 418 1072 c 1
 428 1079 438 1083 447 1083 c 0
 448 1083 l 1
 443 1091 441 1101 441 1113 c 0
EndSplineSet
Validated: 33
EndChar

StartChar: uniE062
Encoding: 57442 57442 20
Width: 698
VWidth: 2048
Flags: HW
LayerCount: 2
Fore
SplineSet
158 96 m 4
 209 96 231 82 246 47 c 6
 262 8 l 5
 262 -9 260 -22 255 -32 c 5
 252 -43 245 -53 236 -63 c 4
 219 -81 187 -106 152 -106 c 4
 97 -106 75 -93 40 -62 c 4
 16 -41 5 -7 5 38 c 4
 5 84 19 119 37 150 c 4
 67 202 108 229 174 243 c 5
 210 249 l 5
 236 251 l 5
 390 251 471 183 510 69 c 4
 521 37 528 1 528 -38 c 4
 528 -141 502 -220 460 -288 c 4
 371 -433 226 -518 48 -576 c 5
 18 -581 l 5
 9 -581 4 -578 4 -573 c 5
 7 -563 9 -562 14 -557 c 5
 49 -542 84 -527 110 -513 c 6
 188 -470 l 5
 284 -413 350 -334 385 -212 c 132
 394 -179 402 -152 407 -112 c 132
 410 -90 412 -77 413 -73 c 5
 406 -4 397 42 390 67 c 4
 383 92 386 89 374 107 c 4
 366 119 355 130 343 141 c 4
 319 162 281 185 225 185 c 4
 177 185 141 177 112 157 c 4
 84 138 70 113 70 84 c 4
 70 76 70 76 70 68 c 5
 72 63 73 59 74 57 c 5
 98 79 126 96 158 96 c 4
585 -118 m 132
 585 -86 608 -60 642 -60 c 4
 660 -60 675 -66 682 -78 c 132
 691 -93 698 -96 698 -118 c 4
 698 -127 696 -134 693 -139 c 5
 687 -158 666 -176 642 -176 c 4
 608 -176 585 -150 585 -118 c 132
642 177 m 4
 673 177 698 150 698 119 c 4
 698 89 673 61 642 61 c 5
 619 64 l 5
 600 71 585 96 585 119 c 5
 588 142 l 5
 597 162 616 177 642 177 c 4
EndSplineSet
Validated: 1
EndChar

StartChar: uniE063
Encoding: 57443 57443 21
Width: 698
VWidth: 2048
Flags: HW
LayerCount: 2
Fore
SplineSet
158 96 m 4
 209 96 231 82 246 47 c 6
 262 8 l 5
 262 -9 260 -22 255 -32 c 5
 252 -43 245 -53 236 -63 c 4
 219 -81 187 -106 152 -106 c 4
 97 -106 75 -93 40 -62 c 4
 16 -41 5 -7 5 38 c 4
 5 84 19 119 37 150 c 4
 67 202 108 229 174 243 c 5
 210 249 l 5
 236 251 l 5
 390 251 471 183 510 69 c 4
 521 37 528 1 528 -38 c 4
 528 -141 502 -220 460 -288 c 4
 371 -433 226 -518 48 -576 c 5
 18 -581 l 5
 9 -581 4 -578 4 -573 c 5
 7 -563 9 -562 14 -557 c 5
 49 -542 84 -527 110 -513 c 6
 188 -470 l 5
 284 -413 350 -334 385 -212 c 132
 394 -179 402 -152 407 -112 c 132
 410 -90 412 -77 413 -73 c 5
 406 -4 397 42 390 67 c 4
 383 92 386 89 374 107 c 4
 366 119 355 130 343 141 c 4
 319 162 281 185 225 185 c 4
 177 185 141 177 112 157 c 4
 84 138 70 113 70 84 c 4
 70 76 70 76 70 68 c 5
 72 63 73 59 74 57 c 5
 98 79 126 96 158 96 c 4
585 -118 m 132
 585 -86 608 -60 642 -60 c 4
 660 -60 675 -66 682 -78 c 132
 691 -93 698 -96 698 -118 c 4
 698 -127 696 -134 693 -139 c 5
 687 -158 666 -176 642 -176 c 4
 608 -176 585 -150 585 -118 c 132
642 177 m 4
 673 177 698 150 698 119 c 4
 698 89 673 61 642 61 c 5
 619 64 l 5
 600 71 585 96 585 119 c 5
 588 142 l 5
 597 162 616 177 642 177 c 4
254 -752 m 2
 254 -752 154 -752 150 -752 c 0
 145 -752 139 -749 139 -743 c 1
 141 -738 142 -735 150 -735 c 0
 158 -735 168 -732 168 -732 c 1
 168 -732 177 -730 185 -714 c 0
 193 -698 221 -621 221 -621 c 1
 221 -621 223 -616 223 -612 c 0
 223 -609 222 -606 217 -606 c 0
 213 -606 209 -609 205 -614 c 0
 201 -619 194 -624 185 -624 c 0
 178 -624 173 -621 173 -616 c 0
 173 -614 173 -613 175 -611 c 0
 181 -604 253 -521 258 -516 c 0
 265 -509 270 -506 274 -506 c 0
 278 -506 285 -510 290 -514 c 0
 295 -517 299 -518 306 -518 c 0
 311 -518 316 -514 319 -514 c 0
 323 -514 324 -515 324 -518 c 0
 324 -519 324 -521 324 -522 c 0
 322 -528 241 -714 240 -722 c 0
 240 -728 244 -736 253 -736 c 0
 259 -736 265 -738 265 -743 c 0
 265 -748 261 -752 254 -752 c 2
305 -669 m 0xabcc
 307 -669 308 -669 309 -669 c 0
 322 -669 332 -680 332 -694 c 0
 332 -699 330 -705 327 -709 c 0
 322 -715 317 -718 315 -726 c 1
 315 -728 l 2
 315 -739 332 -742 341 -742 c 2
 343 -742 l 2xabc4
 358 -742 381 -732 401 -677 c 0
 405 -664 407 -655 407 -646 c 0
 407 -620 387 -616 375 -616 c 0
 357 -616 337 -635 329 -640 c 0
 327 -642 324 -642 321 -642 c 0
 317 -642 314 -641 314 -641 c 2
 312 -640 311 -637 311 -634 c 0
 311 -630 312 -626 312 -624 c 0
 312 -623 313 -623 313 -622 c 0
 317 -604 326 -586 332 -568 c 0xabac
 335 -559 344 -541 344 -534 c 1
 346 -527 350 -515 357 -514 c 1
 365 -514 392 -514 419 -514 c 0
 446 -514 474 -514 482 -515 c 0
 483 -515 483 -516 483 -517 c 0
 483 -521 478 -529 477 -530 c 0
 475 -534 471 -537 468 -539 c 0
 464 -542 460 -545 455 -547 c 0
 447 -550 439 -552 430 -554 c 0
 421 -555 412 -557 403 -559 c 0
 392 -562 381 -562 370 -566 c 0
 366 -567 361 -568 357 -570 c 0x7ba4
 352 -573 351 -581 351 -587 c 1
 350 -589 350 -591 350 -593 c 0
 350 -595 350 -596 352 -597 c 2
 353 -598 l 1
 355 -598 358 -596 361 -596 c 1
 363 -595 365 -595 367 -595 c 0
 373 -594 379 -594 384 -594 c 0
 406 -594 414 -599 425 -606 c 1
 427 -608 l 1x6bac
 438 -616 443 -627 447 -640 c 0
 449 -646 450 -654 450 -662 c 0
 450 -670 449 -678 448 -684 c 0
 443 -708 423 -726 402 -738 c 0
 385 -747 363 -755 343 -755 c 0
 328 -755 313 -751 302 -742 c 0
 291 -733 283 -715 283 -699 c 0
 283 -687 288 -676 299 -671 c 0
 301 -670 303 -670 305 -669 c 0xabcc
EndSplineSet
Validated: 1
EndChar

StartChar: uniE064
Encoding: 57444 57444 22
Width: 698
VWidth: 2048
Flags: HW
LayerCount: 2
Fore
SplineSet
158 96 m 4
 209 96 231 82 246 47 c 6
 262 8 l 5
 262 -9 260 -22 255 -32 c 5
 252 -43 245 -53 236 -63 c 4
 219 -81 187 -106 152 -106 c 4
 97 -106 75 -93 40 -62 c 4
 16 -41 5 -7 5 38 c 4
 5 84 19 119 37 150 c 4
 67 202 108 229 174 243 c 5
 210 249 l 5
 236 251 l 5
 390 251 471 183 510 69 c 4
 521 37 528 1 528 -38 c 4
 528 -141 502 -220 460 -288 c 4
 371 -433 226 -518 48 -576 c 5
 18 -581 l 5
 9 -581 4 -578 4 -573 c 5
 7 -563 9 -562 14 -557 c 5
 49 -542 84 -527 110 -513 c 6
 188 -470 l 5
 284 -413 350 -334 385 -212 c 132
 394 -179 402 -152 407 -112 c 132
 410 -90 412 -77 413 -73 c 5
 406 -4 397 42 390 67 c 4
 383 92 386 89 374 107 c 4
 366 119 355 130 343 141 c 4
 319 162 281 185 225 185 c 4
 177 185 141 177 112 157 c 4
 84 138 70 113 70 84 c 4
 70 76 70 76 70 68 c 5
 72 63 73 59 74 57 c 5
 98 79 126 96 158 96 c 4
585 -118 m 132
 585 -86 608 -60 642 -60 c 4
 660 -60 675 -66 682 -78 c 132
 691 -93 698 -96 698 -118 c 4
 698 -127 696 -134 693 -139 c 5
 687 -158 666 -176 642 -176 c 4
 608 -176 585 -150 585 -118 c 132
642 177 m 4
 673 177 698 150 698 119 c 4
 698 89 673 61 642 61 c 5
 619 64 l 5
 600 71 585 96 585 119 c 5
 588 142 l 5
 597 162 616 177 642 177 c 4
232 -572 m 0
 232 -539 261 -513 303 -513 c 2
 308 -513 l 2
 323 -513 392 -523 392 -570 c 0
 392 -604 371 -611 362 -619 c 0
 356 -624 354 -629 354 -634 c 0
 354 -639 355 -644 358 -649 c 0
 364 -659 366 -670 366 -681 c 0
 366 -708 350 -733 323 -744 c 0
 311 -748 296 -750 284 -750 c 0
 249 -750 195 -727 195 -683 c 0
 195 -656 219 -628 244 -620 c 0
 249 -618 250 -617 250 -615 c 0
 250 -613 249 -612 248 -611 c 0
 237 -600 232 -586 232 -572 c 0
358 -567 m 2
 358 -542 336 -529 312 -529 c 2
 310 -529 l 1
 295 -530 282 -537 280 -553 c 1x0520
 280 -555 l 2
 280 -567 290 -578 297 -586 c 0
 306 -595 320 -614 335 -614 c 0
 352 -614 357 -585 358 -570 c 1
 358 -567 l 2
261 -638 m 0x2808
 243 -638 232 -663 232 -681 c 2
 232 -688 l 1
 239 -720 265 -738 283 -738 c 0
 303 -738 318 -720 318 -704 c 0
 318 -699 317 -695 315 -691 c 0
 310 -678 302 -667 291 -658 c 0
 286 -653 280 -649 275 -644 c 1
 271 -642 266 -638 261 -638 c 0x2808
EndSplineSet
Validated: 1
EndChar

StartChar: uniE065
Encoding: 57445 57445 23
Width: 698
VWidth: 2048
Flags: HW
LayerCount: 2
Fore
SplineSet
642 177 m 0
 673 177 698 150 698 119 c 0
 698 89 673 61 642 61 c 1
 619 64 l 1
 600 71 585 96 585 119 c 1
 588 142 l 1
 597 162 616 177 642 177 c 0
585 -118 m 128
 585 -86 608 -60 642 -60 c 0
 660 -60 675 -66 682 -78 c 128
 691 -93 698 -96 698 -118 c 0
 698 -127 696 -134 693 -139 c 1
 687 -158 666 -176 642 -176 c 0
 608 -176 585 -150 585 -118 c 128
158 96 m 0
 209 96 231 82 246 47 c 2
 262 8 l 1
 262 -9 260 -22 255 -32 c 1
 252 -43 245 -53 236 -63 c 0
 219 -81 187 -106 152 -106 c 0
 97 -106 75 -93 40 -62 c 0
 16 -41 5 -7 5 38 c 0
 5 84 19 119 37 150 c 0
 67 202 108 229 174 243 c 1
 210 249 l 1
 236 251 l 1
 270 251 301 247 328 241 c 1
 315 250 305 263 302 278 c 0
 301 283 300 286 300 290 c 0
 300 318 325 347 351 356 c 0
 355 357 357 358 357 361 c 0
 357 363 356 364 355 364 c 0
 344 377 339 391 339 405 c 0
 339 429 353 451 379 461 c 1
 389 466 401 467 413 467 c 2
 417 467 l 2
 433 467 505 457 505 407 c 0
 505 372 483 364 474 357 c 0
 468 352 466 347 466 341 c 0
 466 335 466 330 470 325 c 1
 476 314 479 303 479 291 c 0
 479 264 461 238 433 226 c 0
 422 222 406 220 392 220 c 0
 390 220 389 220 387 220 c 1
 448 190 486 138 510 69 c 0
 521 37 528 1 528 -38 c 0
 528 -141 502 -220 460 -288 c 0
 371 -433 226 -518 48 -576 c 1
 18 -581 l 1
 9 -581 4 -578 4 -573 c 1
 7 -563 9 -562 14 -557 c 1
 49 -542 84 -527 110 -513 c 2
 188 -470 l 1
 284 -413 350 -334 385 -212 c 0
 394 -179 402 -152 407 -112 c 0
 410 -90 412 -77 413 -73 c 1
 406 -4 397 42 390 67 c 0
 383 92 386 89 374 107 c 0
 366 119 355 130 343 141 c 0
 319 162 281 185 225 185 c 0
 177 185 141 177 112 157 c 0
 84 138 70 113 70 84 c 0
 70 76 70 76 70 68 c 1
 72 63 73 59 74 57 c 1
 98 79 126 96 158 96 c 0
355 329 m 1
 352 327 349 324 348 321 c 1
 342 313 338 302 338 291 c 0
 338 289 338 287 339 284 c 0
 346 252 373 232 392 232 c 0
 412 232 429 252 429 268 c 0
 429 273 427 277 425 282 c 0
 420 295 411 306 400 316 c 0
 394 321 389 326 383 330 c 0
 379 332 374 336 369 336 c 0
 363 336 358 333 355 329 c 1
389 425 m 1
 389 411 399 400 407 391 c 0
 415 383 423 373 433 366 c 1
 438 364 443 362 446 362 c 0
 463 362 468 392 469 410 c 0
 469 419 466 430 460 436 c 0
 452 445 437 450 420 450 c 1
 405 449 391 442 389 425 c 1
EndSplineSet
Validated: 1
EndChar

StartChar: uniE066
Encoding: 57446 57446 24
Width: 698
VWidth: 2048
Flags: HW
LayerCount: 2
Fore
SplineSet
642 177 m 0
 673 177 698 150 698 119 c 0
 698 89 673 61 642 61 c 1
 619 64 l 1
 600 71 585 96 585 119 c 1
 588 142 l 1
 597 162 616 177 642 177 c 0
585 -118 m 128
 585 -86 608 -60 642 -60 c 0
 660 -60 675 -66 682 -78 c 128
 691 -93 698 -96 698 -118 c 0
 698 -127 696 -134 693 -139 c 1
 687 -158 666 -176 642 -176 c 0
 608 -176 585 -150 585 -118 c 128
158 96 m 0
 209 96 231 82 246 47 c 2
 262 8 l 1
 262 -9 260 -22 255 -32 c 1
 252 -43 245 -53 236 -63 c 0
 219 -81 187 -106 152 -106 c 4
 97 -106 75 -93 40 -62 c 0
 16 -41 5 -7 5 38 c 0
 5 84 19 119 37 150 c 0
 65 199 131 231 189 246 c 1
 197 263 189 232 207 269 c 0
 215 285 247 366 246 366 c 2
 246 366 248 371 248 375 c 0
 248 379 247 382 241 382 c 0
 231 382 227 363 207 363 c 0
 201 363 196 366 196 371 c 0
 196 373 196 374 198 377 c 0
 204 384 278 470 285 476 c 0
 292 482 296 485 301 485 c 0
 311 485 318 474 334 474 c 0
 340 474 345 478 348 478 c 0
 352 478 353 477 353 473 c 2
 353 469 l 1
 352 462 266 269 265 261 c 0
 265 255 267 252 270 250 c 1
 292 248 312 246 331 241 c 1
 319 251 310 265 310 285 c 0
 310 298 315 308 326 314 c 1
 333 316 l 1
 337 316 l 2
 351 316 361 304 361 290 c 0
 361 275 347 272 344 254 c 1
 344 243 361 240 373 240 c 0
 388 241 413 250 433 307 c 0
 438 321 440 331 440 339 c 0
 440 367 418 371 407 371 c 0
 380 371 360 344 350 344 c 0
 339 344 339 348 339 353 c 0
 339 369 375 476 387 478 c 1
 452 478 l 2
 486 478 519 479 519 474 c 0
 519 452 485 440 464 436 c 2
 435 430 l 2
 424 428 413 426 401 423 c 2
 387 420 l 1
 382 416 380 401 380 394 c 0
 380 393 381 391 384 391 c 0
 392 391 406 394 415 394 c 0
 439 394 446 382 458 382 c 1
 461 379 l 1
 476 368 484 346 484 324 c 0
 484 264 426 227 372 227 c 1
 441 198 485 143 510 69 c 0
 521 37 528 1 528 -38 c 0
 528 -141 502 -220 460 -288 c 0
 371 -433 226 -518 48 -576 c 1
 18 -581 l 1
 9 -581 4 -578 4 -573 c 1
 7 -563 9 -562 14 -557 c 1
 49 -542 84 -527 110 -513 c 2
 188 -470 l 1
 284 -413 350 -334 385 -212 c 0
 394 -179 402 -152 407 -112 c 0
 410 -90 412 -77 413 -73 c 1
 406 -4 397 42 390 67 c 0
 383 92 386 89 374 107 c 0
 366 119 355 130 343 141 c 0
 319 162 281 185 225 185 c 0
 177 185 141 177 112 157 c 0
 84 138 70 113 70 84 c 0
 70 76 70 76 70 68 c 1
 72 63 73 59 74 57 c 1
 98 79 126 96 158 96 c 0
EndSplineSet
Validated: 33
EndChar

StartChar: uniE262
Encoding: 57954 57954 25
Width: 197
VWidth: 2048
Flags: HW
AnchorPoint: "cutOutNW" 40 161 basechar 0
AnchorPoint: "cutOutNE" 156 211 basechar 0
AnchorPoint: "cutOutSE" 156 -160 basechar 0
AnchorPoint: "cutOutSW" 40 -205 basechar 0
LayerCount: 2
Fore
SplineSet
136 186 m 1
 136 355 l 1
 153 355 l 1
 153 191 l 1
 197 205 l 1
 197 114 l 1
 153 100 l 1
 153 -65 l 1
 197 -53 l 1
 197 -144 l 1
 153 -157 l 1
 153 -312 l 1
 136 -312 l 1
 136 -162 l 1
 60 -184 l 1
 60 -339 l 1
 43 -339 l 1
 43 -190 l 1
 0 -203 l 1
 0 -113 l 1
 43 -99 l 1
 43 68 l 1
 0 54 l 1
 0 146 l 5
 43 159 l 5
 43 328 l 1
 60 328 l 1
 60 165 l 1
 136 186 l 1
60 73 m 1
 60 -94 l 1
 136 -72 l 1
 136 96 l 1
 60 73 l 1
EndSplineSet
Validated: 1
EndChar

StartChar: uniE261
Encoding: 57953 57953 26
Width: 157
VWidth: 2048
Flags: HW
AnchorPoint: "cutOutSW" 137 -190 basechar 0
AnchorPoint: "cutOutNE" 20 184 basechar 0
LayerCount: 2
Fore
SplineSet
0 -188 m 1
 0 351 l 1
 18 351 l 1
 18 160 l 1
 157 182 l 1
 157 4 157 -173 157 -351 c 1
 140 -351 l 1
 140 -165 l 1
 0 -188 l 1
18 -100 m 1
 140 -83 l 1
 140 93 l 1
 18 74 l 1
 18 -100 l 1
EndSplineSet
Validated: 1
EndChar

StartChar: uniE260
Encoding: 57952 57952 27
Width: 200
VWidth: 2048
Flags: HW
AnchorPoint: "cutOutSE" 108 -86 basechar 0
AnchorPoint: "cutOutNE" 24 141 basechar 0
LayerCount: 2
Fore
SplineSet
20 110 m 1
 52 126 74 137 113 137 c 0
 139 137 148 134 167 124 c 0
 180 117 191 104 194 86 c 2
 198 61 l 1
 198 33 182 4 153 -28 c 0
 130 -53 114 -72 88 -96 c 2
 0 -175 l 1
 0 469 l 1
 20 469 l 1
 20 110 l 1
90 106 m 1
 58 106 42 96 20 77 c 1
 20 -117 l 1
 51 -86 74 -58 91 -33 c 0
 112 -1 123 26 123 51 c 0
 123 60 124 67 124 71 c 0
 124 85 121 92 113 101 c 1
 105 104 l 1
 90 106 l 1
EndSplineSet
Validated: 1
EndChar

StartChar: uniE264
Encoding: 57956 57956 28
Width: 388
VWidth: 2048
Flags: HW
AnchorPoint: "cutOutNE" 214 140 basechar 0
AnchorPoint: "cutOutSE" 308 -75 basechar 0
LayerCount: 2
Fore
SplineSet
280 106 m 1
 248 106 232 96 210 77 c 1
 210 -117 l 1
 241 -86 264 -58 281 -33 c 0
 302 -1 313 26 313 51 c 0
 314 60 314 67 314 71 c 0
 314 85 311 92 303 101 c 1
 295 104 l 1
 280 106 l 1
113 137 m 0
 151 137 178 124 190 96 c 1
 190 469 l 1
 210 469 l 1
 210 110 l 1
 242 126 264 137 303 137 c 0
 329 137 338 134 357 124 c 0
 370 117 381 104 384 86 c 2
 388 61 l 1
 388 33 372 4 343 -28 c 0
 320 -53 304 -72 278 -96 c 2
 190 -175 l 1
 190 24 l 1
 178 -4 144 -39 123 -63 c 0
 114 -74 102 -85 88 -96 c 2
 0 -175 l 1
 -0 41.9751486708 0 254.286952337 0 469 c 1
 20 469 l 1
 20 110 l 1
 52 126 74 137 113 137 c 0
90 106 m 1
 58 106 42 96 20 77 c 1
 20 -117 l 1
 51 -86 74 -58 91 -33 c 0
 112 -1 123 26 123 51 c 0
 124 60 124 67 124 71 c 0
 124 85 121 92 113 101 c 1
 105 104 l 1
 90 106 l 1
EndSplineSet
Validated: 1
EndChar

StartChar: uniE266
Encoding: 57958 57958 29
Width: 578
VWidth: 2048
Flags: HW
AnchorPoint: "cutOutSE" 492 -78 basechar 0
AnchorPoint: "cutOutNE" 404 142 basechar 0
LayerCount: 2
Fore
SplineSet
280 106 m 1
 248 106 232 96 210 77 c 1
 210 -117 l 1
 241 -86 264 -58 281 -33 c 0
 302 -1 313 26 313 51 c 0
 314 60 314 67 314 71 c 0
 314 85 311 92 303 101 c 1
 295 104 l 1
 280 106 l 1
303 137 m 0
 341 137 368 124 380 96 c 1
 380 469 l 1
 400 469 l 1
 400 110 l 1
 432 126 454 137 493 137 c 0
 519 137 528 134 547 124 c 0
 560 117 571 104 574 86 c 2
 578 61 l 1
 578 33 562 4 533 -28 c 0
 510 -53 494 -72 468 -96 c 2
 380 -175 l 1
 380 24 l 1
 368 -4 334 -39 313 -63 c 0
 304 -74 292 -85 278 -96 c 2
 190 -175 l 1
 190 24 l 1
 178 -4 144 -39 123 -63 c 0
 114 -74 102 -85 88 -96 c 2
 0 -175 l 1
 0 469 l 1
 20 469 l 1
 20 110 l 1
 52 126 74 137 113 137 c 0
 151 137 178 124 190 96 c 1
 190 469 l 1
 210 469 l 1
 210 110 l 1
 242 126 264 137 303 137 c 0
470 106 m 1
 438 106 422 96 400 77 c 1
 400 -117 l 1
 431 -86 454 -58 471 -33 c 0
 492 -1 503 26 503 51 c 0
 504 60 504 67 504 71 c 0
 504 85 501 92 493 101 c 1
 485 104 l 1
 470 106 l 1
90 106 m 1
 58 106 42 96 20 77 c 1
 20 -117 l 1
 51 -86 74 -58 91 -33 c 0
 112 -1 123 26 123 51 c 0
 124 60 124 67 124 71 c 0
 124 85 121 92 113 101 c 1
 105 104 l 1
 90 106 l 1
EndSplineSet
Validated: 1
EndChar

StartChar: uniE267
Encoding: 57959 57959 30
Width: 378
VWidth: 2048
Flags: HW
AnchorPoint: "cutOutNE" 204 139 basechar 0
AnchorPoint: "cutOutSE" 292 -80 basechar 0
AnchorPoint: "cutOutSW" 135 -195 basechar 0
LayerCount: 2
Fore
SplineSet
0 -188 m 1
 0 351 l 1
 18 351 l 1
 18 160 l 1
 157 182 l 1
 157 4 157 -173 157 -351 c 1
 140 -351 l 1
 140 -165 l 1
 0 -188 l 1
18 -100 m 1
 140 -83 l 1
 140 93 l 1
 18 74 l 1
 18 -100 l 1
200 110 m 1
 232 126 254 137 293 137 c 0
 319 137 328 134 347 124 c 0
 360 117 371 104 374 86 c 2
 378 61 l 1
 378 33 362 4 333 -28 c 0
 310 -53 294 -72 268 -96 c 2
 180 -175 l 1
 180 469 l 1
 200 469 l 1
 200 110 l 1
270 106 m 1
 238 106 222 96 200 77 c 1
 200 -117 l 1
 231 -86 254 -58 271 -33 c 0
 292 -1 303 26 303 51 c 0
 303 60 304 67 304 71 c 0
 304 85 301 92 293 101 c 1
 285 104 l 1
 270 106 l 1
EndSplineSet
Validated: 1
EndChar

StartChar: uniE263
Encoding: 57955 57955 31
Width: 258
VWidth: 2048
Flags: HW
LayerCount: 2
Fore
SplineSet
0 120 m 5
 74 120 l 5
 74 66 l 5
 89 49 l 5
 168 49 l 5
 183 65 l 5
 183 120 l 5
 257 120 l 5
 257 48 l 5
 198 48 l 5
 173 20 l 5
 173 -18 l 5
 198 -50 l 5
 257 -50 l 5
 257 -120 l 5
 182 -120 l 5
 182 -65 l 5
 168 -50 l 5
 88 -50 l 5
 74 -65 l 5
 74 -120 l 5
 0 -120 l 5
 0 -48 l 5
 60 -48 l 5
 86 -18 l 5
 86 20 l 5
 58 49 l 5
 0 49 l 5
 0 120 l 5
EndSplineSet
Validated: 1
EndChar

StartChar: uniE265
Encoding: 57957 57957 32
Width: 475
VWidth: 2048
Flags: HW
AnchorPoint: "cutOutNE" 435 209 basechar 0
AnchorPoint: "cutOutSE" 435 -161 basechar 0
AnchorPoint: "cutOutSW" 274 -125 basechar 0
AnchorPoint: "cutOutNW" 274 124 basechar 0
LayerCount: 2
Fore
SplineSet
414 186 m 1
 414 355 l 1
 431 355 l 1
 431 191 l 1
 475 205 l 1
 475 114 l 1
 431 100 l 1
 431 -65 l 1
 475 -53 l 1
 475 -144 l 1
 431 -157 l 1
 431 -312 l 1
 414 -312 l 1
 414 -162 l 1
 338 -184 l 1
 338 -339 l 1
 321 -339 l 1
 321 -190 l 1
 278 -203 l 1
 278 -113 l 1
 321 -99 l 1
 321 68 l 1
 278 54 l 1
 278 146 l 1
 321 159 l 1
 321 328 l 1
 338 328 l 1
 338 165 l 1
 414 186 l 1
338 73 m 1
 338 -94 l 1
 414 -72 l 1
 414 96 l 1
 338 73 l 1
0 120 m 1
 74 120 l 1
 74 66 l 1
 89 49 l 1
 168 49 l 1
 183 65 l 1
 183 120 l 1
 257 120 l 1
 257 48 l 1
 198 48 l 1
 173 20 l 1
 173 -18 l 1
 198 -50 l 1
 257 -50 l 1
 257 -120 l 1
 182 -120 l 1
 182 -65 l 1
 168 -50 l 1
 88 -50 l 1
 74 -65 l 1
 74 -120 l 1
 0 -120 l 1
 0 -48 l 1
 60 -48 l 1
 86 -18 l 1
 86 20 l 1
 58 49 l 1
 0 49 l 1
 0 120 l 1
EndSplineSet
Validated: 1
EndChar

StartChar: uniE268
Encoding: 57960 57960 33
Width: 377
VWidth: 2048
Flags: HW
AnchorPoint: "cutOutSE" 337 -162 basechar 0
AnchorPoint: "cutOutSW" 136 -193 basechar 0
AnchorPoint: "cutOutNE" 337 210 basechar 0
LayerCount: 2
Fore
SplineSet
0 -188 m 1
 0 351 l 1
 18 351 l 1
 18 160 l 1
 157 182 l 1
 157 4 157 -173 157 -351 c 1
 140 -351 l 1
 140 -165 l 1
 0 -188 l 1
18 -100 m 1
 140 -83 l 1
 140 93 l 1
 18 74 l 1
 18 -100 l 1
316 186 m 1
 316 355 l 1
 333 355 l 1
 333 191 l 1
 377 205 l 1
 377 114 l 1
 333 100 l 1
 333 -65 l 1
 377 -53 l 1
 377 -144 l 1
 333 -157 l 1
 333 -312 l 1
 316 -312 l 1
 316 -162 l 1
 240 -184 l 1
 240 -339 l 1
 223 -339 l 1
 223 -190 l 1
 180 -203 l 1
 180 -113 l 1
 223 -99 l 1
 223 68 l 1
 180 54 l 1
 180 146 l 1
 223 159 l 1
 223 328 l 1
 240 328 l 1
 240 165 l 1
 316 186 l 1
240 73 m 1
 240 -94 l 1
 316 -72 l 1
 316 96 l 1
 240 73 l 1
EndSplineSet
Validated: 1
EndChar

StartChar: uniE269
Encoding: 57961 57961 34
Width: 412
VWidth: 2048
Flags: HW
AnchorPoint: "cutOutNE" 370 207 basechar 0
AnchorPoint: "cutOutSE" 371 -159 basechar 0
AnchorPoint: "cutOutSW" 40 -205 basechar 0
AnchorPoint: "cutOutNW" 40 164 basechar 0
LayerCount: 2
Fore
SplineSet
136 186 m 1
 136 355 l 1
 153 355 l 1
 153 191 l 1
 197 205 l 1
 197 114 l 1
 153 100 l 1
 153 -65 l 1
 197 -53 l 1
 197 -144 l 1
 153 -157 l 1
 153 -312 l 1
 136 -312 l 1
 136 -162 l 1
 60 -184 l 1
 60 -339 l 1
 43 -339 l 1
 43 -190 l 1
 0 -203 l 1
 0 -113 l 1
 43 -99 l 1
 43 68 l 1
 0 54 l 1
 0 146 l 1
 43 159 l 1
 43 328 l 1
 60 328 l 1
 60 165 l 1
 136 186 l 1
60 73 m 1
 60 -94 l 1
 136 -72 l 1
 136 96 l 1
 60 73 l 1
351 186 m 1
 351 355 l 1
 368 355 l 1
 368 191 l 1
 412 205 l 1
 412 114 l 1
 368 100 l 1
 368 -65 l 1
 412 -53 l 1
 412 -144 l 1
 368 -157 l 1
 368 -312 l 1
 351 -312 l 1
 351 -162 l 1
 275 -184 l 1
 275 -339 l 1
 258 -339 l 1
 258 -190 l 1
 215 -203 l 1
 215 -113 l 1
 258 -99 l 1
 258 68 l 1
 215 54 l 1
 215 146 l 1
 258 159 l 1
 258 328 l 1
 275 328 l 1
 275 165 l 1
 351 186 l 1
275 73 m 1
 275 -94 l 1
 351 -72 l 1
 351 96 l 1
 275 73 l 1
EndSplineSet
Validated: 1
EndChar

StartChar: uniE26A
Encoding: 57962 57962 35
Width: 163
Flags: HW
LayerCount: 2
Fore
SplineSet
163 -234 m 6xa0
 163 -247 l 6
 163 -248 162 -251 162 -251 c 5
 160 -251 159 -251 159 -250 c 4
 48 -189 0 -101 0 0 c 4
 0 102 50 189 159 249 c 5
 159 250 l 5
 162 250 163 248 163 246 c 4
 163 235 l 5
 163 235 163 230 160 227 c 4x60
 93 178 59 111 59 0 c 4
 59 -111 96 -177 159 -228 c 5
 162 -229 163 -231 163 -234 c 6xa0
EndSplineSet
Validated: 1
EndChar

StartChar: uniE26B
Encoding: 57963 57963 36
Width: 163
Flags: HW
LayerCount: 2
Fore
SplineSet
0 -247 m 6xa0
 0 -234 l 6
 0 -231 1 -229 4 -228 c 5
 67 -177 104 -111 104 0 c 4
 104 111 70 178 3 227 c 4
 0 230 0 235 0 235 c 5
 0 235 0 242 0 246 c 4
 0 248 1 250 4 250 c 5
 4 249 l 5x60
 113 189 163 102 163 0 c 4
 163 -101 115 -189 4 -250 c 4
 4 -251 3 -251 1 -251 c 5
 1 -251 0 -248 0 -247 c 6xa0
EndSplineSet
Validated: 1
EndChar

StartChar: uniE4C0
Encoding: 58560 58560 37
Width: 605
Flags: HW
LayerCount: 2
Fore
SplineSet
605 21 m 1052,0,0
0 0 m 21,0,0
 0 3 3 17 4 21 c 4,0,0
 65 327 272 320 304 320 c 4,0,0
 333 320 542 327 604 21 c 4,0,0
 605 17 605 3 605 0 c 5,0,0
 573 0 l 5,0,0
 572 1 569 22 568 25 c 4,0,0
 558 63 516 227 303 227 c 4,0,0
 95 227 51 68 39 27 c 4,0,0
 38 23 33 1 33 0 c 5,0,0
 0 0 l 21,0,0
358 52 m 4,0,0
 358 22 333 -3 303 -3 c 4,0,0
 274 -3 249 22 249 52 c 4,0,0
 249 81 274 106 303 106 c 4,0,0
 333 106 358 81 358 52 c 4,0,0
EndSplineSet
Validated: 33
EndChar

StartChar: uniE4C1
Encoding: 58561 58561 38
Width: 605
Flags: HW
LayerCount: 2
Fore
SplineSet
605 -21 m 1052,0,0
0 0 m 21,0,0
 0 -3 3 -17 4 -21 c 4,0,0
 65 -327 272 -320 304 -320 c 4,0,0
 333 -320 542 -327 604 -21 c 4,0,0
 605 -17 605 -3 605 0 c 5,0,0
 573 0 l 5,0,0
 572 -1 569 -22 568 -25 c 4,0,0
 558 -63 516 -227 303 -227 c 4,0,0
 95 -227 51 -68 39 -27 c 4,0,0
 38 -23 33 -1 33 0 c 5,0,0
 0 0 l 21,0,0
358 -52 m 4,0,0
 358 -22 333 3 303 3 c 4,0,0
 274 3 249 -22 249 -52 c 4,0,0
 249 -81 274 -106 303 -106 c 4,0,0
 333 -106 358 -81 358 -52 c 4,0,0
EndSplineSet
Validated: 41
EndChar

StartChar: uniE0FA
Encoding: 57594 57594 39
Width: 405
VWidth: 2048
Flags: HW
LayerCount: 2
Fore
SplineSet
198 -133 m 0
 146.667 -133 102.333 -122.333 65 -101 c 0
 21.6667 -77 0 -43.3333 0 0 c 128
 -3.8147e-06 43.3333 21.3333 77.3333 64 102 c 1
 101.333 122.667 146 133 198 133 c 4
 250.667 133 296.667 122.333 336 101 c 1
 382 77 405 43.3333 405 0 c 0
 405 -46 382 -80.6667 336 -104 c 0
 299.333 -123.333 253.333 -133 198 -133 c 0
EndSplineSet
Validated: 33
EndChar

StartChar: uniE240
Encoding: 57920 57920 40
Width: 277
VWidth: 2048
Flags: HW
LayerCount: 2
Fore
SplineSet
179 -646 m 4
 194 -617 207.544921875 -590.924804688 225 -544 c 4
 243.321289062 -494.745117188 255 -435.702338819 255 -406 c 4
 255 -301 175 -233 87 -206 c 4
 69 -201 40 -197 0 -190 c 5
 0 0 l 5
 22 0 l 6
 30 0 55 -61 93 -95 c 4
 97 -98 91 -92 154 -151 c 4
 216 -209 276 -288 276 -392 c 4
 276 -429.524498136 263.319335938 -498.071289062 241 -555 c 4
 221.088867188 -605.786132812 198 -654 175 -687 c 5
 169 -692 165 -694 162 -694 c 4
 159 -694 157 -692 157 -689 c 5
 161 -679 l 134
 162.172413793 -676.068965517 174.764380825 -654.188863739 179 -646 c 4
EndSplineSet
Validated: 1
EndChar

StartChar: uniE241
Encoding: 57921 57921 41
Width: 277
VWidth: 2048
Flags: HW
LayerCount: 2
Fore
SplineSet
179 646 m 4
 194 617 207.544921875 590.924804688 225 544 c 4
 243.321289062 494.745117188 255 435.702148438 255 406 c 4
 255 301 175 233 87 206 c 4
 69 201 40 197 0 190 c 5
 0 0 l 5
 22 0 l 6
 30 0 55 61 93 95 c 4
 97 98 91 92 154 151 c 4
 216 209 276 288 276 392 c 4
 276 429.524414062 263.319335938 498.071289062 241 555 c 4
 221.088867188 605.786132812 198 654 175 687 c 5
 169 692 165 694 162 694 c 4
 159 694 157 692 157 689 c 5
 161 679 l 134
 162.172851562 676.069335938 174.764648438 654.188476562 179 646 c 4
EndSplineSet
Validated: 9
EndChar

StartChar: uniE08B
Encoding: 57483 57483 42
Width: 2048
VWidth: 2048
Flags: HW
LayerCount: 2
Fore
SplineSet
188 200 m 5
 146 178 125 131 125 59 c 6
 125 -60 l 6
 125 -99 132 -130 144 -154 c 4
 156 -178 170 -194 188 -202 c 5
 188 200 l 5
0 -0 m 4
 0 127 80 220 186 246 c 5
 186 318 l 5
 218 318 l 5
 212 246 l 5
 245 246 283 246 313 235 c 132
 367 215 415 170 415 100 c 4
 415 84 411 70 402 57 c 4
 393 44 382 33 370 28 c 6
 350 20 l 5
 327 17 l 5
 305 19 286 25 272 38 c 4
 258 51 251 69 246 89 c 5
 246 127 291 169 325 169 c 4
 337 169 344 172 344 179 c 4
 344 185 338 191 329 197 c 4
 310 210 282 221 250 221 c 4
 240 221 230 220 218 216 c 5
 218 -215 l 5
 233 -218 230 -219 248 -219 c 4
 305 -219 348 -168 369 -126 c 5
 386 -87 l 5
 389 -74 391 -62 391 -52 c 5
 417 -52 l 5
 411 -122 389 -173 351 -204 c 132
 313 -235 269 -251 218 -251 c 5
 218 -319 l 5
 188 -319 l 5
 188 -247 l 5
 131 -237 66 -193 35 -138 c 132
 28 -126 22 -112 16 -96 c 4
 5 -67 0 -35 0 -0 c 4
EndSplineSet
Validated: 1
EndChar

StartChar: uniE08A
Encoding: 57482 57482 43
Width: 422
VWidth: 2048
Flags: HW
LayerCount: 2
Fore
SplineSet
340 179 m 5
 331 203 284 220 251 220 c 4
 205 220 170 192 151 162 c 4
 134 134 126 84 126 12 c 4
 126 -53 128 -99 134 -123 c 4
 142 -154 152 -172 174 -190 c 4
 194 -207 217 -215 244 -215 c 4
 298 -215 336 -179 359 -140 c 132
 373 -115 382 -86 387 -52 c 5
 414 -52 l 5
 414 -115 390 -157 356 -193 c 4
 321 -231 274 -249 216 -249 c 4
 171 -249 133 -236 101 -210 c 4
 44 -165 0 -80 0 16 c 4
 0 75 33 143 68 179 c 132
 104 216 165 251 228 251 c 4
 264 251 321 230 349 211 c 132
 360 203 372 194 382 181 c 4
 401 158 409 133 409 105 c 4
 409 54 374 17 323 17 c 4
 280 17 247 44 247 85 c 4
 247 111 254 120 268 136 c 4
 283 153 300 163 326 168 c 4
 333 170 340 175 340 179 c 5
EndSplineSet
Validated: 1
EndChar

StartChar: uniE4E5
Encoding: 58597 58597 44
Width: 304
VWidth: 2048
Flags: HW
LayerCount: 2
Fore
SplineSet
107 292 m 0
 94 316 77 341 55 363 c 128
 54 364 55 365 55 366 c 2
 53 368 l 1
 56 371 57 372 59 372 c 0
 71 372 85 365 99 352 c 128
 113 339 143 312 188 271 c 0
 214 247 216 242 234 224 c 128
 238 220 242 215 244 210 c 1
 250 202 252 194 252 183 c 0
 252 164 240 143 216 122 c 0
 188 99 167 84 155 49 c 128
 151 38 148 22 145 -1 c 1
 158 -44 179 -84 204 -122 c 0
 235 -169 263 -201 305 -251 c 1
 297 -251 279 -244 251 -231 c 2
 189 -202 l 1
 168 -196 l 1
 145 -195 l 1
 120 -195 100 -205 85 -225 c 1
 81 -239 l 1
 80 -251 l 1
 80 -284 100 -307 119 -329 c 128
 127 -338 136 -347 145 -355 c 0
 162 -370 172 -379 173 -385 c 1
 170 -388 l 1
 159 -383 151 -378 145 -373 c 1
 136 -370 108 -352 100 -347 c 0
 76 -333 55 -315 37 -296 c 0
 18 -275 0 -252 -0 -225 c 0
 0 -162 27 -130 80 -130 c 0
 121 -130 166 -148 216 -182 c 1
 197 -156 179 -134 161 -116 c 0
 138 -93 113 -72 88 -51 c 0
 60 -28 41 -11 30 2 c 128
 19 15 13 28 12 41 c 1
 87 105 125 166 125 224 c 0
 125 251 118 272 107 292 c 0
EndSplineSet
Validated: 1
EndChar

StartChar: uniE4E6
Encoding: 58598 58598 45
Width: 277
VWidth: 2048
Flags: HW
LayerCount: 2
Fore
SplineSet
0 123 m 5
 7 157 33 179 69 183 c 5
 98 180 112 174 122 154 c 132
 126 146 129 139 132 132 c 5
 132 111 131 107 121 97 c 5
 116 89 103 83 81 77 c 5
 93 74 l 5
 108 73 l 5
 152 73 205 99 230 129 c 132
 240 140 248 155 254 171 c 5
 261 172 269 173 276 174 c 5
 136 -250 l 5
 100 -250 l 5
 211 80 l 5
 201 74 184 68 158 64 c 6
 106 56 l 5
 96 56 l 5
 76 57 l 6
 75 57 68 60 55 63 c 4
 18 72 0 91 0 123 c 5
EndSplineSet
Validated: 1
EndChar

StartChar: uniE4E7
Encoding: 58599 58599 46
Width: 324
VWidth: 2048
Flags: HW
LayerCount: 2
Fore
SplineSet
133 -111 m 5
 117 -73 112 -68 69 -60 c 5
 32 -64 9 -85 1 -120 c 5
 1 -152 19 -172 56 -178 c 5
 64 -184 78 -188 99 -188 c 4
 130 -188 161 -181 181 -168 c 5
 73 -492 l 5
 110 -492 l 5
 182 -272 253 -53 325 167 c 5
 321 167 l 5
 311 165 l 5
 304 164 l 5
 289 129 277 112 245 93 c 132
 219 78 189 66 157 64 c 4
 146 64 137 66 131 70 c 5
 160 73 187 95 182 126 c 5
 167 161 163 168 118 174 c 5
 80 170 58 151 50 116 c 5
 50 84 68 64 105 57 c 5
 112 52 127 49 150 49 c 4
 198 49 226 56 262 74 c 5
 196 -123 l 5
 175 -146 146 -170 106 -170 c 4
 99 -170 91 -169 81 -166 c 5
 112 -161 133 -144 133 -111 c 5
EndSplineSet
Validated: 41
EndChar

StartChar: uniE4E8
Encoding: 58600 58600 47
Width: 404
VWidth: 2048
Flags: HW
LayerCount: 2
Fore
SplineSet
145 179 m 0
 108 179 85 155 77 121 c 1
 77 89 95 69 131 60 c 1
 143 54 159 51 177 51 c 0
 210 51 236 60 258 72 c 1
 197 -115 l 2
 194 -121 185 -129 167 -141 c 0
 145 -156 124 -163 106 -163 c 0
 96 -163 87 -162 81 -159 c 1
 105 -153 121 -144 128 -133 c 0
 131 -128 132 -118 132 -104 c 1
 125 -84 117 -70 107 -64 c 0
 102 -61 89 -58 69 -54 c 1
 32 -58 9 -77 1 -112 c 1
 1 -150 21 -165 56 -173 c 1
 68 -179 86 -182 108 -182 c 0
 138 -182 162 -176 179 -165 c 1
 197 -115 l 1
 74 -485 l 1
 111 -485 l 1
 399 404 l 1
 395 405 l 1
 377 403 l 1
 365 354 323 326 276 311 c 128
 260 306 245 303 231 303 c 0
 220 303 212 305 207 309 c 1
 241 317 258 327 258 364 c 1
 250 392 230 413 197 413 c 0
 158 413 134 387 125 354 c 1
 125 321 144 302 181 295 c 1
 187 292 194 290 204 289 c 130
 232 287 l 1
 247 287 l 130
 253 287 264 291 282 295 c 0
 304 300 325 301 337 312 c 1
 271 114 l 1
 254 94 218 69 183 69 c 0
 175 69 167 71 159 74 c 1
 182 80 194 87 198 92 c 0
 204 101 208 111 208 122 c 0
 208 155 179 179 145 179 c 0
EndSplineSet
Validated: 5
EndChar

StartChar: uniE4E9
Encoding: 58601 58601 48
Width: 480
VWidth: 2048
Flags: HW
LayerCount: 2
Fore
SplineSet
188 -486 m 1
 249 -302 l 1
 188 -486 l 1
270 413 m 0
 237 413 204 388 204 355 c 0
 204 323 222 303 258 295 c 1
 269 288 285 287 303 287 c 0
 334 287 396 301 415 311 c 1
 353 120 l 1
 329 95 303 70 262 70 c 0
 254 70 247 71 239 73 c 1
 272 84 287 91 287 128 c 1
 274 166 268 173 223 178 c 1
 187 174 164 155 154 120 c 1
 154 86 173 66 210 59 c 1
 219 55 233 52 251 52 c 0
 279 52 307 58 335 70 c 1
 274 -117 l 1
 250 -141 224 -161 185 -163 c 0
 176 -163 168 -163 160 -160 c 1
 183 -152 199 -144 205 -135 c 0
 209 -130 210 -120 210 -105 c 1
 198 -68 188 -62 147 -54 c 1
 108 -59 79 -79 79 -114 c 0
 79 -145 98 -163 132 -172 c 0
 147 -176 160 -181 181 -181 c 0
 216 -181 233 -176 259 -162 c 1
 196 -351 l 1
 166 -382 136 -397 106 -397 c 0
 99 -397 91 -395 83 -392 c 1
 118 -381 134 -375 134 -336 c 1
 121 -300 111 -295 70 -287 c 1
 31 -291 2 -311 2 -348 c 0
 2 -382 27 -400 57 -406 c 1
 66 -411 80 -413 100 -413 c 0
 137 -413 157 -408 184 -394 c 1
 146 -500 112 -610 76 -718 c 1
 110 -718 l 1
 157 -579 203 -441 249 -302 c 0
 326 -66 402 171 480 406 c 1
 473 407 l 1
 466 403 l 1
 460 403 l 1
 446 371 425 346 397 330 c 128
 369 314 340 305 312 304 c 1
 298 305 l 1
 296 306 294 307 292 307 c 128
 290 307 288 308 285 309 c 1
 322 317 334 327 335 366 c 1
 326 398 310 413 270 413 c 0
EndSplineSet
Validated: 5
EndChar

StartChar: uniE4EA
Encoding: 58602 58602 49
Width: 578
VWidth: 2048
Flags: HW
LayerCount: 2
Fore
SplineSet
379 567 m 5
 408 572 431 589 431 621 c 4
 431 657 400 674 365 677 c 5
 326 671 302 650 294 614 c 5
 294 582 313 562 350 553 c 5
 364 546 372 546 394 546 c 4
 431 546 487 559 513 570 c 5
 448 372 l 5
 424 345 397 320 356 320 c 4
 347 320 338 321 327 325 c 5
 365 333 381 342 381 382 c 5
 368 418 355 427 315 435 c 5
 276 428 252 407 244 373 c 5
 244 341 263 320 301 311 c 5
 319 304 l 6
 324 303 336 303 352 303 c 4
 391 303 409 307 431 323 c 5
 367 129 l 5
 350 107 310 80 273 79 c 4
 265 79 256 81 248 84 c 5
 284 91 301 104 301 142 c 5
 288 180 279 185 236 193 c 5
 194 188 176 168 165 132 c 5
 165 100 184 79 222 70 c 5
 231 66 258 63 271 62 c 4
 308 62 327 67 350 83 c 5
 288 -114 l 5
 261 -140 235 -160 195 -162 c 4
 186 -162 176 -158 169 -156 c 5
 204 -147 222 -138 222 -99 c 5
 207 -61 202 -52 156 -47 c 5
 118 -52 96 -75 88 -110 c 5
 88 -142 106 -162 142 -170 c 5
 155 -177 171 -179 194 -179 c 4
 226 -179 251 -171 272 -157 c 5
 207 -353 l 5
 183 -379 156 -399 116 -401 c 4
 106 -401 98 -401 91 -398 c 5
 127 -386 142 -380 144 -341 c 5
 134 -303 118 -294 77 -288 c 5
 38 -294 15 -315 7 -350 c 5
 7 -383 26 -404 65 -412 c 5
 82 -418 l 6
 84 -419 90 -418 100 -418 c 4
 134 -418 171 -412 193 -399 c 5
 156 -510 120 -622 84 -734 c 5
 119 -734 l 5
 245 -350 372 34 497 419 c 5
 579 666 l 5
 573 666 l 5
 564 664 l 5
 556 664 l 5
 547 630 523 606 495 590 c 4
 463 572 434 562 406 562 c 4
 394 562 392 564 379 567 c 5
EndSplineSet
Validated: 9
EndChar

StartChar: uniE880
Encoding: 59520 59520 50
Width: 243
VWidth: 2048
Flags: HW
LayerCount: 2
Fore
SplineSet
166 326 m 4
 213 326 243 283 243 236 c 4
 243 124 175 0 79 0 c 4
 29 0 0 43 0 93 c 4
 0 145 14 195 43 242 c 4
 71 288 104 326 166 326 c 4
191 268 m 4
 191 289 181 302 166 307 c 5
 133 307 105 271 81 200 c 4
 62 143 52 96 52 57 c 5
 54 43 l 5
 57 38 57 35 61 31 c 4
 66 24 72 19 81 19 c 4
 111 19 143 53 163 126 c 6
 184 204 l 5
 189 225 191 247 191 268 c 4
EndSplineSet
Validated: 1
EndChar

StartChar: uniE881
Encoding: 59521 59521 51
Width: 207
VWidth: 2048
Flags: HW
LayerCount: 2
Fore
SplineSet
207 311 m 5
 122 36 l 5
 118 30 129 25 135 23 c 5
 153 21 l 5
 164 21 l 5
 158 0 l 5
 0 0 l 5
 6 21 l 5
 21 21 l 6
 28 21 35 23 42 26 c 5
 51 27 58 34 62 46 c 6
 117 222 l 5
 46 166 l 5
 36 176 l 5
 145 311 l 5
 207 311 l 5
EndSplineSet
Validated: 1
EndChar

StartChar: uniE882
Encoding: 59522 59522 52
Width: 260
VWidth: 2048
Flags: HW
LayerCount: 2
Fore
SplineSet
166 311 m 4
 226 311 260 290 260 231 c 4
 260 204 248 180 220 167 c 6
 150 135 l 5
 113 125 81 105 54 75 c 5
 75 75 l 5
 101 73 l 5
 113 67 l 5
 127 61 141 56 155 50 c 4
 161 47 168 46 176 46 c 5
 191 50 l 5
 202 58 l 5
 207 63 213 71 221 84 c 5
 238 75 l 5
 222 47 l 6
 220 43 206 19 202 16 c 5
 183 -5 164 -15 145 -15 c 6
 135 -15 l 5
 122 -9 110 -3 99 5 c 6
 84 16 l 5
 72 23 61 26 52 26 c 5
 42 23 33 18 28 9 c 6
 23 0 l 5
 0 0 l 5
 0 27 6 51 20 72 c 4
 27 82 34 88 39 93 c 6
 67 118 l 5
 87 129 107 140 126 151 c 5
 145 160 l 6
 161 167 174 178 184 190 c 4
 196 205 203 220 203 235 c 5
 204 247 l 5
 204 260 200 271 192 278 c 5
 186 287 177 292 164 292 c 4
 135 292 118 277 112 248 c 5
 115 236 l 5
 117 220 l 5
 117 200 109 191 92 191 c 4
 78 191 66 204 66 219 c 4
 66 267 118 311 166 311 c 4
EndSplineSet
Validated: 1
EndChar

StartChar: uniE883
Encoding: 59523 59523 53
Width: 255
VWidth: 2048
Flags: HW
LayerCount: 2
Fore
SplineSet
161 326 m 4
 213 326 255 309 255 258 c 4
 255 208 215 182 173 164 c 5
 199 143 212 122 212 100 c 4
 212 48 156 0 94 0 c 6
 82 0 l 6
 42 0 0 23 0 56 c 4
 0 86 12 105 37 105 c 4
 54 105 68 89 71 74 c 5
 71 69 67 62 60 53 c 5
 53 48 47 43 47 32 c 5
 58 23 l 5
 75 19 l 5
 96 19 115 31 131 56 c 4
 144 77 150 101 150 126 c 5
 141 156 122 161 84 161 c 5
 90 184 l 5
 124 184 150 188 167 197 c 4
 187 208 197 232 197 267 c 4
 197 295 185 305 158 307 c 5
 138 304 l 5
 130 301 126 295 126 288 c 5
 128 281 130 277 131 274 c 6
 135 263 l 5
 138 253 l 5
 135 241 l 5
 130 235 124 230 115 228 c 4
 97 224 79 238 79 255 c 4
 79 294 122 326 161 326 c 4
EndSplineSet
Validated: 33
EndChar

StartChar: uniE884
Encoding: 59524 59524 54
Width: 259
VWidth: 2048
Flags: HW
LayerCount: 2
Fore
SplineSet
259 110 m 5
 253 89 l 5
 194 89 l 5
 178 37 l 6
 175 31 178 26 187 23 c 5
 221 21 l 5
 215 0 l 5
 60 0 l 5
 66 21 l 5
 84 22 l 5
 99 26 l 6
 108 29 115 37 119 49 c 6
 132 89 l 5
 0 89 l 5
 5 110 l 5
 17 120 31 132 44 149 c 6
 77 192 l 6
 90 210 104 233 117 260 c 4
 124 277 131 294 138 311 c 5
 235 311 l 5
 199 262 l 6
 186 246 166 228 150 213 c 4
 114 178 74 146 35 113 c 5
 143 110 l 5
 163 182 l 5
 243 259 l 5
 248 259 l 5
 204 110 l 5
 259 110 l 5
EndSplineSet
Validated: 1
EndChar

StartChar: uniE885
Encoding: 59525 59525 55
Width: 240
VWidth: 2048
Flags: HW
LayerCount: 2
Fore
SplineSet
84 0 m 4
 35 0 0 18 0 66 c 5
 1 80 l 5
 3 85 5 89 8 94 c 5
 15 101 24 105 35 108 c 5
 42 108 48 105 54 99 c 5
 58 90 l 5
 60 79 l 5
 56 66 l 5
 53 61 53 60 48 55 c 5
 41 39 l 5
 41 31 44 26 51 23 c 6
 64 19 l 5
 79 19 l 6
 101 19 121 34 138 64 c 4
 153 91 161 116 161 139 c 5
 158 152 l 6
 156 160 145 169 137 172 c 6
 122 176 l 5
 105 175 l 5
 89 172 l 5
 72 162 l 5
 49 144 l 5
 28 144 l 5
 90 326 l 5
 99 323 115 320 125 317 c 5
 158 314 l 5
 168 314 l 5
 191 317 l 5
 240 326 l 5
 221 299 187 268 151 268 c 6
 141 268 l 5
 119 270 l 5
 110 273 102 277 93 281 c 5
 57 173 l 5
 75 185 l 5
 95 194 l 5
 117 199 l 5
 143 202 l 6
 152 202 162 201 173 197 c 4
 187 192 187 191 197 180 c 4
 211 165 219 147 219 122 c 4
 219 90 206 60 178 35 c 4
 150 11 118 0 84 0 c 4
EndSplineSet
Validated: 1
EndChar

StartChar: uniE886
Encoding: 59526 59526 56
Width: 214
VWidth: 2048
Flags: HW
LayerCount: 2
Fore
SplineSet
154 326 m 4
 189 326 211 310 214 277 c 4
 214 270 213 264 212 261 c 6
 204 247 l 6
 200 240 191 235 176 232 c 5
 163 233 l 5
 151 240 l 5
 147 244 144 251 145 260 c 6
 146 271 l 5
 154 281 l 5
 171 297 l 5
 169 304 162 307 151 307 c 4
 121 307 98 282 82 233 c 5
 73 202 l 5
 67 166 l 5
 92 187 109 200 150 200 c 4
 178 200 206 171 206 139 c 4
 206 74 161 0 88 0 c 4
 19 0 0 38 0 108 c 6
 0 126 l 134
 0 132 1 139 3 146 c 5
 3 167 5 166 12 185 c 4
 29 235 57 280 95 305 c 4
 115 318 134 326 154 326 c 4
58 58 m 4
 58 34 63 19 85 19 c 4
 103 19 120 34 133 66 c 4
 143 91 149 108 149 138 c 5
 146 148 l 5
 140 160 l 5
 134 167 126 172 114 172 c 4
 103 172 90 161 77 139 c 5
 63 99 l 5
 60 84 58 71 58 58 c 4
EndSplineSet
Validated: 1
EndChar

StartChar: uniE887
Encoding: 59527 59527 57
Width: 243
VWidth: 2048
Flags: HW
LayerCount: 2
Fore
SplineSet
243 311 m 5
 240 286 233 264 225 244 c 4
 216 221 197 186 168 139 c 5
 151 104 l 5
 138 69 l 5
 133 50 128 24 128 0 c 5
 28 0 l 5
 30 15 38 33 52 54 c 4
 71 84 109 130 138 159 c 4
 168 190 191 221 208 263 c 5
 206 265 l 5
 190 249 175 239 163 233 c 4
 156 230 151 228 140 228 c 6
 132 228 l 5
 105 244 l 6
 96 249 86 252 75 252 c 4
 70 252 63 251 58 246 c 6
 42 232 l 5
 35 221 28 207 21 190 c 5
 0 190 l 5
 38 311 l 5
 58 311 l 5
 53 302 50 295 50 290 c 4
 50 286 51 283 52 282 c 6
 61 276 l 5
 85 296 l 6
 95 304 109 311 125 311 c 4
 136 311 154 299 158 290 c 5
 169 281 180 275 191 276 c 6
 204 277 l 5
 213 284 l 6
 217 288 221 303 224 311 c 5
 243 311 l 5
EndSplineSet
Validated: 33
EndChar

StartChar: uniE888
Encoding: 59528 59528 58
Width: 274
VWidth: 2048
Flags: HW
LayerCount: 2
Fore
SplineSet
61 247 m 5
 61 298 118 326 169 326 c 4
 202 326 221 314 241 299 c 4
 252 290 260 279 265 268 c 4
 270 256 274 244 274 231 c 4
 274 220 270 210 261 199 c 132
 252 188 234 176 205 162 c 5
 219 142 l 5
 229 126 l 6
 233 118 235 112 236 108 c 6
 239 89 l 5
 239 27 181 0 115 0 c 4
 57 0 0 33 0 87 c 4
 0 135 48 159 89 175 c 5
 79 189 74 193 68 210 c 6
 62 228 l 5
 61 247 l 5
192 174 m 5
 219 190 232 213 236 247 c 4
 236 254 234 260 232 266 c 4
 229 273 225 279 220 285 c 4
 208 299 194 307 176 307 c 4
 149 307 126 294 126 270 c 4
 126 249 137 226 160 204 c 6
 192 174 l 5
175 62 m 5
 175 79 166 88 156 104 c 4
 155 105 153 108 149 112 c 132
 133 128 117 145 101 162 c 5
 76 145 l 5
 58 129 l 5
 46 108 l 5
 43 101 42 91 42 80 c 4
 42 63 50 48 65 35 c 5
 89 23 l 6
 96 20 105 19 115 19 c 4
 136 19 150 24 161 31 c 4
 170 37 176 45 176 56 c 5
 175 62 l 5
EndSplineSet
Validated: 1
EndChar

StartChar: uniE889
Encoding: 59529 59529 59
Width: 225
VWidth: 2048
Flags: HW
LayerCount: 2
Fore
SplineSet
131 326 m 4
 192 326 225 281 225 215 c 4
 225 190 221 168 214 146 c 4
 207 124 196 102 182 80 c 4
 150 32 112 -1 62 -1 c 4
 30 -1 2 24 0 59 c 5
 0 67 l 5
 4 80 13 89 27 89 c 4
 34 89 40 86 45 81 c 5
 48 80 51 73 53 62 c 5
 50 47 39 19 61 19 c 4
 81 19 101 37 122 73 c 5
 136 108 l 5
 141 117 148 142 151 152 c 5
 127 139 l 5
 114 131 l 5
 101 126 93 123 77 123 c 4
 34 123 8 152 8 195 c 4
 8 228 19 258 40 285 c 132
 61 312 92 326 131 326 c 4
167 264 m 4
 167 286 158 302 140 307 c 5
 119 307 102 295 88 271 c 132
 74 247 67 223 66 200 c 4
 66 171 72 157 97 152 c 4
 123 147 151 190 161 224 c 132
 164 236 166 249 167 264 c 4
EndSplineSet
Validated: 33
EndChar

StartChar: uniE566
Encoding: 58726 58726 60
Width: 240
VWidth: 2048
Flags: HW
LayerCount: 2
Fore
SplineSet
18 208 m 4
 18 181 35 161 63 161 c 5
 66 159 l 5
 79 163 l 5
 102 172 l 5
 116 227 l 5
 99 242 81 249 61 249 c 4
 35 249 18 232 18 208 c 4
432 225 m 4
 432 204 421 189 401 188 c 4
 386 188 381 198 378 213 c 5
 381 227 l 5
 383 238 l 5
 384 247 l 5
 380 251 l 5
 379 250 378 250 377 250 c 4
 354 237 341 226 330 202 c 6
 318 175 l 5
 300 125 287 70 271 18 c 5
 211 18 l 5
 269 232 l 5
 269 239 266 237 264 241 c 5
 257 241 239 233 213 213 c 6
 170 180 l 5
 175 186 l 5
 196 151 207 118 207 88 c 4
 207 76 206 67 203 60 c 134
 197 45 l 134
 196 42 192 35 185 26 c 4
 171 8 155 0 136 0 c 4
 106 0 69 18 69 52 c 4
 70 53 70 58 72 67 c 6
 92 151 l 5
 83 146 71 143 56 143 c 4
 35 143 27 150 16 162 c 4
 6 174 0 189 0 209 c 4
 0 232 6 242 17 254 c 4
 28 266 42 272 63 272 c 4
 82 272 102 264 123 247 c 5
 157 364 l 5
 220 364 l 5
 174 206 l 5
 212 237 l 5
 244 257 l 5
 265 267 279 270 306 272 c 4
 322 272 330 265 330 251 c 5
 329 241 l 5
 327 233 325 225 323 217 c 5
 344 254 367 272 393 272 c 4
 416 272 432 249 432 225 c 4
162 167 m 5
 126 52 l 5
 125 42 l 6
 125 32 130 26 141 23 c 5
 173 41 189 66 189 98 c 4
 189 118 180 141 162 167 c 5
EndSplineSet
Validated: 5
EndChar

StartChar: uniE56C
Encoding: 58732 58732 61
Width: 605
VWidth: 2048
Flags: HW
LayerCount: 2
Fore
SplineSet
0 21 m 5
 0 80 l 5
 129 230 l 5
 146 240 l 5
 153 240 157 238 158 234 c 5
 264 141 l 5
 281 131 l 5
 293 137 l 5
 373 230 l 5
 391 240 l 5
 396 240 400 238 403 234 c 5
 508 141 l 5
 517 134 l 5
 525 129 l 5
 530 130 534 133 537 137 c 6
 605 217 l 5
 605 158 l 5
 477 8 l 5
 468 1 461 -2 457 -2 c 4
 454 -2 450 0 447 4 c 5
 342 98 l 6
 336 103 329 105 322 105 c 4
 318 105 315 104 313 102 c 6
 232 8 l 5
 225 1 218 -2 213 -2 c 4
 210 -2 206 0 203 4 c 5
 98 98 l 6
 92 104 85 107 78 107 c 4
 75 107 71 105 68 102 c 6
 0 21 l 5
EndSplineSet
Validated: 1
EndChar

StartChar: uniE56D
Encoding: 58733 58733 62
Width: 587
VWidth: 2048
Flags: HW
LayerCount: 2
Fore
SplineSet
0 21 m 1
 0 80 l 1
 121 223 l 2
 125 227 129 230 132 232 c 128
 135 234 139 235 143 236 c 1
 148 236 156 230 168 219 c 2
 275 125 l 1
 275 309 l 1
 305 309 l 1
 305 150 l 1
 363 219 l 2
 374 232 382 239 386 239 c 1
 410 223 l 1
 494 148 l 1
 525 123 l 1
 528 124 532 128 538 135 c 2
 552 150 l 1
 586 194 l 1
 586 139 l 1
 480 14 l 1
 472 3 464 -2 457 -2 c 1
 454 -1 452 1 450 2 c 0
 444 6 438 11 432 16 c 2
 354 86 l 1
 340 100 329 107 320 107 c 1
 315 105 l 1
 310 100 l 1
 305 94 l 1
 305 -90 l 1
 275 -90 l 1
 275 59 l 1
 239 14 l 1
 229 3 221 -2 215 -2 c 1
 208 0 l 1
 198 8 l 1
 188 16 l 1
 100 96 l 2
 93 103 86 107 80 109 c 1
 77 109 71 105 63 96 c 2
 0 21 l 1
EndSplineSet
Validated: 1
EndChar

StartChar: uniE004
Encoding: 57348 57348 63
Width: 399
VWidth: 0
Flags: HW
LayerCount: 2
Fore
SplineSet
0 0 m 5
 49 0 97.5 2.26367 135.5 -4.73633 c 5
 341.5 -99.7363 394 -269 399 -276 c 5
 399 -277 385 -283 384 -282 c 5
 296 -128 133 -115 63 -112 c 5
 62 -112 0 -111 0 -111 c 5
 0 -74 0 -37 0 0 c 5
EndSplineSet
Validated: 33
EndChar

StartChar: uniE003
Encoding: 57347 57347 64
Width: 399
VWidth: 0
Flags: HW
LayerCount: 2
Fore
SplineSet
0 -0 m 5
 49 -0 97.5 -2.26367 135.5 4.73633 c 5
 341.5 99.7363 394 269 399 276 c 5
 399 277 385 283 384 282 c 5
 296 128 133 115 63 112 c 5
 62 112 0 111 0 111 c 5
 -0 74 0 37 0 -0 c 5
EndSplineSet
Validated: 41
EndChar

StartChar: uniE88A
Encoding: 59530 59530 65
Width: 144
VWidth: 2048
Flags: HMW
LayerCount: 2
Fore
SplineSet
17 87 m 0
 17 98 20 106 27 113 c 0
 34 120 43 123 54 123 c 0
 65 123 73 120 80 113 c 0
 87 106 91 97 91 87 c 0
 91 77 87 68 80 60 c 1
 73 53 63 50 53 50 c 0
 43 50 34 53 27 60 c 0
 20 67 17 76 17 87 c 0
53 207 m 4
 53 218 57 227 64 234 c 0
 71 241 81 244 91 244 c 0
 101 244 110 240 117 233 c 0
 124 226 127 217 127 207 c 0
 127 197 123 188 116 181 c 0
 109 174 100 171 90 171 c 0
 80 171 71 174 64 181 c 0
 57 188 53 196 53 207 c 4
EndSplineSet
Validated: 1
EndChar

StartChar: uniE522
Encoding: 58658 58658 66
Width: 232
VWidth: 2048
Flags: HW
LayerCount: 2
Fore
SplineSet
-91 -179 m 5
 -93 -181.667 -93.667 -184 -93 -186 c 132
 -92.333 -188 -88.667 -189.333 -82 -190 c 5
 -63.333 -190 -47.667 -176.333 -35 -149 c 4
 -28.333 -135 -21.667 -119 -15 -101 c 132
 -8.33301 -83 -3.33301 -65.667 0 -49 c 6
 14 12 l 5
 58 220 l 5
 0 220 l 5
 0 258 l 5
 70 258 l 5
 77.333 278.667 83.333 294.333 88 305 c 4
 95.333 323 102.667 337.667 110 349 c 4
 130.666 379 152.333 402 175 418 c 132
 197.667 434 222.667 442 250 442 c 4
 259.333 442 267 441 273 439 c 132
 279 437 285.333 431.667 292 423 c 4
 296.667 416.333 299.667 410 301 404 c 6
 305 388 l 5
 305 373.333 304.333 362.666 303 356 c 132
 301.667 349.333 298 340 292 328 c 4
 289.333 322 283.333 315 274 307 c 4
 270 303.667 265.667 301.667 261 301 c 132
 256.333 300.333 250.667 300.333 244 301 c 5
 238 302.333 233.667 306 231 312 c 132
 228.333 318 226.333 324.667 225 332 c 5
 225 344 227.333 354.667 232 364 c 132
 236.667 373.333 244 381.333 254 388 c 4
 261 393 261 393 268 398 c 5
 268 406.667 262 412 250 414 c 5
 236.667 415.33 225.333 412.663 216 406 c 132
 206.667 399.333 197 385 187 363 c 5
 182.333 351 176.667 333.333 170 310 c 132
 163.333 286.667 158.667 270 156 260 c 5
 233 260 l 5
 233 220 l 5
 148 220 l 5
 136 151.333 119 82.667 97 14 c 4
 79 -41.333 61.667 -85 45 -117 c 4
 31.667 -143 18 -164 4 -180 c 4
 -20.667 -208.667 -46 -223 -72 -223 c 4
 -96.666 -223 -115.333 -213.333 -128 -194 c 4
 -138 -178.667 -143 -160.667 -143 -140 c 4
 -143 -123.333 -139 -107.333 -131 -92 c 5
 -126.333 -84.667 -120.667 -79 -114 -75 c 132
 -107.333 -71 -100.667 -69 -94 -69 c 4
 -85.333 -69 -78.333 -73 -73 -81 c 132
 -67.667 -89 -64 -96.333 -62 -103 c 132
 -60 -109.667 -59 -115.333 -59 -120 c 4
 -59 -129.333 -61.333 -137.333 -66 -144 c 132
 -70.6641 -150.667 -75.3301 -157.667 -80 -165 c 132
 -84.6641 -172.333 -88.3301 -177 -91 -179 c 5
EndSplineSet
Validated: 33
EndChar

StartChar: uniE521
Encoding: 58657 58657 67
Width: 405
VWidth: 2048
Flags: HW
LayerCount: 2
Fore
SplineSet
337 262 m 4
 358 262 380 248 380 227 c 6
 380 220 l 5
 317 37 l 5
 317 24 321 17 329 16 c 5
 337 16 346 21 355 31 c 132
 364 41 370 47 371 48 c 4
 375 55 389.633 79.6631 391 83 c 6
 405 124 l 5
 428 124 l 5
 404 61 l 6
 395.696 39.2031 373 16 360 3 c 132
 347 -10 331 -17 314 -18 c 4
 296 -18 280 -13 265 -4 c 5
 249 11 l 5
 246 18 244 23 244 28 c 5
 264 91 288 152 309 214 c 5
 309 221 304 226 294 227 c 5
 278 227 263 212 250 182 c 5
 186 0 l 5
 115 0 l 5
 192 214 l 5
 192 223 186 227 175 227 c 4
 166 227 158 223 153 216 c 132
 148 209 141 197 133 182 c 5
 69 0 l 5
 0 0 l 5
 77 210 l 5
 77 214 l 6
 77 224 72 226 65 230 c 5
 40 230 13 183 -1 157 c 4
 -6 148 -13 134 -22 115 c 5
 -44 115 l 5
 -25 154 -4 191 20 222 c 4
 41 249 67 262 99 262 c 4
 120 262 130 243 133 221 c 5
 152 238 167 248 178 253 c 5
 189 259 202 262 217 262 c 4
 238 262 249 243 252 221 c 5
 274 238 301 262 337 262 c 4
EndSplineSet
Validated: 1
EndChar

StartChar: uniE520
Encoding: 58656 58656 68
Width: 306
VWidth: 2048
Flags: HW
LayerCount: 2
Fore
SplineSet
23 124 m 5
 0 124 l 5
 22 166.667 42.667 200.333 62 225 c 132
 81.333 249.667 106.667 262.333 138 263 c 4
 144 263 150 258.667 156 250 c 5
 162.667 243.333 166 234.333 166 223 c 5
 190 237 l 5
 215 250 l 5
 227 254.667 239.333 257 252 257 c 4
 276 257 295.333 247.667 310 229 c 132
 324.667 210.333 332.333 184.667 333 152 c 4
 333 138 332 125.333 330 114 c 132
 328 102.667 324.667 93 320 85 c 132
 315.333 77 309 68 301 58 c 4
 287 40 271.333 26 254 16 c 132
 236.667 6 218.667 1 200 1 c 4
 191.333 1 180.333 4.33301 167 11 c 4
 161.667 14.333 156.667 17.667 152 21 c 132
 147.333 24.333 143 29 139 35 c 5
 83 -123 l 5
 80 -127 l 5
 82.667 -133.667 86.667 -137.333 92 -138 c 5
 124 -138 l 5
 124 -167 l 5
 -49 -167 l 5
 -49 -138 l 5
 -28 -138 l 6
 -24 -138 -19.333 -136.333 -14 -133 c 5
 -10 -129 -7 -124.333 -5 -119 c 6
 114 212 l 5
 114 218 l 5
 111 228 l 5
 105 231 l 5
 96.333 231 88 227 80 219 c 132
 72 211 64.333 200.667 57 188 c 5
 46 171 l 5
 36 151 l 5
 23 124 l 5
197 201 m 4
 185 180.333 175.333 156.333 168 129 c 5
 161.333 99 158 78.333 158 67 c 4
 158 43 165.333 31 180 31 c 4
 192.667 31 203 33.333 211 38 c 132
 219 42.667 226 49.333 232 58 c 5
 242 74.667 247.333 84 248 86 c 4
 252.667 97.333 256 112 258 130 c 132
 260 148 261.333 161 262 169 c 4
 262 176.333 261.333 182.333 260 187 c 132
 258.667 191.667 256.667 196.334 254 201 c 4
 248.667 210.333 239.333 215 226 215 c 4
 212 215 202.333 210.333 197 201 c 4
EndSplineSet
Validated: 1
EndChar

StartChar: uniE523
Encoding: 58659 58659 69
Width: 225
VWidth: 2048
Flags: HW
LayerCount: 2
Fore
SplineSet
194 174 m 4
 180 174 171 186 171 203 c 5
 172 214 l 5
 175 226 l 5
 175 231 172 233 167 233 c 4
 154 233 141 223 129 202 c 5
 113 170 l 5
 92 116 78 57 60 0 c 5
 0 0 l 5
 57 194 l 5
 57 199 l 6
 57 210 54 215 49 215 c 4
 34 215 29 206 19 194 c 4
 10 183 2 171 -6 158 c 5
 -20 166 l 5
 -14 181 -4 191 8 204 c 4
 27 223 58 252 91 252 c 4
 106 252 113 243 113 224 c 4
 112 217 112 210 111 203 c 5
 127 227 150 259 185 259 c 4
 206 259 225 240 225 219 c 4
 225 189 215 174 194 174 c 4
EndSplineSet
Validated: 1
EndChar

StartChar: uniE524
Encoding: 58660 58660 70
Width: 194
VWidth: 2048
Flags: HW
LayerCount: 2
Fore
SplineSet
81 33 m 6
 102 33 119 48 121 67 c 4
 121 74 118 82 113 89 c 4
 110 94 104 100 94 107 c 4
 72 120 56 133 47 145 c 132
 38 157 33 171 32 188 c 4
 32 238 72 270 119 270 c 5
 147 267 l 5
 156 264 164 260 171 254 c 5
 186 245 194 230 194 211 c 5
 193 201 l 5
 187 191 l 6
 184 186 179 182 170 181 c 5
 153 181 144 189 141 205 c 5
 145 224 l 5
 145 234 131 240 121 242 c 4
 102 245 89 226 86 206 c 5
 86 199 90 191 97 184 c 5
 106 177 115 170 123 163 c 4
 151 140 166 126 167 123 c 5
 175 113 179 100 179 84 c 6
 179 74 l 6
 179 53 169 35 150 20 c 5
 134 10 112 2 89 0 c 5
 42 0 0 26 0 67 c 5
 1 82 l 5
 6 95 l 5
 16 104 l 5
 29 108 l 5
 45 108 53 98 53 77 c 4
 53 64 48 61 45 49 c 5
 45 41 56 33 68 33 c 134
 81 33 l 6
EndSplineSet
Validated: 33
EndChar

StartChar: uniE525
Encoding: 58661 58661 71
Width: 260
VWidth: 2048
Flags: HW
LayerCount: 2
Fore
SplineSet
173 115 m 4
 194 115 207 92 207 67 c 4
 207 44 199 25 183 9 c 5
 168 -8 144 -16 110 -16 c 4
 98 -16 89 -15 83 -12 c 6
 71 -6 l 5
 54 4 l 5
 39 11 30 14 25 14 c 4
 16 14 6 9 -5 0 c 5
 -36 0 l 5
 -36 16 l 5
 173 193 l 5
 109 192 l 5
 86 189 77 177 65 162 c 5
 41 162 l 5
 71 249 l 5
 260 249 l 5
 260 217 l 5
 49 54 l 5
 62 60 75 63 88 63 c 4
 102 63 141 45 151 43 c 5
 160 44 165 51 165 62 c 5
 152 62 145 70 143 85 c 5
 143 102 156 115 173 115 c 4
EndSplineSet
Validated: 1
EndChar

StartChar: uniE650
Encoding: 58960 58960 72
Width: 695
VWidth: 2048
Flags: HW
LayerCount: 2
Fore
SplineSet
657 134 m 0
 657 99.333 644.667 68.333 620 41 c 128
 595.333 13.667 566.333 0 533 0 c 2
 519 0 l 1
 513 8 508.333 13.667 505 17 c 0
 493.667 29 484 35 476 35 c 0
 461.333 35 448.667 31.667 438 25 c 1
 424.667 14.333 414 6 406 0 c 1
 340 0 l 1
 300 47 l 1
 267 0 l 1
 190 0 l 1
 184.667 19.333 180.333 33.333 177 42 c 0
 171 58 162 65.333 150 64 c 0
 133.333 62 117 52 101 34 c 0
 91.667 22.667 82 11.333 72 0 c 1
 38 0 l 1
 38 29.333 72.333 67 141 113 c 0
 173.667 135 190 159 190 185 c 0
 190.002 202.333 179.335 226 158 256 c 128
 136.667 286 125.667 321.333 125 362 c 0
 125 376.667 126 392.333 128 409 c 128
 130 425.667 133.667 446 139 470 c 1
 137.684 474 135.351 477 132 479 c 128
 128.667 481 122.667 482 114 482 c 1
 95.333 476.667 81.333 470.667 72 464 c 0
 44 442.667 30 410.333 30 367 c 0
 30 355.667 31.667 346.667 35 340 c 128
 38.333 333.333 42.667 328.333 48 325 c 1
 64 320.333 78 334 90 366 c 1
 93.333 368.667 96.333 371.333 99 374 c 1
 99.667 372 100 368.333 100 363 c 0
 100 348.333 96 335 88 323 c 0
 76.667 307 60 296.667 38 292 c 1
 29.333 292 21.333 297 14 307 c 0
 4.66699 320.334 0 338.667 0 362 c 0
 0 407.333 15 444 45 472 c 128
 75 500 112.666992188 514 158 514 c 0
 210 514 249.667 504 277 484 c 128
 304.333 464 318.333 436.333 319 401 c 0
 319 387 316.667 373 312 359 c 1
 300 338.333 285.333 328 268 328 c 0
 250 328 232.333 337.333 215 356 c 128
 197.667 374.667 189 390.333 189 403 c 0
 189 409 191.333 412.333 196 413 c 1
 200 401.667 204 393.333 208 388 c 0
 220 370.667 235.333 362 254 362 c 0
 268.667 362 278.667 366 284 374 c 128
 289.333 382 292 392.667 292 406 c 0
 292 426.667 284.333 442.333 269 453 c 128
 253.667 463.667 233.667 471.667 209 477 c 0
 199 479 192.333 480 189 480 c 0
 185 480 176.333 479 163 477 c 1
 157.667 461.667 154 446.333 152 431 c 128
 150 415.667 149 396.667 149 374 c 0
 149 353.333 156 330.666 170 306 c 1
 197 261 197 261 224 216 c 1
 226.667 203.333 228 191 228 179 c 0
 228 157 219.667 136.667 203 118 c 0
 194.333 108.667 190 101.333 190 96 c 1
 199.333 87.333 205.333 76.333 208 63 c 128
 210.667 49.667 222.667 40.333 244 35 c 1
 261.333 39.667 273.333 44.667 280 50 c 128
 286.667 55.333 290 62.333 290 71 c 0
 290 77.667 286 90.333 278 109 c 0
 272.667 121.667 269 131.667 267 139 c 1
 266.333 145 266 149.667 266 153 c 0
 266 181 274 206.333 290 229 c 128
 306 251.667 328.333007812 263 357 263 c 4
 378.333007812 263 393 259 401 251 c 128
 409 243 414.667 227.667 418 205 c 0
 420.667 183 413.667 163.667 397 147 c 1
 374.334 126.333 351.667 106 329 86 c 1
 335 75.333 342 65 350 55 c 0
 366.667 34.333 383.333 24 400 24 c 0
 412 24 425 29 439 39 c 0
 443 42.333 448.667 47.333 456 54 c 1
 454.667 66 454 76.333 454 85 c 0
 454 121.667 460.667 153.333 474 180 c 0
 492.667 218 525 247 571 267 c 1
 550.333 313.667 518.333 355 475 391 c 1
 434.333 419.667 393.333 448.333 352 477 c 1
 381.333 474.332 418.333 459.666 463 433 c 0
 517.667 401 561.333 362.667 594 318 c 0
 636 261.333 657 200 657 134 c 0
379 227 m 1
 369 227 358.667 226.333 348 225 c 128
 337.333 223.667 330 218.667 326 210 c 128
 322 201.333 319.333 193 318 185 c 128
 316.667 177 316 168.333 316 159 c 2
 316 139 l 1
 344 139 362.333 148.333 371 167 c 0
 376.333 178.333 379 198.333 379 227 c 1
513 54 m 1
 519 41.333 529 35 543 35 c 0
 559 35 573.333 43 586 59 c 128
 598.667 75 605.333 98.333 606 129 c 0
 606 154.333 602.667 181 596 209 c 128
 589.333 237 581 251.333 571 252 c 1
 549.667 243.333 533 226 521 200 c 128
 509 174 503 145 503 113 c 0
 503 89.667 506.333 70 513 54 c 1
671 50 m 0
 677.667 50 683.333 47.333 688 42 c 128
 692.667 36.667 695 30.667 695 24 c 128
 695 17.333 692.333 11.667 687 7 c 128
 681.667 2.33301 675.333 -0 668 0 c 0
 661.333 -0 655.667 2.66699 651 8 c 128
 646.333 13.333 644 19.667 644 27 c 0
 644 42.333 653 50 671 50 c 0
EndSplineSet
Validated: 33
EndChar

StartChar: uniE655
Encoding: 58965 58965 73
Width: 431
VWidth: 2048
Flags: HW
LayerCount: 2
Fore
SplineSet
216.75 244.8 m 1
 194.65 244.8 178.5 229.5 178.5 208.25 c 0
 178.5 190.4 198.9 173.4 216.75 172.55 c 1
 237.15 172.55 251.6 191.25 251.6 209.95 c 0
 251.6 231.2 237.15 243.95 216.75 244.8 c 1
44.2002 317.9 m 1
 47.5996 343.4 68.8496 368.9 96.0498 368.9 c 0
 112.2 368.9 123.25 364.65 127.5 357 c 1
 138.55 343.4 141.1 301.75 149.6 281.35 c 1
 155.55 273.7 164.05 268.6 175.1 266.9 c 1
 191.25 272 l 1
 200.6 277.1 204.85 282.2 205.7 296.65 c 0
 205.7 303.45 204 309.4 201.45 313.65 c 2
 189.55 331.5 l 1
 173.4 349.35 l 1
 164.05 371.45 l 1
 164.05 399.5 188.7 418.2 216.75 418.2 c 0
 244.8 418.2 266.9 395.25 266.9 371.45 c 0
 266.9 351.05 260.1 345.95 246.5 331.5 c 1
 231.2 311.95 l 1
 226.95 305.15 225.25 299.2 224.4 294.1 c 1
 225.25 289.85 228.65 283.05 228.65 279.65 c 1
 239.7 269.45 l 1
 254.15 261.8 l 1
 274.55 263.5 284.75 283.9 287.3 308.55 c 1
 287.3 347.65 303.45 367.2 335.75 367.2 c 0
 361.25 367.2 382.5 345.95 382.5 320.45 c 0
 382.5 291.55 358.7 273.7 328.1 273.7 c 0
 298.35 273.7 282.2 262.65 279.65 239.7 c 1
 284.75 227.8 l 2
 285.6 225.25 288.15 222.7 291.55 220.15 c 0
 292.4 218.45 297.5 216.75 306 215.05 c 1
 316.2 216.75 323 221 328.95 226.95 c 1
 336.6 230.35 334.9 231.2 345.1 238.85 c 2
 366.35 254.15 l 2
 370.6 257.55 377.4 259.25 386.75 259.25 c 0
 409.7 259.25 430.1 232.9 430.95 209.95 c 1
 430.95 189.55 415.65 169.15 401.2 160.65 c 0
 398.65 159.8 391.85 158.1 382.5 157.25 c 1
 375.7 158.1 365.5 164.05 351.9 175.1 c 1
 326.4 193.8 l 2
 322.15 196.35 315.35 198.05 306 198.05 c 0
 298.35 198.05 292.4 196.35 289 193.8 c 1
 279.65 175.1 l 1
 281.35 162.35 286.45 154.7 294.1 151.3 c 2
 305.15 147.05 l 1
 331.5 141.95 l 1
 347.65 141.95 359.55 137.7 368.9 130.05 c 1
 378.25 124.1 382.5 113.05 382.5 96.0498 c 0
 382.5 83.2998 377.4 71.4004 368.05 62.0498 c 1
 358.7 54.4004 345.95 49.2998 331.5 45.9004 c 1
 320.45 47.5996 309.4 54.4004 298.35 65.4502 c 1
 290.7 76.5 287.3 92.6504 287.3 112.2 c 0
 287.3 123.25 282.2 132.6 279.65 138.55 c 0
 274.55 147.05 266.05 151.3 254.15 151.3 c 0
 235.45 151.3 225.25 136 221.85 119.85 c 1
 224.4 113.05 229.5 106.25 232.9 99.4502 c 0
 237.15 91.7998 241.4 85 246.5 78.2002 c 1
 254.15 69.7002 l 1
 259.25 59.5 l 1
 262.65 54.4004 263.5 47.5996 264.35 39.0996 c 1
 264.35 13.5996 238 0 212.5 0 c 0
 187.85 0 166.6 15.2998 164.05 39.0996 c 1
 164.9 45.0498 169.15 56.9502 170.85 60.3496 c 0
 181.9 74.7998 192.95 89.25 204 102.85 c 1
 205.7 107.1 207.4 113.05 208.25 122.4 c 1
 208.25 139.4 199.75 148.75 183.6 151.3 c 1
 152.15 151.3 143.65 131.75 143.65 100.3 c 0
 143.65 68.8496 127.5 51 96.0498 45.9004 c 1
 62.9004 52.7002 53.5498 65.4502 45.9004 97.75 c 1
 49.2998 128.35 71.4004 143.65 112.2 143.65 c 0
 130.9 143.65 148.75 156.4 148.75 175.1 c 0
 148.75 182.75 146.2 187.85 141.1 191.25 c 1
 137.7 195.5 132.6 198.05 124.95 198.05 c 0
 114.75 198.05 101.15 192.1 85 180.2 c 0
 71.4004 170.85 60.3496 164.05 45.9004 158.95 c 1
 17.8496 162.35 0.849609 179.35 0 209.95 c 1
 0 235.45 18.7002 256.7 44.2002 256.7 c 0
 62.9004 256.7 75.6504 248.2 88.4004 238 c 2
 106.25 224.4 l 1
 124.95 216.75 l 1
 142.8 221 151.3 228.65 151.3 239.7 c 0
 151.3 262.65 136 273.7 104.55 273.7 c 0
 68 273.7 48.4502 288.15 44.2002 317.9 c 1
EndSplineSet
Validated: 1
EndChar

StartChar: uniE046
Encoding: 57414 57414 74
Width: 935
VWidth: 2048
Flags: HW
LayerCount: 2
Fore
SplineSet
51 64 m 1
 130 349 l 1
 132 358 l 1
 133 363 l 1
 133 371 130.333 377.333 125 382 c 128
 119.667 386.667 106.333 391 85 395 c 1
 85 404 l 1
 237 404 l 2
 371 404 438 348.667 438 238 c 0
 438 190 425 147.333 399 110 c 0
 386.333 92.6667 371 77 353 63 c 128
 335 49 315 37.3333 293 28 c 0
 249.667 9.33333 203.667 9.53674e-07 155 0 c 2
 0 0 l 1
 0 10 l 1
 14.6667 10 26.3333 14.6667 35 24 c 0
 39.6667 28.6667 43.3334 34.3333 46 41 c 128
 48.6669 47.6667 50.3335 55.3334 51 64 c 1
200 374 m 1
 110 51 l 1
 108 40 l 1
 110 24.6667 125 17 153 17 c 0
 193 17 229.667 28.3333 263 51 c 1
 279.667 61 294.333 72.6667 307 86 c 128
 319.667 99.3333 330.333 115 339 133 c 1
 348.333 148.333 355 165.667 359 185 c 128
 363 204.333 365.333 225.667 366 249 c 1
 366 294.333 355.667 328.333 335 351 c 128
 314.333 373.667 282 385 238 385 c 0
 228.667 385 220.667 384.333 214 383 c 128
 207.333 381.667 202.667 378.667 200 374 c 1
890 404 m 1
 868 279 l 1
 857 279 l 1
 857 295 855 309.667 851 323 c 128
 847 336.333 840.667 348 832 358 c 1
 813.333 375.333 789.667 384 761 384 c 0
 742.333 384 725 381 709 375 c 128
 693 369 678 359 664 345 c 1
 635.333 320.333 614 288.666 600 250 c 1
 591.333 230 585.333 212 582 196 c 128
 578.667 180 576.667 161.667 576 141 c 0
 576 121 577.667 103.667 581 89 c 128
 584.333 74.3333 591 60.3333 601 47 c 1
 617.667 22.3333 643 10 677 10 c 0
 705 10 731 15.6667 755 27 c 128
 779 38.3333 802.667 57.3333 826 84 c 1
 834 74 l 1
 787.333 10 730.333 -22 663 -22 c 0
 633 -22 605.333 -14.3333 580 1 c 1
 570 8.33333 560.333 17.3333 551 28 c 128
 541.667 38.6667 533 50.6667 525 64 c 1
 512.333 90 506 118.333 506 149 c 0
 506.002 191.667 517.335 233 540 273 c 1
 564 311.667 595.333 344.333 634 371 c 1
 674 394.333 715.333 406 758 406 c 2
 776 406 l 2
 783.333 406 788.333 405.333 791 404 c 1
 827 397 l 1
 855 389 l 1
 880 404 l 1
 890 404 l 1
398 33 m 128
 398 44.3333 400.667 51.6667 406 55 c 1
 414 63 422 67 430 67 c 128
 438 67 445 63 451 55 c 1
 457.667 51 461 43.6667 461 33 c 0
 461 24.3333 457.667 16.6667 451 10 c 1
 446.333 3.33333 439.333 0 430 0 c 128
 420.667 -4.76837e-07 413 2.66667 407 8 c 128
 401 13.3333 398 21.6667 398 33 c 128
871 28 m 1
 871 39.3333 874.333 47 881 51 c 1
 887 57.6667 894.667 61 904 61 c 0
 912 61 920 58 928 52 c 1
 932.667 46 935 38 935 28 c 0
 935 20 932 13.3333 926 8 c 1
 920.66 2 913.326 -1 904 -1 c 0
 894 -1 886.667 2 882 8 c 1
 876 12.6667 872.333 19.3333 871 28 c 1
EndSplineSet
Validated: 1
EndChar

StartChar: uniE045
Encoding: 57413 57413 75
Width: 860
VWidth: 2048
Flags: HW
LayerCount: 2
Fore
SplineSet
133 363 m 1
 133 387 115 389 85 395 c 1
 85 404 l 1
 237 404 l 2
 371 404 438 349 438 238 c 0
 438 190 425 147 399 110 c 1
 352 45 261 0 155 0 c 2
 0 0 l 1
 0 10 l 1
 32 10 49 33 51 64 c 1
 130 349 l 1
 132 358 l 1
 133 363 l 1
366 249 m 0
 366 339 327 385 238 385 c 0
 221 385 206 384 200 374 c 1
 110 51 l 1
 108 40 l 1
 110 25 125 17 153 17 c 0
 292 17 365 109 366 249 c 0
704 384 m 0
 669 384 640 358 640 323 c 0
 640 306 645 290 655 276 c 1
 675 252 681 245 703 226 c 1
 716 210 739 183 751 167 c 1
 763 148 769 129 769 108 c 0
 769 82 760 62 750 43 c 1
 737 24 721 10 704 1 c 1
 689 -9 670 -14 645 -14 c 0
 634 -14 617 -10 594 -1 c 1
 578 3 562 5 552 10 c 1
 545 10 540 7 536 1 c 1
 532 0 529 -5 528 -13 c 1
 516 -13 l 1
 537 122 l 1
 552 122 l 1
 549 105 l 1
 549 90 552 79 554 68 c 1
 558 57 565 47 576 36 c 1
 591 17 611 8 638 8 c 0
 662 8 680 16 692 32 c 1
 708 47 716 66 716 87 c 0
 716 107 711 123 702 135 c 1
 690 148 682 160 669 173 c 128
 664 178 658 184 652 191 c 0
 630 212 614 231 603 249 c 1
 592 262 587 280 587 303 c 0
 587 341 595 356 618 375 c 1
 637 394 662 404 693 404 c 0
 717 404 735 402 747 397 c 1
 758 390 768 387 778 387 c 0
 785 387 793 393 802 404 c 1
 815 404 l 1
 791 285 l 1
 781 285 l 1
 781 351 755 384 704 384 c 0
430 0 m 128
 410 0 398 12 398 33 c 128
 398 54 415 67 430 67 c 128
 438 67 445 63 451 55 c 1
 458 51 461 44 461 33 c 0
 461 17 448 0 430 0 c 128
829 -1 m 0
 809 -1 797 11 794 28 c 1
 794 45 811 61 829 61 c 0
 848 61 860 49 860 28 c 0
 860 10 845 -1 829 -1 c 0
EndSplineSet
Validated: 1
EndChar

StartChar: uniE047
Encoding: 57415 57415 76
Width: 410
VWidth: 2048
Flags: HW
LayerCount: 2
Fore
SplineSet
108 474 m 4
 86 474 70 444 70 418 c 4
 70 364 143 333 210 302 c 5
 348 507 l 5
 389 507 l 5
 243 286 l 5
 284 265 316 242 339 219 c 4
 367 190 381 157 381 122 c 4
 381 54 327 2 257 1 c 4
 217 1 181 33 181 73 c 4
 181 95 202 111 224 111 c 4
 247 111 258 94 263 73 c 4
 269 50 279 39 294 39 c 4
 321 39 336 62 336 93 c 4
 336 106 333 116 328 125 c 4
 319 142 295 161 256 182 c 5
 226 197 226 197 196 212 c 5
 62 4 l 5
 22 4 l 5
 163 227 l 5
 114 250 78 277 54 307 c 4
 33 334 22 362 22 391 c 4
 22 438 47 471 76 493 c 132
 93 506 113 513 134 513 c 4
 180 513 224 481 225 436 c 4
 225 414 202 401 180 400 c 4
 161 400 150 408 145 425 c 6
 138 448 l 6
 133 465 123 474 108 474 c 4
75 192 m 5
 75 171 59 155 39 154 c 5
 16 154 2 167 1 189 c 4
 0 210 15 228 36 228 c 132
 58 228 74 213 75 192 c 5
337 322 m 4
 337 346 353 360 374 360 c 4
 397 360 411 341 411 323 c 4
 411 300 394 286 374 286 c 4
 351 286 337 303 337 322 c 4
EndSplineSet
Validated: 33
EndChar

StartChar: uniE048
Encoding: 57416 57416 77
Width: 536
VWidth: 2048
Flags: HW
LayerCount: 2
Fore
SplineSet
537 233 m 1
 473 233 l 1
 473 217 469 193 460 160 c 1
 446 121 l 1
 430 90 l 1
 417 73 400 50 383 37 c 128
 361 20 326 10 286 0 c 1
 286 -73 l 1
 251 -73 l 1
 251 0 l 1
 212 6 l 130
 203 7 196 9 189 12 c 0
 132 43 100 86 78 160 c 1
 67 199 l 1
 65 233 l 1
 0 233 l 1
 0 273 l 1
 65 273 l 1
 65 307 67 316 77 346 c 1
 83 370 95 398 107 416 c 1
 130 446 l 1
 154 471 l 1
 175 487 184 494 215 499 c 128
 227 501 239 503 251 506 c 1
 251 580 l 1
 286 580 l 1
 286 506 l 1
 307 503 332 502 347 493 c 1
 360 488 372 480 382 471 c 0
 398 458 414 439 430 416 c 1
 443 393 473 309 473 273 c 1
 537 273 l 1
 537 233 l 1
370 273 m 1
 369 295 l 1
 367 332 l 2
 367 349 364 369 358 390 c 1
 352 425 320 471 286 471 c 1
 286 273 l 1
 370 273 l 1
251 273 m 1
 251 471 l 1
 236 471 221 462 205 445 c 1
 190 426 181 409 178 393 c 0
 175 375 173 357 170 339 c 1
 169 303 l 2
 169 290 168 280 167 273 c 1
 251 273 l 1
370 233 m 1
 286 233 l 1
 286 37 l 1
 301 37 317 45 332 61 c 0
 345 76 354 94 358 115 c 2
 367 177 l 1
 370 233 l 1
251 37 m 1
 251 233 l 1
 167 233 l 1
 167 212 l 1
 169 175 l 1
 169 133 182 88 204 61 c 1
 219 45 235 37 251 37 c 1
EndSplineSet
Validated: 1
EndChar

StartChar: uniE04B
Encoding: 57419 57419 78
Width: 477
VWidth: 2048
Flags: HW
LayerCount: 2
Fore
SplineSet
187 643 m 1
 253 605 l 1
 253 751 l 1
 187 788 l 1
 187 643 l 1
320 572 m 1
 349 580 380 608 380 644 c 0
 380 671 364 698 346 707 c 1
 282 745 l 1
 282 597 l 1
 320 572 l 1
159 381 m 1
 159 530 l 1
 122 552 l 1
 103 552 94 545 83 533 c 1
 68 520 61 507 61 496 c 0
 61 460 79 433 100 418 c 1
 159 381 l 1
187 375 m 1
 253 339 l 1
 253 483 l 1
 187 520 l 1
 187 375 l 1
320 305 m 1
 352 310 380 337 380 373 c 0
 380 402 368 424 344 440 c 1
 282 476 l 1
 282 330 l 1
 320 305 l 1
159 924 m 1
 159 962 l 1
 187 962 l 1
 187 909 l 1
 253 874 l 1
 253 962 l 1
 282 962 l 1
 282 863 l 1
 315 849 341 835 360 822 c 1
 401 797 439 759 442 696 c 0
 442 686 440 676 437 667 c 2
 431 651 l 2
 426 638 420 626 413 617 c 1
 407 606 396 595 387 585 c 2
 356 553 l 1
 378 541 395 528 407 514 c 1
 420 501 428 487 432 472 c 1
 439 459 442 440 442 416 c 0
 442 360 413 316 356 285 c 1
 383 266 406 247 423 226 c 128
 440 205 449 181 450 152 c 0
 450 111 439 83 420 57 c 1
 401 28 375 6 343 -10 c 1
 314 -23 281 -32 244 -34 c 1
 201 -34 187 -30 149 -18 c 1
 102 -5 46 27 44 78 c 1
 46 91 l 1
 51 116 65 128 88 128 c 2
 101 128 l 1
 116 126 134 111 155 84 c 0
 178 54 193 34 216 19 c 128
 223 15 242 10 250 7 c 128
 254 6 259 5 266 6 c 0
 308 6 339 27 357 51 c 1
 365 64 369 78 369 91 c 1
 366 113 l 2
 365 121 362 129 357 136 c 1
 340 167 314 184 282 201 c 1
 282 164 l 1
 253 164 l 1
 253 217 l 1
 187 249 l 1
 187 164 l 1
 159 164 l 1
 159 262 l 1
 109 288 l 2
 95 296 66 315 54 326 c 1
 39 338 26 353 17 370 c 1
 5 399 l 1
 3 407 2 412 2 415 c 128
 2 418 2 423 1 430 c 1
 3 450 l 1
 12 488 33 515 56 540 c 1
 88 572 l 1
 56 591 33 611 20 630 c 1
 7 651 1 677 1 708 c 0
 1 741 9 767 24 786 c 128
 39 805 61 824 90 842 c 1
 63 859 41 879 25 902 c 128
 9 925 1 955 0 992 c 0
 0 1026 10 1055 29 1078 c 1
 65 1125 124 1157 201 1158 c 1
 270 1158 333 1137 370 1103 c 128
 390 1085 400 1067 400 1049 c 1
 398 1034 l 1
 391 1005 376 990 352 990 c 0
 337 990 325 994 318 1001 c 128
 308 1011 279 1054 264 1070 c 128
 257 1077 249 1085 239 1093 c 1
 222 1104 200 1111 174 1114 c 1
 143 1114 118 1106 101 1091 c 1
 86 1076 72 1061 71 1034 c 1
 72 1029 l 1
 72 983 123 940 159 924 c 1
161 649 m 1
 161 797 l 1
 124 820 l 1
 111 818 101 814 94 807 c 1
 87 797 84 791 79 779 c 2
 68 749 l 1
 68 726 67 723 77 709 c 0
 84 698 92 689 100 684 c 2
 161 649 l 1
EndSplineSet
Validated: 33
EndChar

StartChar: uniE500
Encoding: 58624 58624 79
Width: 508
VWidth: 2048
Flags: HW
LayerCount: 2
Fore
SplineSet
508 242 m 1
 146 -242 l 1
 0 -242 l 1
 362 242 l 1
 508 242 l 1
52 118 m 4
 52 131.333 56.333 142.667 65 152 c 132
 73.667 161.333 84.333 166.333 97 167 c 5
 111 167 122.667 163 132 155 c 132
 141.333 147 146.333 136 147 122 c 4
 147 108.667 142.667 97.333 134 88 c 132
 125.333 78.667 114.667 73.667 102 73 c 5
 88 73 76.333 77 67 85 c 132
 57.667 93 52.667 104 52 118 c 4
361 -121 m 0
 361 -107.667 365.333 -96.333 374 -87 c 128
 382.667 -77.667 393.334 -72.667 406 -72 c 1
 420 -72 431.667 -76 441 -84 c 128
 450.333 -92 455.333 -103 456 -117 c 0
 456 -130.333 451.667 -141.667 443 -151 c 128
 434.333 -160.333 423.667 -165.333 411 -166 c 1
 397 -166 385.333 -162 376 -154 c 128
 366.667 -146 361.667 -135 361 -121 c 0
EndSplineSet
Validated: 1
EndChar

StartChar: uniE220
Encoding: 57888 57888 80
Width: 163
VWidth: 2048
Flags: HW
LayerCount: 2
Fore
SplineSet
-163 -124 m 1
 -163 -41 l 1
 163 125 l 1
 163 39 l 1
 -163 -124 l 1
EndSplineSet
Validated: 1
EndChar

StartChar: uniE222
Encoding: 57890 57890 81
Width: 162
VWidth: 2048
Flags: HW
LayerCount: 2
Fore
SplineSet
162 175 m 1
 -162 11 l 1
 -162 95 l 1
 162 258 l 1
 162 175 l 1
162 40 m 1
 -162 -124 l 1
 -162 -40 l 1
 162 124 l 1
 162 40 l 1
162 -95 m 1
 -162 -258 l 1
 -162 -175 l 1
 162 -11 l 1
 162 -95 l 1
EndSplineSet
Validated: 1
EndChar

StartChar: uniE223
Encoding: 57891 57891 82
Width: 162
VWidth: 2048
Flags: HW
LayerCount: 2
Fore
SplineSet
162 108 m 1
 -162 -56 l 1
 -162 28 l 1
 162 191 l 1
 162 108 l 1
162 -27 m 1
 -162 -191 l 1
 -162 -107 l 1
 162 57 l 1
 162 -27 l 1
162 -162 m 1
 -162 -325 l 1
 -162 -242 l 1
 162 -78 l 1
 162 -162 l 1
162 242 m 1
 -162 78 l 1
 -162 162 l 1
 162 326 l 1
 162 242 l 1
EndSplineSet
Validated: 1
EndChar

StartChar: uniE224
Encoding: 57892 57892 83
Width: 162
VWidth: 2048
Flags: HW
LayerCount: 2
Fore
SplineSet
162 41 m 1
 -162 -123 l 1
 -162 -39 l 1
 162 124 l 1
 162 41 l 1
162 -94 m 1
 -162 -258 l 1
 -162 -174 l 1
 162 -10 l 1
 162 -94 l 1
162 -229 m 1
 -162 -392 l 1
 -162 -309 l 1
 162 -145 l 1
 162 -229 l 1
162 310 m 1
 -162 146 l 1
 -162 230 l 1
 162 393 l 1
 162 310 l 1
162 175 m 1
 -162 11 l 1
 -162 95 l 1
 162 259 l 1
 162 175 l 1
EndSplineSet
Validated: 1
EndChar

StartChar: uniE221
Encoding: 57889 57889 84
Width: 164
VWidth: 2048
Flags: HW
LayerCount: 2
Fore
SplineSet
-163 -193 m 1
 -163 -110 l 1
 163 56 l 1
 163 -30 l 1
 -163 -193 l 1
-163 -57 m 1
 -163 27 l 1
 163 193 l 1
 163 110 l 1
 -163 -57 l 1
EndSplineSet
Validated: 1
EndChar

StartChar: uniE530
Encoding: 58672 58672 85
Width: 692
VWidth: 2048
Flags: HW
LayerCount: 2
Fore
SplineSet
363 -69 m 1
 386 -69 398 -92 399 -116 c 0
 399 -124 395 -139 390 -147 c 2
 380 -162 l 2
 373 -172 372 -174 367 -183 c 1
 367 -188 370 -190 377 -190 c 0
 396 -190 412 -176 425 -148 c 1
 438 -116 448 -88 458 -51 c 1
 472 11 485 72 499 134 c 1
 517 220 l 1
 377 220 l 1
 363 131 317 -36 284 -98 c 1
 269 -129 254 -155 237 -177 c 128
 220 -199 199 -214 172 -221 c 1
 154 -223 l 1
 110 -223 87 -183 87 -136 c 0
 87 -97 105 -83 132 -69 c 1
 138 -69 143 -70 146 -73 c 1
 160.846 -78.9384 169 -98.0512 169 -118 c 0
 169 -133 158 -154 137 -183 c 1
 137 -188 140 -190 146 -190 c 0
 180 -190 207 -144 228 -51 c 1
 249.424 37.7557 267.772 129.774 287 220 c 1
 146 220 l 1
 133 135 84 -35 53 -98 c 1
 20 -170 -17 -211 -57 -221 c 1
 -76 -223 l 1
 -111 -223 -127 -199 -139 -169 c 1
 -144 -136 l 1
 -139 -97 -131 -81 -98 -69 c 1
 -75 -69 -60 -95 -60 -118 c 0
 -60 -126 -62 -134 -66 -141 c 2
 -80 -164 l 1
 -94 -183 l 1
 -94 -188 -91 -190 -84 -190 c 0
 -73 -190 -63 -185 -54 -175 c 1
 -36 -160 -28 -129 -17 -104 c 1
 -2 -51 l 1
 15 26 32 104 48 182 c 128
 51 195 54 208 57 220 c 1
 0 220 l 1
 0 258 l 1
 69 258 l 1
 78 291 92 320 109 347 c 0
 126 375 147 398 172 417 c 1
 197 434 225 442 255 442 c 0
 288 442 304 412 304 376 c 128
 304 338 285 306 254 300 c 1
 237 300 227 311 225 332 c 1
 225 359 242 385 262 394 c 1
 265 394 267 396 267 400 c 1
 261 409 l 1
 256 412 250 414 243 414 c 0
 220 414 202 398 188 366 c 128
 174 334 163 299 156 260 c 1
 300 260 l 1
 323 344 385 442 485 442 c 0
 521 442 532 411 534 376 c 1
 534 358 530 341 521 325 c 1
 513 313 501 305 484 300 c 1
 466 300 456 311 454 332 c 1
 454 361 472 383 491 394 c 1
 494 394 496 396 496 400 c 1
 492 410 485 414 473 414 c 0
 436 414 406 362 385 258 c 1
 529 258 l 1
 544 307 568 351 601 390 c 0
 632 426 670 444 715 444 c 0
 749 444 764 408 764 374 c 0
 764 337 745 306 713 300 c 1
 697 300 688 311 686 332 c 1
 686 358 704 384 721 394 c 1
 725 394 727 396 727 400 c 1
 722 409 716 414 703 414 c 0
 666 414 636 362 615 258 c 1
 691 258 l 1
 691 220 l 1
 606 220 l 1
 599 176 591 136 580 99 c 1
 562 24 541 -42 514 -98 c 1
 499 -126 483 -153 464 -177 c 0
 448 -198 428 -213 403 -221 c 1
 385 -223 l 1
 350 -223 332 -200 323 -169 c 1
 319 -159 317 -148 317 -136 c 1
 321 -99 332 -79 363 -69 c 1
EndSplineSet
Validated: 1
EndChar

StartChar: uniE52F
Encoding: 58671 58671 86
Width: 479
VWidth: 2048
Flags: HW
LayerCount: 2
Fore
SplineSet
555 376 m 1
 555 337.833 536.025 307.756 505 300 c 1
 487 300 477 310.667 475 332 c 1
 475 360.991 492.859 383.367 512 394 c 0
 515.333 396.667 517 398.667 517 400 c 2
 511 409 l 1
 506.333 412.333 500.667 414 494 414 c 0
 456.667 414 427.333 362 406 258 c 1
 481 258 l 1
 481 220 l 1
 398 220 l 1
 383.418 126.902 339.409 -29.7297 306 -98 c 128
 290.667 -129.333 274 -156 256 -178 c 1
 240 -199.333 219 -213.666 193 -221 c 1
 174 -223 l 1
 130.724 -223 108 -182.607 108 -136 c 0
 108 -97.1455 126.371 -83.0955 152 -69 c 1
 175.954 -69 190 -94.1264 190 -118 c 0
 190 -132.667 179.333 -154.333 158 -183 c 1
 158 -187.667 161 -190 167 -190 c 0
 201 -190 228.333 -143.667 249 -51 c 0
 256.329 -21.9957 262.475 8.19189 269 38 c 0
 282.093 98.574 295.152 159.181 308 220 c 1
 147 220 l 1
 132.832 125.548 91.2885 -21.4275 53 -98 c 1
 20.333 -170 -16.333 -211 -57 -221 c 1
 -75 -223 l 1
 -96.3311 -223 -112.664 -214.333 -124 -197 c 1
 -129.333 -191 -134.333 -181.667 -139 -169 c 1
 -140.561 -156.519 -141.738 -149.873 -143 -136 c 1
 -140.452 -114.339 -140.211 -103.128 -130 -90 c 0
 -123.333 -81.333 -112.333 -74.333 -97 -69 c 1
 -74.0664 -69 -61.2048 -95.418 -60 -118 c 0
 -60 -129.389 -62.0371 -135.074 -65 -141 c 2
 -79 -164 l 1
 -94 -183 l 1
 -94 -187.667 -90.667 -190 -84 -190 c 0
 -56.9433 -190 -40.4193 -160.839 -30 -140 c 1
 -16 -104 l 1
 -1 -51 l 1
 13.2142 12.1191 26.7116 75.955 40 140 c 2
 57 220 l 1
 0 220 l 1
 0 258 l 1
 70 258 l 1
 89.8959 324.797 121.192 379.091 173 417 c 1
 197.667 433.667 225.333 442 256 442 c 0
 288.81 442 305 410.033 305 376 c 128
 305 338.423 286.801 305.245 254 300 c 1
 237.333 300 228 310.667 226 332 c 1
 226 343.335 229.333 355.668 236 369 c 0
 242.667 380.335 251.667 388.668 263 394 c 0
 266.333 396.667 268 398.667 268 400 c 0
 261.111 409.646 257.365 414 243 414 c 0
 221 414 203 398.333 189 367 c 128
 175 335.667 164 300 156 260 c 1
 320 260 l 1
 342.448 343.061 407.109 442 506 442 c 0
 541.726 442 552.923 411.294 555 376 c 1
EndSplineSet
Validated: 1
EndChar

StartChar: uniE531
Encoding: 58673 58673 87
Width: 925
VWidth: 2048
Flags: HW
LayerCount: 2
Fore
SplineSet
132 -69 m 1
 156.763 -69 169 -93.374 169 -118 c 0
 169 -133 158 -154 137 -183 c 1
 137 -188 140 -190 146 -190 c 0
 180 -190 207 -144 228 -51 c 1
 249.424 37.7559 267.772 129.774 287 220 c 1
 146 220 l 1
 133 135 84 -35 53 -98 c 1
 20 -170 -17 -211 -57 -221 c 1
 -76 -223 l 1
 -111 -223 -127 -199 -139 -169 c 1
 -144 -136 l 1
 -139 -97 -131 -81 -98 -69 c 1
 -75 -69 -60 -95 -60 -118 c 0
 -60 -126 -62 -134 -66 -141 c 2
 -80 -164 l 1
 -94 -183 l 1
 -94 -188 -91 -190 -84 -190 c 0
 -73 -190 -63 -185 -54 -175 c 1
 -36 -160 -28 -129 -17 -104 c 1
 -2 -51 l 1
 15 26 32 104 48 182 c 128
 51 195 54 208 57 220 c 1
 0 220 l 1
 0 258 l 1
 69 258 l 1
 86.8976 323.624 124.166 380.646 172 417 c 1
 197 434 225 442 255 442 c 0
 288 442 304 412 304 376 c 128
 304 338 285 306 254 300 c 1
 237 300 227 311 225 332 c 1
 225 359 242 385 262 394 c 1
 265 394 267 396 267 400 c 1
 261 409 l 1
 256 412 250 414 243 414 c 0
 220 414 202 398 188 366 c 128
 174 334 163 299 156 260 c 1
 300 260 l 1
 323 344 385 442 485 442 c 0
 521 442 532 411 534 376 c 1
 534 358 530 341 521 325 c 1
 513 313 501 305 484 300 c 1
 466 300 456 311 454 332 c 1
 454 361 472 383 491 394 c 1
 494 394 496 396 496 400 c 1
 492 410 485 414 473 414 c 0
 436 414 406 362 385 258 c 1
 529 258 l 1
 544 307 568 351 601 390 c 0
 632 426 670 444 715 444 c 0
 749 444 764 408 764 374 c 0
 764 337 745 306 713 300 c 1
 697 300 688 311 686 332 c 1
 686 358 704 384 721 394 c 1
 725 394 727 396 727 400 c 1
 722 409 716 414 703 414 c 0
 666 414 636 362 615 258 c 1
 761 258 l 1
 774.429 295.847 783.957 322.661 801 349 c 0
 821.666 379 843.333 402 866 418 c 128
 888.667 434 913.667 442 941 442 c 0
 969.318 442 986.6 428.326 992 404 c 2
 996 388 l 1
 996 354.861 995 351.993 983 328 c 0
 979.862 320.94 965.617 302.946 952 301 c 128
 925.791 297.254 919.71 311.593 916 332 c 1
 916 359.28 927.325 376.216 945 388 c 2
 959 398 l 1
 959 420.554 919.996 415.278 907 406 c 128
 897.667 399.333 888 385 878 363 c 1
 871.086 345.222 852.1 279.121 847 260 c 1
 924 260 l 1
 924 220 l 1
 839 220 l 1
 819.986 111.195 778.939 -34.5586 736 -117 c 0
 712.343 -163.132 671.698 -223 619 -223 c 0
 574.383 -223 548 -186.317 548 -140 c 0
 548 -108.178 563.31 -69 597 -69 c 0
 618.386 -69 632 -99.9219 632 -120 c 0
 632 -140.113 619.398 -151.813 611 -165 c 128
 604.1 -175.849 586.861 -187.786 609 -190 c 1
 644.075 -190 663.221 -135.5 676 -101 c 128
 682.667 -83 687.667 -65.667 691 -49 c 0
 711.706 39.2939 729.664 130.336 749 220 c 1
 606 220 l 1
 599 176 591 136 580 99 c 1
 562 24 541 -42 514 -98 c 1
 499 -126 483 -153 464 -177 c 0
 448 -198 428 -213 403 -221 c 1
 385 -223 l 1
 350 -223 332 -200 323 -169 c 1
 319 -159 317 -148 317 -136 c 1
 321 -99 332 -79 363 -69 c 1
 386 -69 398 -92 399 -116 c 0
 399 -124 395 -139 390 -147 c 2
 380 -162 l 2
 373 -172 372 -174 367 -183 c 1
 367 -188 370 -190 377 -190 c 0
 396 -190 412 -176 425 -148 c 1
 438 -116 448 -88 458 -51 c 1
 472 11 485 72 499 134 c 1
 517 220 l 1
 377 220 l 1
 363 131 317 -36 284 -98 c 1
 269 -129 254 -155 237 -177 c 128
 220 -199 199 -214 172 -221 c 1
 154 -223 l 1
 110 -223 87 -183 87 -136 c 0
 87 -97 105 -83 132 -69 c 1
EndSplineSet
Validated: 33
EndChar

StartChar: uniE532
Encoding: 58674 58674 88
Width: 1158
VWidth: 2048
Flags: HW
LayerCount: 2
Fore
SplineSet
782 -140 m 4
 782 -186.313 808.384 -223 853 -223 c 4
 905.613 -223 946.408 -163.005 970 -117 c 4
 1012.82 -34.7949 1054.03 111.455 1073 220 c 5
 1158 220 l 5
 1158 260 l 5
 1081 260 l 5
 1086.09 279.062 1105.12 345.319 1112 363 c 5
 1122 385 1131.67 399.333 1141 406 c 132
 1150.33 412.663 1161.67 415.33 1175 414 c 4
 1187 412 1193 406.667 1193 398 c 5
 1186 393 1186 393 1179 388 c 4
 1161.31 376.208 1150 359.297 1150 332 c 5
 1153.7 311.603 1159.71 297.245 1186 301 c 132
 1199.61 302.944 1213.87 320.96 1217 328 c 4
 1228.99 351.987 1230 354.851 1230 388 c 5
 1226 404 l 6
 1223.02 417.46 1208.58 435.473 1198 439 c 132
 1192 441 1184.33 442 1175 442 c 4
 1147.67 442 1122.67 434 1100 418 c 132
 1065.66 393.767 1032.75 353.489 1013 305 c 4
 1008.33 294.333 1002.33 278.667 995 258 c 5
 847 258 l 5
 852.1 277.121 871.086 345.222 878 363 c 5
 888 385 897.667 399.333 907 406 c 132
 920.029 415.302 959 420.565 959 398 c 5
 945 388 l 6
 927.325 376.216 916 359.28 916 332 c 5
 919.707 311.613 925.706 297.242 952 301 c 132
 965.617 302.946 979.862 320.94 983 328 c 4
 995 351.993 996 354.861 996 388 c 5
 992 404 l 6
 986.6 428.326 969.318 442 941 442 c 4
 913.667 442 888.667 434 866 418 c 132
 843.333 402 821.666 379 801 349 c 4
 783.957 322.661 774.429 295.847 761 258 c 5
 615 258 l 5
 636 362 666 414 703 414 c 4
 716 414 722 409 727 400 c 5
 727 396 725 394 721 394 c 5
 704 384 686 358 686 332 c 5
 688 311 697 300 713 300 c 5
 745 306 764 337 764 374 c 4
 764 408 749 444 715 444 c 4
 670 444 632 426 601 390 c 4
 568 351 544 307 529 258 c 5
 385 258 l 5
 406 362 436 414 473 414 c 4
 485 414 492 410 496 400 c 5
 496 396 494 394 491 394 c 5
 472 383 454 361 454 332 c 5
 456 311 466 300 484 300 c 5
 501 305 513 313 521 325 c 5
 530 341 534 358 534 376 c 5
 532 411 521 442 485 442 c 4
 385 442 323 344 300 260 c 5
 156 260 l 5
 163 299 174 334 188 366 c 132
 202 398 220 414 243 414 c 4
 250 414 256 412 261 409 c 5
 267 400 l 5
 267 396 265 394 262 394 c 5
 242 385 225 359 225 332 c 5
 227 311 237 300 254 300 c 5
 285 306 304 338 304 376 c 132
 304 412 288 442 255 442 c 4
 225 442 197 434 172 417 c 5
 124.153 380.636 86.8965 323.62 69 258 c 5
 0 258 l 5
 0 220 l 5
 57 220 l 5
 54 208 51 195 48 182 c 132
 32 104 15 26 -2 -51 c 5
 -17 -104 l 5
 -28 -129 -36 -160 -54 -175 c 5
 -63 -185 -73 -190 -84 -190 c 4
 -91 -190 -94 -188 -94 -183 c 5
 -80 -164 l 5
 -66 -141 l 6
 -62 -134 -60 -126 -60 -118 c 4
 -60 -95 -75 -69 -98 -69 c 5
 -131 -81 -139 -97 -144 -136 c 5
 -139 -169 l 5
 -127 -199 -111 -223 -76 -223 c 5
 -57 -221 l 5
 -17 -211 20 -170 53 -98 c 5
 84 -35 133 135 146 220 c 5
 287 220 l 5
 267.772 129.774 249.424 37.7559 228 -51 c 5
 207 -144 180 -190 146 -190 c 4
 140 -190 137 -188 137 -183 c 5
 158 -154 169 -133 169 -118 c 4
 169 -98.0508 160.846 -78.9385 146 -73 c 5
 143 -70 138 -69 132 -69 c 5
 105 -83 87 -97 87 -136 c 4
 87 -183 110 -223 154 -223 c 5
 172 -221 l 5
 199 -214 220 -199 237 -177 c 132
 254 -155 269 -129 284 -98 c 5
 317 -36 363 131 377 220 c 5
 517 220 l 5
 499 134 l 5
 485 72 472 11 458 -51 c 5
 448 -88 438 -116 425 -148 c 5
 412 -176 396 -190 377 -190 c 4
 370 -190 367 -188 367 -183 c 5
 372 -174 373 -172 380 -162 c 6
 390 -147 l 6
 395 -139 399 -124 399 -116 c 4
 398 -92 386 -69 363 -69 c 5
 332 -79 321 -99 317 -136 c 5
 317 -148 319 -159 323 -169 c 5
 332 -200 350 -223 385 -223 c 5
 403 -221 l 5
 458.296 -203.305 488.052 -146.436 514 -98 c 5
 541 -42 562 24 580 99 c 5
 591 136 599 176 606 220 c 5
 749 220 l 5
 729.664 130.336 711.706 39.2939 691 -49 c 4
 687.667 -65.667 682.667 -83 676 -101 c 132
 663.221 -135.5 644.075 -190 609 -190 c 5
 586.858 -187.785 604.124 -175.811 611 -165 c 132
 619.398 -151.813 632 -140.113 632 -120 c 4
 632 -99.9219 618.386 -69 597 -69 c 4
 563.31 -69 548 -108.178 548 -140 c 4
 548 -186.317 574.383 -223 619 -223 c 4
 671.698 -223 712.343 -163.132 736 -117 c 4
 778.939 -34.5586 819.986 111.195 839 220 c 5
 983 220 l 5
 939 12 l 5
 925 -49 l 6
 918.42 -81.9016 902.771 -122.182 890 -149 c 4
 877.333 -176.333 861.667 -190 843 -190 c 5
 820.856 -187.785 838.123 -175.813 845 -165 c 132
 853.404 -151.804 866 -140.122 866 -120 c 4
 866 -99.9207 852.382 -69 831 -69 c 4
 797.321 -69 782 -108.183 782 -140 c 4
EndSplineSet
Validated: 41
EndChar

StartChar: NameMe.58897
Encoding: 1114112 -1 89
Width: 322
VWidth: 2048
Flags: HW
LayerCount: 2
Fore
SplineSet
0 -2 m 5
 322 -2 l 5
 322 265 l 5
 270 265 l 5
 270 74 l 5
 52 74 l 5
 52 265 l 5
 0 265 l 5
 0 -2 l 5
EndSplineSet
Validated: 9
EndChar

StartChar: NameMe.58898
Encoding: 1114113 -1 90
Width: 263
VWidth: 2048
Flags: HW
LayerCount: 2
Fore
SplineSet
0 418 m 5
 36 418 l 5
 130 104 l 5
 226 418 l 5
 262 418 l 5
 130 0 l 5
 0 418 l 5
EndSplineSet
Validated: 1
EndChar

StartChar: NameMe.58899
Encoding: 1114114 -1 91
Width: 263
VWidth: 2048
Flags: HW
LayerCount: 2
Fore
SplineSet
0 418 m 5
 36 418 l 5
 130 104 l 5
 226 418 l 5
 262 418 l 5
 130 0 l 5
 0 418 l 5
EndSplineSet
Validated: 1
EndChar

StartChar: uniE4A0
Encoding: 58528 58528 92
Width: 347
VWidth: 2048
Flags: HW
LayerCount: 2
Fore
SplineSet
0 236 m 1
 347 117 l 1
 0 0 l 1
 0 33 l 1
 252 117 l 1
 0 203 l 1
 0 236 l 1
EndSplineSet
Validated: 1
EndChar

StartChar: uniE4A1
Encoding: 58529 58529 93
Width: 347
VWidth: 2048
Flags: HW
LayerCount: 2
Fore
SplineSet
0 -236 m 1
 347 -117 l 1
 0 0 l 1
 0 -33 l 1
 252 -117 l 5
 0 -203 l 1
 0 -236 l 1
EndSplineSet
Validated: 9
EndChar

StartChar: uniE4A8
Encoding: 58536 58536 94
Width: 153
VWidth: 2048
Flags: HW
LayerCount: 2
Fore
SplineSet
153 224 m 5
 116 224 l 5
 106 220 97.3330078125 210 90 194 c 4
 86.6669921875 186.666992188 82 182 76 180 c 5
 72 181.333007812 65.3330078125 190 56 206 c 4
 51.3330078125 214.666992188 44.6669921875 220.666992188 36 224 c 5
 0 224 l 5
 76 0 l 1
 153 224 l 5
EndSplineSet
Validated: 9
EndChar

StartChar: uniE4A9
Encoding: 58537 58537 95
Width: 153
VWidth: 2048
Flags: HW
LayerCount: 2
Fore
SplineSet
153 -224 m 5
 116 -224 l 5
 106 -220 97.3330078125 -210 90 -194 c 4
 86.6669921875 -186.666992188 82 -182 76 -180 c 5
 72 -181.333007812 65.3330078125 -190 56 -206 c 4
 51.3330078125 -214.666992188 44.6669921875 -220.666992188 36 -224 c 5
 0 -224 l 5
 76 0 l 1
 153 -224 l 5
EndSplineSet
Validated: 1
EndChar

StartChar: uniE4AA
Encoding: 58538 58538 96
Width: 1000
VWidth: 0
Flags: HW
LayerCount: 2
Fore
SplineSet
0 0 m 25
 33 0 l 29
 33 240 l 29
 0 240 l 25
 0 0 l 25
EndSplineSet
Validated: 9
EndChar

StartChar: uniE4AB
Encoding: 58539 58539 97
Width: 34
VWidth: 0
Flags: HW
LayerCount: 2
Fore
SplineSet
0 0 m 25
 33 0 l 25
 33 -240 l 25
 0 -240 l 25
 0 0 l 25
EndSplineSet
Validated: 1
EndChar

StartChar: uniE568
Encoding: 58728 58728 98
Width: 468
VWidth: 2048
Flags: HW
LayerCount: 2
Fore
SplineSet
468 126 m 4
 468 195.355 430.486 242.042 362 244 c 4
 339.333 244 318.333 239 299 229 c 5
 278.398 216.323 254.209 196.949 235 180 c 5
 212.439 156.228 189.186 133.147 166 110 c 5
 150 96 135 85 121 77 c 132
 107 69 94.667 64.667 84 64 c 4
 64.2417 64 56.2814 77.5628 47 92 c 5
 35 118 l 6
 31.667 127.333 30 133.667 30 137 c 134
 30 145 l 6
 30 173.667 43.333 188 70 188 c 5
 79 186 l 5
 90 177 l 5
 97 170 l 5
 103.447 165.97 111.151 162 121 162 c 4
 138.333 162 149.333 171.333 154 190 c 5
 154 224.187 127.229 242.58 96 244 c 5
 73.1704 244 70.2894 244.34 55 236 c 5
 22.0184 222.418 0 182.422 0 139 c 4
 0 88.5491 20.6276 52.237 49 25 c 5
 67 10.333 85.333 2 104 0 c 5
 130 0 155 7 179 21 c 4
 187.667 26.333 193.667 30 197 32 c 6
 215 47 l 134
 223.638 54.1975 240.24 69.1328 248 78 c 6
 313 145 l 5
 323 154 l 5
 345 170 l 5
 358.333 177.333 370.667 181 382 181 c 4
 419.101 181 437 145.129 437 111 c 4
 437 83.0401 425.03 56 398 56 c 5
 391.647 58.1187 387.309 60.7935 381 65 c 6
 363 78 l 6
 359.667 80.667 353.667 82 345 82 c 4
 325.549 82 315.324 64.7595 313 45 c 5
 313 16.949 341.285 3.28677 371 1 c 5
 414.494 1 440.733 32.4674 456 63 c 132
 464.667 80.333 468.667 101.333 468 126 c 4
EndSplineSet
Validated: 41
EndChar

StartChar: uniE567
Encoding: 58727 58727 99
Width: 468
VWidth: 2048
Flags: HW
LayerCount: 2
Fore
SplineSet
468 118 m 4
 468 48.6445 430.486 1.95801 362 0 c 4
 339.333 0 318.333 5 299 15 c 5
 278.397 27.6768 254.209 47.0508 235 64 c 5
 212.438 87.7725 189.187 110.854 166 134 c 5
 150 148 135 159 121 167 c 132
 107 175 94.667 179.333 84 180 c 4
 64.2422 180 56.2812 166.438 47 152 c 5
 35 126 l 6
 31.667 116.667 30 110.333 30 107 c 134
 30 99 l 6
 30 70.333 43.333 56 70 56 c 5
 79 58 l 5
 90 67 l 5
 97 74 l 5
 103.447 78.0293 111.151 82 121 82 c 4
 138.333 82 149.333 72.667 154 54 c 5
 154 19.8125 127.229 1.41992 96 0 c 5
 73.1699 0 70.2891 -0.339844 55 8 c 5
 22.0186 21.582 0 61.5781 0 105 c 4
 0 155.451 20.6279 191.763 49 219 c 5
 67 233.667 85.333 242 104 244 c 5
 130 244 155 237 179 223 c 4
 187.667 217.667 193.667 214 197 212 c 6
 215 197 l 134
 223.638 189.803 240.24 174.867 248 166 c 6
 313 99 l 5
 323 90 l 5
 345 74 l 5
 358.333 66.667 370.667 63 382 63 c 4
 419.102 63 437 98.8711 437 133 c 4
 437 160.96 425.029 188 398 188 c 5
 391.646 185.881 387.309 183.206 381 179 c 6
 363 166 l 6
 359.667 163.333 353.667 162 345 162 c 4
 325.549 162 315.324 179.24 313 199 c 5
 313 227.051 341.285 240.713 371 243 c 5
 414.493 243 440.732 211.532 456 181 c 132
 464.667 163.667 468.667 142.667 468 118 c 4
EndSplineSet
Validated: 33
EndChar

StartChar: uniE56E
Encoding: 58734 58734 100
Width: 711
VWidth: 2048
Flags: HW
LayerCount: 2
Fore
SplineSet
710 134 m 1
 601 7 l 2
 598.333 3.66667 596 1.66667 594 1 c 128
 591 0 591 0 588 -1 c 1
 582.649 1 579.316 2.66667 578 4 c 2
 489 82 l 2
 484.33 86.6667 478.663 89.3333 472 90 c 1
 468 88.6667 465.333 87.3333 464 86 c 2
 398 7 l 1
 394.667 1.66667 390.333 -1 385 -1 c 1
 374 4 l 1
 285 82 l 2
 279 86.6667 273.667 89.3333 269 90 c 1
 265 88.6667 262.333 87.3333 261 86 c 2
 194 7 l 2
 188.667 1.66667 184 -1 180 -1 c 0
 178 -1 174.667 0.666667 170 4 c 2
 82 82 l 2
 76.6667 86.6667 71 89.3333 65 90 c 1
 60.3333 88.6667 57.6667 87.3333 57 86 c 2
 0 18 l 1
 0 67 l 1
 108 194 l 1
 118 198 l 2
 118.667 198 120 197.667 122 197 c 128
 124 196.333 128 194 134 190 c 1
 222 112 l 1
 232 107 l 1
 236 107 240.667 109.667 246 115 c 2
 313 194 l 5
 316.333 196.667 319 198 321 198 c 0
 325.667 198 331 195.333 337 190 c 2
 426 112 l 1
 437 107 l 1
 443 108 l 1
 450 115 l 1
 517 194 l 1
 520.333 196.667 522.667 198 524 198 c 4
 528 196.666 530.667 195.333 532 194 c 2
 539 188 l 1
 628 111 l 2
 631.333 107.667 635 106 639 106 c 128
 643 106 647.333 108.667 652 114 c 2
 710 181 l 1
 710 134 l 1
EndSplineSet
Validated: 1
EndChar

StartChar: uniE56A
Encoding: 58730 58730 101
Width: 248
VWidth: 2048
Flags: HW
LayerCount: 2
Fore
SplineSet
126 468 m 4
 195.355 468 242.042 430.486 244 362 c 4
 244 339.333 239 318.333 229 299 c 5
 216.323 278.397 196.949 254.209 180 235 c 5
 156.228 212.438 133.146 189.187 110 166 c 5
 96 150 85 135 77 121 c 132
 69 107 64.667 94.667 64 84 c 4
 64 64.2422 77.5625 56.2812 92 47 c 5
 118 35 l 6
 127.333 31.667 133.667 30 137 30 c 134
 145 30 l 6
 173.667 30 188 43.333 188 70 c 5
 186 79 l 5
 177 90 l 5
 170 97 l 5
 165.971 103.447 162 111.151 162 121 c 4
 162 138.333 171.333 149.333 190 154 c 5
 224.188 154 242.58 127.229 244 96 c 5
 244 73.1699 244.34 70.2891 236 55 c 5
 222.418 22.0186 182.422 0 139 0 c 4
 88.5488 0 52.2373 20.6279 25 49 c 5
 10.333 67 2 85.333 0 104 c 5
 0 130 7 155 21 179 c 4
 26.333 187.667 30 193.667 32 197 c 6
 47 215 l 134
 54.1973 223.638 69.1328 240.24 78 248 c 6
 145 313 l 5
 154 323 l 5
 170 345 l 5
 177.333 358.333 181 370.667 181 382 c 4
 181 419.102 145.129 437 111 437 c 4
 83.04 437 56 425.029 56 398 c 5
 58.1191 391.646 60.7939 387.309 65 381 c 6
 78 363 l 6
 80.667 359.667 82 353.667 82 345 c 4
 82 325.549 64.7598 315.324 45 313 c 5
 16.9492 313 3.28711 341.285 1 371 c 5
 1 414.493 32.4678 440.732 63 456 c 132
 80.333 464.667 101.333 468.667 126 468 c 4
EndSplineSet
Validated: 33
EndChar

StartChar: uniE4AC
Encoding: 58540 58540 103
Width: 274
VWidth: 2048
Flags: HW
LayerCount: 2
Fore
SplineSet
273 0 m 1
 191 0 l 1
 107 154 l 1
 29 0 l 1
 0 0 l 1
 137 265 l 1
 273 0 l 1
EndSplineSet
Validated: 1
EndChar

StartChar: uniE4AD
Encoding: 58541 58541 104
Width: 274
VWidth: 2048
Flags: HW
LayerCount: 2
Fore
SplineSet
1 0 m 1
 83 0 l 1
 167 -154 l 1
 245 0 l 1
 274 0 l 1
 137 -265 l 1
 1 0 l 1
EndSplineSet
Validated: 1
EndChar

StartChar: uniE56B
Encoding: 58731 58731 105
Width: 248
VWidth: 2048
Flags: HW
LayerCount: 2
Fore
SplineSet
118 468 m 4
 48.6445 468 1.95801 430.486 0 362 c 4
 0 339.333 5 318.333 15 299 c 5
 27.6768 278.397 47.0508 254.209 64 235 c 5
 87.7725 212.438 110.854 189.187 134 166 c 5
 148 150 159 135 167 121 c 132
 175 107 179.333 94.667 180 84 c 4
 180 64.2422 166.438 56.2812 152 47 c 5
 126 35 l 6
 116.667 31.667 110.333 30 107 30 c 134
 99 30 l 6
 70.333 30 56 43.333 56 70 c 5
 58 79 l 5
 67 90 l 5
 74 97 l 5
 78.0293 103.447 82 111.151 82 121 c 4
 82 138.333 72.667 149.333 54 154 c 5
 19.8125 154 1.41992 127.229 0 96 c 5
 0 73.1699 -0.339844 70.2891 8 55 c 5
 21.582 22.0186 61.5781 0 105 0 c 4
 155.451 0 191.763 20.6279 219 49 c 5
 233.667 67 242 85.333 244 104 c 5
 244 130 237 155 223 179 c 4
 217.667 187.667 214 193.667 212 197 c 6
 197 215 l 134
 189.803 223.638 174.867 240.24 166 248 c 6
 99 313 l 5
 90 323 l 5
 74 345 l 5
 66.667 358.333 63 370.667 63 382 c 4
 63 419.102 98.8711 437 133 437 c 4
 160.96 437 188 425.029 188 398 c 5
 185.881 391.646 183.206 387.309 179 381 c 6
 166 363 l 6
 163.333 359.667 162 353.667 162 345 c 4
 162 325.549 179.24 315.324 199 313 c 5
 227.051 313 240.713 341.285 243 371 c 5
 243 414.493 211.532 440.732 181 456 c 132
 163.667 464.667 142.667 468.667 118 468 c 4
EndSplineSet
Validated: 41
EndChar

StartChar: uniE938
Encoding: 59704 59704 106
Width: 312
VWidth: 2048
Flags: HW
LayerCount: 2
Fore
SplineSet
155 194 m 5
 312 0 l 5
 155 -192 l 5
 0 0 l 5
 155 194 l 5
EndSplineSet
Validated: 1
EndChar

StartChar: uniE939
Encoding: 59705 59705 107
Width: 312
VWidth: 2048
Flags: HW
LayerCount: 2
Fore
SplineSet
155 194 m 5
 312 0 l 5
 155 -192 l 5
 0 0 l 5
 155 194 l 5
125 111 m 5
 68 38 l 5
 190 -111 l 5
 246 -40 l 5
 125 111 l 5
EndSplineSet
Validated: 1
EndChar

StartChar: uniE93C
Encoding: 59708 59708 108
Width: 312
VWidth: 2048
Flags: HW
LayerCount: 2
Fore
SplineSet
155 194 m 5
 312 0 l 5
 155 -192 l 5
 0 0 l 5
 155 194 l 5
125 111 m 5
 68 38 l 5
 190 -111 l 5
 246 -40 l 5
 125 111 l 5
EndSplineSet
Validated: 1
EndChar

StartChar: uniE93D
Encoding: 59709 59709 109
Width: 312
VWidth: 2048
Flags: HW
LayerCount: 2
Fore
SplineSet
155 194 m 1
 312 0 l 1
 155 -192 l 1
 0 0 l 1
 155 194 l 1
EndSplineSet
Validated: 1
EndChar

StartChar: uniE101
Encoding: 57601 57601 110
Width: 508
VWidth: 2048
Flags: HW
LayerCount: 2
Fore
SplineSet
508 242 m 1
 146 -242 l 1
 0 -242 l 1
 362 242 l 1
 508 242 l 1
EndSplineSet
Validated: 1
EndChar

StartChar: uniE501
Encoding: 58625 58625 111
Width: 751
VWidth: 2048
Flags: HW
LayerCount: 2
Fore
SplineSet
750 242 m 1
 388 -242 l 1
 242 -242 l 1
 604 242 l 1
 750 242 l 1
508 242 m 1
 146 -242 l 1
 0 -242 l 1
 362 242 l 1
 508 242 l 1
52 118 m 4
 52 131.333 56.333 142.667 65 152 c 132
 73.667 161.333 84.333 166.333 97 167 c 5
 111 167 122.667 163 132 155 c 132
 141.333 147 146.333 136 147 122 c 4
 147 108.667 142.667 97.333 134 88 c 132
 125.333 78.667 114.667 73.667 102 73 c 5
 88 73 76.333 77 67 85 c 132
 57.667 93 52.667 104 52 118 c 4
603 -121 m 0
 603 -107.667 607.333 -96.333 616 -87 c 128
 624.667 -77.667 635.334 -72.667 648 -72 c 1
 662 -72 673.667 -76 683 -84 c 128
 692.333 -92 697.333 -103 698 -117 c 0
 698 -130.333 693.667 -141.667 685 -151 c 128
 676.333 -160.333 665.667 -165.333 653 -166 c 1
 639 -166 627.333 -162 618 -154 c 128
 608.667 -146 603.667 -135 603 -121 c 0
EndSplineSet
Validated: 1
EndChar

StartChar: uniE502
Encoding: 58626 58626 112
Width: 1234
VWidth: 2048
Flags: HW
LayerCount: 2
Fore
SplineSet
1234 242 m 1
 872 -242 l 5
 726 -242 l 5
 1088 242 l 1
 1234 242 l 1
992 242 m 1
 630 -242 l 5
 484 -242 l 5
 846 242 l 1
 992 242 l 1
750 242 m 1
 388 -242 l 5
 242 -242 l 5
 604 242 l 1
 750 242 l 1
508 242 m 1
 146 -242 l 5
 0 -242 l 5
 362 242 l 1
 508 242 l 1
52 118 m 0
 52 131.333 56.333 142.667 65 152 c 128
 73.667 161.333 84.333 166.333 97 167 c 1
 111 167 122.667 163 132 155 c 128
 141.333 147 146.333 136 147 122 c 0
 147 108.667 142.667 97.333 134 88 c 128
 125.333 78.667 114.667 73.667 102 73 c 1
 88 73 76.333 77 67 85 c 128
 57.667 93 52.667 104 52 118 c 0
1087 -121 m 0
 1087 -107.667 1091.33 -96.333 1100 -87 c 128
 1108.67 -77.667 1119.33 -72.667 1132 -72 c 1
 1146 -72 1157.67 -76 1167 -84 c 128
 1176.33 -92 1181.33 -103 1182 -117 c 0
 1182 -130.333 1177.67 -141.667 1169 -151 c 128
 1160.33 -160.333 1149.67 -165.333 1137 -166 c 1
 1123 -166 1111.33 -162 1102 -154 c 128
 1092.67 -146 1087.67 -135 1087 -121 c 0
EndSplineSet
Validated: 1
EndChar

StartChar: uniE901
Encoding: 59649 59649 113
Width: 268
VWidth: 2048
Flags: HW
LayerCount: 2
Fore
SplineSet
70.791015625 -131.623046875 m 0
 32.8779296875 -115.063476562 -0.1904296875 -76.48046875 -0.1904296875 -19.654296875 c 0
 -0.1904296875 35.509765625 55.8798828125 93.9599609375 124 103 c 0
 148.905273438 106.3046875 172.900390625 111.299804688 184.599609375 111.299804688 c 1
 188.200195312 122.099609375 192.795898438 135.52734375 197.8984375 152.561523438 c 0
 241.998046875 299.765625 161.401367188 411.067382812 135.025390625 450.142578125 c 1
 83.58203125 385.102539062 55.9228515625 340.765625 45 272.5 c 0
 43 260 35 202 51.06640625 176.03125 c 0
 69.2149434002 146.697071791 47.4658203125 103.131835938 24.06640625 145.431640625 c 0
 11.365234375 168.391601562 -2 185.99609375 0.3447265625 253.696289062 c 0
 2.7998046875 324.599609375 25.4075003976 358.302403045 54.43359375 392.168945312 c 0
 92 436 80 420 118.900390625 460.200195312 c 1
 125.200195312 453 112.293945312 475.40625 59.5 537.900390625 c 0
 40.6015625 560.26953125 3.16183610853 594.442378871 1.9404296875 679.142578125 c 0
 0.798828125 758.30859375 31.9384765625 782.9375 55 806 c 0
 80.4287109375 831.427734375 111.663084192 843.843562918 156.532226562 843.942382812 c 0
 227.920898438 844.099609375 280.819335938 732.973632812 262.8125 636.987304688 c 0
 259.3203125 618.375976562 245.799804688 595.5 231.268554688 571.703125 c 0
 219.025390625 551.654296875 159.671875 482.596679688 152.5 473.900390625 c 1
 176 436 160.3203125 471.291015625 207.081054688 383.4375 c 0
 250.911132812 301.088867188 250.684570312 290.966796875 246.600585938 226.66015625 c 0
 244.1953125 188.779296875 238.868164062 153.688476562 234.905273438 142.029296875 c 0
 232.2890625 134.333984375 229.599609375 123.900390625 226.900390625 111.299804688 c 1
 234.15625 111.299804688 239.918945312 112.241210938 248.427734375 110.016601562 c 0
 278.217773438 102.227539062 273.491210938 74.626953125 242.200195312 70.7998046875 c 0
 233.030273438 69.6787109375 228.700195312 69.900390625 216.099609375 67.2001953125 c 1
 208 51 199.734375 24.7236328125 182.094726562 -20.9990234375 c 0
 163.290039062 -69.744140625 149.05859375 -111.443359375 149.05859375 -113.663085938 c 0
 149.05859375 -115.881835938 157.520507812 -117.696289062 167.865234375 -117.696289062 c 0
 192.749023438 -117.696289062 208.371745254 -97.4820375566 223.75390625 -45.3876953125 c 0
 233.097964909 -13.7424284421 238.825491042 -4.22513392052 249 -7 c 0
 260 -10 256.042167348 -32.2838368033 253.624023438 -54.939453125 c 0
 247 -117 220.915039062 -147.997070312 154.826171875 -146.932617188 c 0
 126.861328125 -146.483398438 89.044921875 -139.592773438 70.791015625 -131.623046875 c 0
145.068359375 -12.4853515625 m 2
 177.2734375 67.626953125 l 1
 115 75 57.1513671875 46.9951171875 55 -24 c 0
 53 -90 90 -92 105.599609375 -103.799804688 c 1
 114 -106 128.709960938 -53.177734375 145.068359375 -12.4853515625 c 2
226 645 m 0
 233.200195312 718.799804688 197.058503855 798.65366581 146 810 c 0
 128 814 106.864257812 825.072265625 61.8642578125 780.072265625 c 0
 27.611328125 745.819335938 29.799663309 633.299692359 82 567.599609375 c 0
 105.211914062 538.384765625 126 509.099609375 144 487.5 c 1
 170.099609375 511.799804688 220.774519488 591.440419402 226 645 c 0
EndSplineSet
Validated: 33
EndChar

StartChar: uniE904
Encoding: 59652 59652 114
Width: 596
VWidth: 2048
Flags: HW
LayerCount: 2
Fore
SplineSet
428 -39 m 1
 374 -106 l 1
 486 -244 l 1
 538 -178 l 1
 428 -39 l 1
428 249 m 1
 374 182 l 1
 486 44 l 1
 538 110 l 1
 428 249 l 1
455 325 m 1
 597 147 l 1
 482.123595506 3 l 1
 597 -141 l 1
 468 -302.704225352 l 1
 468 -883 l 1
 438 -883 l 1
 438 -297.986111111 l 1
 311 -141 l 1
 427.494382022 3 l 1
 311 147 l 1
 455 325 l 1
232 -50 m 1
 232 58 l 1
 33 58 l 1
 33 -50 l 1
 232 -50 l 1
266 -808 m 1
 232 -808 l 1
 232 -115 l 1
 33 -115 l 1
 33 -208 l 1
 0 -208 l 1
 0 209 l 1
 33 209 l 1
 33 123 l 1
 232 123 l 1
 232 209 l 1
 266 209 l 1
 266 -808 l 1
EndSplineSet
Validated: 1
EndChar

StartChar: uniE909
Encoding: 59657 59657 115
Width: 204
VWidth: 2048
Flags: HW
LayerCount: 2
Fore
SplineSet
1.6025390625 206.19921875 m 2
 4.193359375 637.060546875 l 1
 4 662 35 656 35.083984375 637.060546875 c 1
 37.7099609375 433.07421875 l 1
 40.3369140625 115.489257812 l 1
 118.8203125 115.489257812 l 1
 118.8203125 115.489257812 155.400390625 114.099609375 162 120.700195312 c 1
 171.900390625 130.599609375 170.385742188 323.375 170.385742188 323.375 c 1
 174.0703125 545.264648438 l 1
 174.0703125 545.264648438 172.626953125 565.400390625 192.700195312 565.400390625 c 0
 212.5 565.400390625 204.959960938 545.264648438 204.959960938 545.264648438 c 1
 204.959960938 300.939453125 l 1
 204.959960938 300.939453125 204 121.19921875 204 75 c 1
 202.852539062 67.26171875 203.299804688 62.6005859375 200 56 c 1
 193.399414062 49.400390625 191.873046875 48.900390625 183.799804688 48.900390625 c 3
 139.034179688 48.900390625 112.71484375 48.7451171875 112.71484375 48.7451171875 c 1
 44.0693359375 45.876953125 l 1
 44.0693359375 -3.208984375 l 1
 44.0693359375 -51.294921875 l 1
 107.729492188 -54.17578125 l 1
 190.099609375 -56.4658203125 l 1
 190.099609375 -56.4658203125 194.700195312 -55.7001953125 198 -59 c 0
 201.299804688 -62.2998046875 202.989257812 -65.7998046875 202.989257812 -65.7998046875 c 1
 203.989257812 -217.631835938 l 1
 203.989257812 -372.206054688 l 1
 203.989257812 -372.206054688 204 -392 190.799804688 -391.599609375 c 0
 180.986328125 -391.301757812 177 -387 175 -378 c 1
 168.314453125 -240.0703125 l 1
 165.80859375 -134 l 1
 165.80859375 -134 166.400390625 -130.400390625 163.099609375 -127.099609375 c 0
 159.799804688 -123.799804688 154.200195312 -124.935546875 154.200195312 -124.935546875 c 1
 113.889648438 -124.935546875 l 1
 43.646484375 -124.935546875 l 1
 40.865234375 -239.948242188 l 1
 38.083984375 -371.9609375 l 1
 38.083984375 -371.9609375 38 -392 23.2001953125 -391.599609375 c 0
 6.37943217472 -391.144544189 4.400390625 -375.099609375 4.400390625 -375.099609375 c 1
 3.7236328125 -348.99609375 0.1025390625 -117.15625 1.6025390625 206.19921875 c 2
EndSplineSet
Validated: 33
EndChar

StartChar: uniE526
Encoding: 58662 58662 116
Width: 290
VWidth: 2048
Flags: HW
LayerCount: 2
Fore
SplineSet
-39 115 m 1
 -36.626 117.341 -20.3184 150.814 -15 158 c 1
 26 228 l 1
 45 245 40 245 51 250 c 1
 62 256 87 262 102 262 c 0
 123 262 134 243 137 221 c 1
 159 238 186 262 222 262 c 0
 243 262 265 248 265 227 c 2
 265 220 l 1
 202 37 l 1
 202 24 206 17 214 16 c 1
 222 16 231 21 240 31 c 128
 249 41 255 47 256 48 c 0
 260 55 274.633 79.6631 276 83 c 2
 290 124 l 1
 313 124 l 1
 289 61 l 2
 280.696 39.2031 258 16 245 3 c 128
 232 -10 216 -17 199 -18 c 0
 181 -18 165 -13 150 -4 c 1
 134 11 l 1
 131 18 129 23 129 28 c 1
 149 91 173 152 194 214 c 1
 194 221 189 226 179 227 c 1
 163 227 148 212 135 182 c 1
 71 0 l 1
 0 0 l 1
 77 214 l 1
 77 223 71 227 60 227 c 0
 51 227 43 223 38 216 c 128
 33 209 -9 130 -17 115 c 1
 -39 115 l 1
EndSplineSet
Validated: 1
EndChar

StartChar: uniE527
Encoding: 58663 58663 117
Width: 1800
VWidth: 2048
Flags: HW
LayerCount: 2
Fore
SplineSet
1762 169 m 1
 1762 195 1752 215 1726 215 c 0
 1712 215 1702 210 1697 201 c 0
 1685 180 1675 156 1668 129 c 0
 1661 99 1658 78 1658 67 c 0
 1658 43 1665 31 1680 31 c 0
 1707 31 1721 42 1732 58 c 1
 1752 91 1754 90 1758 130 c 0
 1760 148 1761 161 1762 169 c 1
1700 1 m 0
 1678 1 1650 19 1639 35 c 1
 1583 -123 l 1
 1580 -127 l 1
 1583 -134 1587 -137 1592 -138 c 1
 1624 -138 l 1
 1624 -167 l 1
 1451 -167 l 1
 1451 -138 l 1
 1472 -138 l 2
 1476 -138 1481 -136 1486 -133 c 1
 1490 -129 1493 -124 1495 -119 c 2
 1614 212 l 1
 1614 218 l 1
 1611 228 l 1
 1605 231 l 1
 1582 231 1567 206 1557 188 c 1
 1546 171 l 2
 1541.43 162.435 1537.19 153.543 1532.9 144.512 c 1
 1531.77 102.687 1520.85 82.5771 1501 58 c 0
 1478 29 1446 1 1400 1 c 0
 1378 1 1350 19 1339 35 c 1
 1283 -123 l 1
 1280 -127 l 1
 1283 -134 1287 -137 1292 -138 c 1
 1324 -138 l 1
 1324 -167 l 1
 1151 -167 l 1
 1151 -138 l 1
 1172 -138 l 2
 1176 -138 1181 -136 1186 -133 c 1
 1190 -129 1193 -124 1195 -119 c 2
 1314 212 l 1
 1314 218 l 1
 1311 228 l 1
 1305 231 l 1
 1282 231 1267 206 1257 188 c 1
 1246 171 l 2
 1241.43 162.435 1237.19 153.543 1232.9 144.512 c 1
 1231.77 102.687 1220.85 82.5771 1201 58 c 0
 1178 29 1146 1 1100 1 c 0
 1078 1 1050 19 1039 35 c 1
 983 -123 l 1
 980 -127 l 1
 983 -134 987 -137 992 -138 c 1
 1024 -138 l 1
 1024 -167 l 1
 851 -167 l 1
 851 -138 l 1
 872 -138 l 2
 876 -138 881 -136 886 -133 c 1
 890 -129 893 -124 895 -119 c 2
 1014 212 l 1
 1014 218 l 1
 1011 228 l 1
 1005 231 l 1
 982 231 967 206 957 188 c 1
 946 171 l 2
 941.432 162.435 937.19 153.543 932.901 144.512 c 1
 931.766 102.687 920.851 82.5771 901 58 c 0
 878 29 846 1 800 1 c 0
 778 1 750 19 739 35 c 1
 683 -123 l 1
 680 -127 l 1
 683 -134 687 -137 692 -138 c 1
 724 -138 l 1
 724 -167 l 1
 551 -167 l 1
 551 -138 l 1
 572 -138 l 2
 576 -138 581 -136 586 -133 c 1
 590 -129 593 -124 595 -119 c 2
 714 212 l 1
 714 218 l 1
 711 228 l 1
 705 231 l 1
 682 231 667 206 657 188 c 1
 646 171 l 2
 641.432 162.435 637.19 153.543 632.901 144.512 c 1
 631.766 102.687 620.851 82.5771 601 58 c 0
 578 29 546 1 500 1 c 0
 478 1 450 19 439 35 c 1
 383 -123 l 1
 380 -127 l 1
 383 -134 387 -137 392 -138 c 1
 424 -138 l 1
 424 -167 l 1
 251 -167 l 1
 251 -138 l 1
 272 -138 l 2
 276 -138 281 -136 286 -133 c 1
 290 -129 293 -124 295 -119 c 2
 414 212 l 1
 414 218 l 1
 411 228 l 1
 405 231 l 1
 382 231 367 206 357 188 c 1
 346 171 l 2
 341.432 162.435 337.19 153.543 332.901 144.512 c 1
 331.766 102.687 320.851 82.5771 301 58 c 0
 278 29 246 1 200 1 c 0
 178 1 150 19 139 35 c 1
 83 -123 l 1
 80 -127 l 1
 83 -134 87 -137 92 -138 c 1
 124 -138 l 1
 124 -167 l 1
 -49 -167 l 1
 -49 -138 l 1
 -28 -138 l 2
 -24 -138 -19 -136 -14 -133 c 1
 -10 -129 -7 -124 -5 -119 c 2
 114 212 l 1
 114 218 l 1
 111 228 l 1
 105 231 l 1
 82 231 67 206 57 188 c 1
 46 171 l 1
 38 156 31 140 23 124 c 1
 0 124 l 1
 22 167 43 200 62 225 c 0
 81 250 107 262 138 263 c 0
 152 263 166 240 166 223 c 1
 190 237 l 1
 215 250 l 1
 227 255 239 257 252 257 c 0
 297.295 257 322.889 223.229 330.555 178.702 c 1
 341.491 196.534 352.022 211.87 362 225 c 0
 381 250 407 262 438 263 c 0
 452 263 466 240 466 223 c 1
 490 237 l 1
 515 250 l 1
 527 255 539 257 552 257 c 0
 597.295 257 622.889 223.229 630.555 178.702 c 1
 641.492 196.534 652.022 211.87 662 225 c 0
 681 250 707 262 738 263 c 0
 752 263 766 240 766 223 c 1
 790 237 l 1
 815 250 l 1
 827 255 839 257 852 257 c 0
 897.295 257 922.889 223.229 930.555 178.702 c 1
 941.492 196.534 952.022 211.87 962 225 c 0
 981 250 1007 262 1038 263 c 0
 1052 263 1066 240 1066 223 c 1
 1090 237 l 1
 1115 250 l 1
 1127 255 1139 257 1152 257 c 0
 1197.29 257 1222.89 223.229 1230.55 178.702 c 1
 1241.49 196.534 1252.02 211.87 1262 225 c 0
 1281 250 1307 262 1338 263 c 0
 1352 263 1366 240 1366 223 c 1
 1390 237 l 1
 1415 250 l 1
 1427 255 1439 257 1452 257 c 0
 1497.29 257 1522.89 223.229 1530.55 178.702 c 1
 1541.49 196.534 1552.02 211.87 1562 225 c 0
 1581 250 1607 262 1638 263 c 0
 1652 263 1666 240 1666 223 c 1
 1690 237 l 1
 1715 250 l 1
 1727 255 1739 257 1752 257 c 0
 1806 257 1832 209 1833 152 c 0
 1833 105 1822 84 1801 58 c 0
 1778 29 1746 1 1700 1 c 0
1462 169 m 1
 1462 195 1452 215 1426 215 c 0
 1412 215 1402 210 1397 201 c 0
 1385 180 1375 156 1368 129 c 0
 1361 99 1358 78 1358 67 c 0
 1358 43 1365 31 1380 31 c 0
 1407 31 1421 42 1432 58 c 1
 1452 91 1454 90 1458 130 c 0
 1460 148 1461 161 1462 169 c 1
1162 169 m 1
 1162 195 1152 215 1126 215 c 0
 1112 215 1102 210 1097 201 c 0
 1085 180 1075 156 1068 129 c 0
 1061 99 1058 78 1058 67 c 0
 1058 43 1065 31 1080 31 c 0
 1107 31 1121 42 1132 58 c 1
 1152 91 1154 90 1158 130 c 0
 1160 148 1161 161 1162 169 c 1
862 169 m 1
 862 195 852 215 826 215 c 0
 812 215 802 210 797 201 c 0
 785 180 775 156 768 129 c 0
 761 99 758 78 758 67 c 0
 758 43 765 31 780 31 c 0
 807 31 821 42 832 58 c 1
 852 91 854 90 858 130 c 0
 860 148 861 161 862 169 c 1
562 169 m 1
 562 195 552 215 526 215 c 0
 512 215 502 210 497 201 c 0
 485 180 475 156 468 129 c 0
 461 99 458 78 458 67 c 0
 458 43 465 31 480 31 c 0
 507 31 521 42 532 58 c 1
 552 91 554 90 558 130 c 0
 560 148 561 161 562 169 c 1
262 169 m 1
 262 195 252 215 226 215 c 0
 212 215 202 210 197 201 c 0
 185 180 175 156 168 129 c 0
 161 99 158 78 158 67 c 0
 158 43 165 31 180 31 c 0
 207 31 221 42 232 58 c 1
 252 91 254 90 258 130 c 0
 260 148 261 161 262 169 c 1
EndSplineSet
Validated: 1
EndChar

StartChar: uniE52B
Encoding: 58667 58667 118
Width: 600
VWidth: 2048
Flags: HW
LayerCount: 2
Fore
SplineSet
497 201 m 4
 485 180.333 475.333 156.333 468 129 c 5
 461.333 99 458 78.333 458 67 c 4
 458 43 465.333 31 480 31 c 4
 492.667 31 503 33.333 511 38 c 4
 519 42.667 526 49.333 532 58 c 4
 542 74.667 547.333 84 548 86 c 4
 552.667 97.333 556 112 558 130 c 4
 560 148 561.333 161 562 169 c 4
 562 176.333 561.333 182.333 560 187 c 4
 558.667 191.667 556.667 196.334 554 201 c 4
 548.667 210.333 539.333 215 526 215 c 4
 512 215 502.333 210.333 497 201 c 4
197 201 m 4
 185 180.333 175.333 156.333 168 129 c 5
 161.333 99 158 78.333 158 67 c 4
 158 43 165.333 31 180 31 c 4
 192.667 31 203 33.333 211 38 c 4
 219 42.667 226 49.333 232 58 c 4
 242 74.667 247.333 84 248 86 c 4
 252.667 97.333 256 112 258 130 c 4
 260 148 261.333 161 262 169 c 4
 262 176.333 261.333 182.333 260 187 c 4
 258.667 191.667 256.667 196.334 254 201 c 4
 248.667 210.333 239.333 215 226 215 c 4
 212 215 202.333 210.333 197 201 c 4
23 124 m 5
 0 124 l 5
 22 166.667 42.667 200.333 62 225 c 4
 81.333 249.667 106.667 262.333 138 263 c 4
 144 263 150 258.667 156 250 c 5
 162.667 243.333 166 234.333 166 223 c 5
 190 237 l 5
 215 250 l 5
 227 254.667 239.333 257 252 257 c 4
 276 257 295.333 247.667 310 229 c 4
 320.361 215.814 327.228 199.135 330.603 178.963 c 5
 341.433 196.766 351.899 212.111 362 225 c 4
 381.333 249.667 406.667 262.333 438 263 c 4
 444 263 450 258.667 456 250 c 5
 462.667 243.333 466 234.333 466 223 c 5
 490 237 l 5
 515 250 l 5
 527 254.667 539.333 257 552 257 c 4
 576 257 595.333 247.667 610 229 c 4
 624.667 210.333 632.333 184.667 633 152 c 4
 633 138 632 125.333 630 114 c 4
 628 102.667 624.667 93 620 85 c 4
 615.333 77 609 68 601 58 c 4
 587 40 571.333 26 554 16 c 4
 536.667 6 518.667 1 500 1 c 4
 491.333 1 480.333 4.33301 467 11 c 4
 461.667 14.333 456.667 17.667 452 21 c 4
 447.333 24.333 443 29 439 35 c 5
 383 -123 l 5
 380 -127 l 5
 382.667 -133.667 386.667 -137.333 392 -138 c 6
 424 -138 l 5
 424 -167 l 5
 251 -167 l 5
 251 -138 l 5
 272 -138 l 6
 276 -138 280.667 -136.333 286 -133 c 5
 290 -129 293 -124.333 295 -119 c 6
 414 212 l 5
 414 218 l 5
 411 228 l 5
 405 231 l 5
 396.333 231 388 227 380 219 c 4
 372 211 364.333 200.667 357 188 c 6
 346 171 l 5
 336 151 l 5
 332.903 144.567 l 5
 332.607 133.482 331.64 123.292 330 114 c 4
 328 102.667 324.667 93 320 85 c 4
 315.333 77 309 68 301 58 c 4
 287 40 271.333 26 254 16 c 4
 236.667 6 218.667 1 200 1 c 4
 191.333 1 180.333 4.33301 167 11 c 4
 161.667 14.333 156.667 17.667 152 21 c 4
 147.333 24.333 143 29 139 35 c 5
 83 -123 l 5
 80 -127 l 5
 82.667 -133.667 86.667 -137.333 92 -138 c 6
 124 -138 l 5
 124 -167 l 5
 -49 -167 l 5
 -49 -138 l 5
 -28 -138 l 6
 -24 -138 -19.333 -136.333 -14 -133 c 5
 -10 -129 -7 -124.333 -5 -119 c 6
 114 212 l 5
 114 218 l 5
 111 228 l 5
 105 231 l 5
 96.333 231 88 227 80 219 c 4
 72 211 64.333 200.667 57 188 c 6
 46 171 l 5
 36 151 l 5
 23 124 l 5
EndSplineSet
Validated: 1
EndChar

StartChar: uniE52A
Encoding: 58666 58666 119
Width: 900
VWidth: 2048
Flags: HW
LayerCount: 2
Fore
SplineSet
262 169 m 1
 262 195 252 215 226 215 c 0
 212 215 202 210 197 201 c 0
 185 180 175 156 168 129 c 0
 161 99 158 78 158 67 c 0
 158 43 165 31 180 31 c 0
 207 31 221 42 232 58 c 1
 252 91 254 90 258 130 c 0
 260 148 261 161 262 169 c 1
200 1 m 0
 178 1 150 19 139 35 c 1
 83 -123 l 1
 80 -127 l 1
 83 -134 87 -137 92 -138 c 1
 124 -138 l 1
 124 -167 l 1
 -49 -167 l 1
 -49 -138 l 1
 -28 -138 l 2
 -24 -138 -19 -136 -14 -133 c 1
 -10 -129 -7 -124 -5 -119 c 2
 114 212 l 1
 114 218 l 1
 111 228 l 1
 105 231 l 1
 82 231 67 206 57 188 c 1
 46 171 l 1
 38 156 31 140 23 124 c 1
 0 124 l 1
 22 167 43 200 62 225 c 0
 81 250 107 262 138 263 c 0
 152 263 166 240 166 223 c 1
 190 237 l 1
 215 250 l 1
 227 255 239 257 252 257 c 0
 297.295 257 322.889 223.229 330.555 178.702 c 1
 341.491 196.534 352.022 211.87 362 225 c 0
 381 250 407 262 438 263 c 0
 452 263 466 240 466 223 c 1
 490 237 l 1
 515 250 l 1
 527 255 539 257 552 257 c 0
 597.295 257 622.889 223.229 630.555 178.702 c 1
 641.492 196.534 652.022 211.87 662 225 c 0
 681 250 707 262 738 263 c 0
 752 263 766 240 766 223 c 1
 790 237 l 1
 815 250 l 1
 827 255 839 257 852 257 c 0
 906 257 932 209 933 152 c 0
 933 105 922 84 901 58 c 0
 878 29 846 1 800 1 c 0
 778 1 750 19 739 35 c 1
 683 -123 l 1
 680 -127 l 1
 683 -134 687 -137 692 -138 c 1
 724 -138 l 1
 724 -167 l 1
 551 -167 l 1
 551 -138 l 1
 572 -138 l 2
 576 -138 581 -136 586 -133 c 1
 590 -129 593 -124 595 -119 c 2
 714 212 l 1
 714 218 l 1
 711 228 l 1
 705 231 l 1
 682 231 667 206 657 188 c 1
 646 171 l 2
 641.432 162.435 637.19 153.543 632.901 144.512 c 1
 631.766 102.687 620.851 82.5771 601 58 c 0
 578 29 546 1 500 1 c 0
 478 1 450 19 439 35 c 1
 383 -123 l 1
 380 -127 l 1
 383 -134 387 -137 392 -138 c 1
 424 -138 l 1
 424 -167 l 1
 251 -167 l 1
 251 -138 l 1
 272 -138 l 2
 276 -138 281 -136 286 -133 c 1
 290 -129 293 -124 295 -119 c 2
 414 212 l 1
 414 218 l 1
 411 228 l 1
 405 231 l 1
 382 231 367 206 357 188 c 1
 346 171 l 2
 341.432 162.435 337.19 153.543 332.901 144.512 c 1
 331.766 102.687 320.851 82.5771 301 58 c 0
 278 29 246 1 200 1 c 0
858 130 m 0
 860 148 861 161 862 169 c 1
 862 195 852 215 826 215 c 0
 812 215 802 210 797 201 c 0
 785 180 775 156 768 129 c 0
 761 99 758 78 758 67 c 0
 758 43 765 31 780 31 c 0
 807 31 821 42 832 58 c 1
 852 91 854 90 858 130 c 0
558 130 m 0
 560 148 561 161 562 169 c 1
 562 195 552 215 526 215 c 0
 512 215 502 210 497 201 c 0
 485 180 475 156 468 129 c 0
 461 99 458 78 458 67 c 0
 458 43 465 31 480 31 c 0
 507 31 521 42 532 58 c 1
 552 91 554 90 558 130 c 0
EndSplineSet
Validated: 1
EndChar

StartChar: uniE529
Encoding: 58665 58665 120
Width: 1200
VWidth: 2048
Flags: HW
LayerCount: 2
Fore
SplineSet
1162 169 m 1
 1162 195 1152 215 1126 215 c 0
 1112 215 1102 210 1097 201 c 0
 1085 180 1075 156 1068 129 c 0
 1061 99 1058 78 1058 67 c 0
 1058 43 1065 31 1080 31 c 0
 1107 31 1121 42 1132 58 c 1
 1152 91 1154 90 1158 130 c 0
 1160 148 1161 161 1162 169 c 1
1100 1 m 0
 1078 1 1050 19 1039 35 c 1
 983 -123 l 1
 980 -127 l 1
 983 -134 987 -137 992 -138 c 1
 1024 -138 l 1
 1024 -167 l 1
 851 -167 l 1
 851 -138 l 1
 872 -138 l 2
 876 -138 881 -136 886 -133 c 1
 890 -129 893 -124 895 -119 c 2
 1014 212 l 1
 1014 218 l 1
 1011 228 l 1
 1005 231 l 1
 982 231 967 206 957 188 c 1
 946 171 l 2
 941.432 162.435 937.19 153.543 932.901 144.512 c 1
 931.766 102.687 920.851 82.5771 901 58 c 0
 878 29 846 1 800 1 c 0
 778 1 750 19 739 35 c 1
 683 -123 l 1
 680 -127 l 1
 683 -134 687 -137 692 -138 c 1
 724 -138 l 1
 724 -167 l 1
 551 -167 l 1
 551 -138 l 1
 572 -138 l 2
 576 -138 581 -136 586 -133 c 1
 590 -129 593 -124 595 -119 c 2
 714 212 l 1
 714 218 l 1
 711 228 l 1
 705 231 l 1
 682 231 667 206 657 188 c 1
 646 171 l 2
 641.432 162.435 637.19 153.543 632.901 144.512 c 1
 631.766 102.687 620.851 82.5771 601 58 c 0
 578 29 546 1 500 1 c 0
 478 1 450 19 439 35 c 1
 383 -123 l 1
 380 -127 l 1
 383 -134 387 -137 392 -138 c 1
 424 -138 l 1
 424 -167 l 1
 251 -167 l 1
 251 -138 l 1
 272 -138 l 2
 276 -138 281 -136 286 -133 c 1
 290 -129 293 -124 295 -119 c 2
 414 212 l 1
 414 218 l 1
 411 228 l 1
 405 231 l 1
 382 231 367 206 357 188 c 1
 346 171 l 2
 341.432 162.435 337.19 153.543 332.901 144.512 c 1
 331.766 102.687 320.851 82.5771 301 58 c 0
 278 29 246 1 200 1 c 0
 178 1 150 19 139 35 c 1
 83 -123 l 1
 80 -127 l 1
 83 -134 87 -137 92 -138 c 1
 124 -138 l 1
 124 -167 l 1
 -49 -167 l 1
 -49 -138 l 1
 -28 -138 l 2
 -24 -138 -19 -136 -14 -133 c 1
 -10 -129 -7 -124 -5 -119 c 2
 114 212 l 1
 114 218 l 1
 111 228 l 1
 105 231 l 1
 82 231 67 206 57 188 c 1
 46 171 l 1
 38 156 31 140 23 124 c 1
 0 124 l 1
 22 167 43 200 62 225 c 0
 81 250 107 262 138 263 c 0
 152 263 166 240 166 223 c 1
 190 237 l 1
 215 250 l 1
 227 255 239 257 252 257 c 0
 297.295 257 322.889 223.229 330.555 178.702 c 1
 341.491 196.534 352.022 211.87 362 225 c 0
 381 250 407 262 438 263 c 0
 452 263 466 240 466 223 c 1
 490 237 l 1
 515 250 l 1
 527 255 539 257 552 257 c 0
 597.295 257 622.889 223.229 630.555 178.702 c 1
 641.492 196.534 652.022 211.87 662 225 c 0
 681 250 707 262 738 263 c 0
 752 263 766 240 766 223 c 1
 790 237 l 1
 815 250 l 1
 827 255 839 257 852 257 c 0
 897.295 257 922.889 223.229 930.555 178.702 c 1
 941.492 196.534 952.022 211.87 962 225 c 0
 981 250 1007 262 1038 263 c 0
 1052 263 1066 240 1066 223 c 1
 1090 237 l 1
 1115 250 l 1
 1127 255 1139 257 1152 257 c 0
 1206 257 1232 209 1233 152 c 0
 1233 105 1222 84 1201 58 c 0
 1178 29 1146 1 1100 1 c 0
862 169 m 1
 862 195 852 215 826 215 c 0
 812 215 802 210 797 201 c 0
 785 180 775 156 768 129 c 0
 761 99 758 78 758 67 c 0
 758 43 765 31 780 31 c 0
 807 31 821 42 832 58 c 1
 852 91 854 90 858 130 c 0
 860 148 861 161 862 169 c 1
562 169 m 1
 562 195 552 215 526 215 c 0
 512 215 502 210 497 201 c 0
 485 180 475 156 468 129 c 0
 461 99 458 78 458 67 c 0
 458 43 465 31 480 31 c 0
 507 31 521 42 532 58 c 1
 552 91 554 90 558 130 c 0
 560 148 561 161 562 169 c 1
262 169 m 1
 262 195 252 215 226 215 c 0
 212 215 202 210 197 201 c 0
 185 180 175 156 168 129 c 0
 161 99 158 78 158 67 c 0
 158 43 165 31 180 31 c 0
 207 31 221 42 232 58 c 1
 252 91 254 90 258 130 c 0
 260 148 261 161 262 169 c 1
EndSplineSet
Validated: 1
EndChar

StartChar: uniE528
Encoding: 58664 58664 121
Width: 1500
VWidth: 2048
Flags: HW
LayerCount: 2
Fore
SplineSet
1462 169 m 1
 1462 195 1452 215 1426 215 c 0
 1412 215 1402 210 1397 201 c 0
 1385 180 1375 156 1368 129 c 0
 1361 99 1358 78 1358 67 c 0
 1358 43 1365 31 1380 31 c 0
 1407 31 1421 42 1432 58 c 1
 1452 91 1454 90 1458 130 c 0
 1460 148 1461 161 1462 169 c 1
1400 1 m 0
 1378 1 1350 19 1339 35 c 1
 1283 -123 l 1
 1280 -127 l 1
 1283 -134 1287 -137 1292 -138 c 1
 1324 -138 l 1
 1324 -167 l 1
 1151 -167 l 1
 1151 -138 l 1
 1172 -138 l 2
 1176 -138 1181 -136 1186 -133 c 1
 1190 -129 1193 -124 1195 -119 c 2
 1314 212 l 1
 1314 218 l 1
 1311 228 l 1
 1305 231 l 1
 1282 231 1267 206 1257 188 c 1
 1246 171 l 2
 1241.43 162.435 1237.19 153.543 1232.9 144.512 c 1
 1231.77 102.687 1220.85 82.5771 1201 58 c 0
 1178 29 1146 1 1100 1 c 0
 1078 1 1050 19 1039 35 c 1
 983 -123 l 1
 980 -127 l 1
 983 -134 987 -137 992 -138 c 1
 1024 -138 l 1
 1024 -167 l 1
 851 -167 l 1
 851 -138 l 1
 872 -138 l 2
 876 -138 881 -136 886 -133 c 1
 890 -129 893 -124 895 -119 c 2
 1014 212 l 1
 1014 218 l 1
 1011 228 l 1
 1005 231 l 1
 982 231 967 206 957 188 c 1
 946 171 l 2
 941.432 162.435 937.19 153.543 932.901 144.512 c 1
 931.766 102.687 920.851 82.5771 901 58 c 0
 878 29 846 1 800 1 c 0
 778 1 750 19 739 35 c 1
 683 -123 l 1
 680 -127 l 1
 683 -134 687 -137 692 -138 c 1
 724 -138 l 1
 724 -167 l 1
 551 -167 l 1
 551 -138 l 1
 572 -138 l 2
 576 -138 581 -136 586 -133 c 1
 590 -129 593 -124 595 -119 c 2
 714 212 l 1
 714 218 l 1
 711 228 l 1
 705 231 l 1
 682 231 667 206 657 188 c 1
 646 171 l 2
 641.432 162.435 637.19 153.543 632.901 144.512 c 1
 631.766 102.687 620.851 82.5771 601 58 c 0
 578 29 546 1 500 1 c 0
 478 1 450 19 439 35 c 1
 383 -123 l 1
 380 -127 l 1
 383 -134 387 -137 392 -138 c 1
 424 -138 l 1
 424 -167 l 1
 251 -167 l 1
 251 -138 l 1
 272 -138 l 2
 276 -138 281 -136 286 -133 c 1
 290 -129 293 -124 295 -119 c 2
 414 212 l 1
 414 218 l 1
 411 228 l 1
 405 231 l 1
 382 231 367 206 357 188 c 1
 346 171 l 2
 341.432 162.435 337.19 153.543 332.901 144.512 c 1
 331.766 102.687 320.851 82.5771 301 58 c 0
 278 29 246 1 200 1 c 0
 178 1 150 19 139 35 c 1
 83 -123 l 1
 80 -127 l 1
 83 -134 87 -137 92 -138 c 1
 124 -138 l 1
 124 -167 l 1
 -49 -167 l 1
 -49 -138 l 1
 -28 -138 l 2
 -24 -138 -19 -136 -14 -133 c 1
 -10 -129 -7 -124 -5 -119 c 2
 114 212 l 1
 114 218 l 1
 111 228 l 1
 105 231 l 1
 82 231 67 206 57 188 c 1
 46 171 l 1
 38 156 31 140 23 124 c 1
 0 124 l 1
 22 167 43 200 62 225 c 0
 81 250 107 262 138 263 c 0
 152 263 166 240 166 223 c 1
 190 237 l 1
 215 250 l 1
 227 255 239 257 252 257 c 0
 297.295 257 322.889 223.229 330.555 178.702 c 1
 341.491 196.534 352.022 211.87 362 225 c 0
 381 250 407 262 438 263 c 0
 452 263 466 240 466 223 c 1
 490 237 l 1
 515 250 l 1
 527 255 539 257 552 257 c 0
 597.295 257 622.889 223.229 630.555 178.702 c 1
 641.492 196.534 652.022 211.87 662 225 c 0
 681 250 707 262 738 263 c 0
 752 263 766 240 766 223 c 1
 790 237 l 1
 815 250 l 1
 827 255 839 257 852 257 c 0
 897.295 257 922.889 223.229 930.555 178.702 c 1
 941.492 196.534 952.022 211.87 962 225 c 0
 981 250 1007 262 1038 263 c 0
 1052 263 1066 240 1066 223 c 1
 1090 237 l 1
 1115 250 l 1
 1127 255 1139 257 1152 257 c 0
 1197.29 257 1222.89 223.229 1230.55 178.702 c 1
 1241.49 196.534 1252.02 211.87 1262 225 c 0
 1281 250 1307 262 1338 263 c 0
 1352 263 1366 240 1366 223 c 1
 1390 237 l 1
 1415 250 l 1
 1427 255 1439 257 1452 257 c 0
 1506 257 1532 209 1533 152 c 0
 1533 105 1522 84 1501 58 c 0
 1478 29 1446 1 1400 1 c 0
1162 169 m 1
 1162 195 1152 215 1126 215 c 0
 1112 215 1102 210 1097 201 c 0
 1085 180 1075 156 1068 129 c 0
 1061 99 1058 78 1058 67 c 0
 1058 43 1065 31 1080 31 c 0
 1107 31 1121 42 1132 58 c 1
 1152 91 1154 90 1158 130 c 0
 1160 148 1161 161 1162 169 c 1
862 169 m 1
 862 195 852 215 826 215 c 0
 812 215 802 210 797 201 c 0
 785 180 775 156 768 129 c 0
 761 99 758 78 758 67 c 0
 758 43 765 31 780 31 c 0
 807 31 821 42 832 58 c 1
 852 91 854 90 858 130 c 0
 860 148 861 161 862 169 c 1
562 169 m 1
 562 195 552 215 526 215 c 0
 512 215 502 210 497 201 c 0
 485 180 475 156 468 129 c 0
 461 99 458 78 458 67 c 0
 458 43 465 31 480 31 c 0
 507 31 521 42 532 58 c 1
 552 91 554 90 558 130 c 0
 560 148 561 161 562 169 c 1
262 169 m 1
 262 195 252 215 226 215 c 0
 212 215 202 210 197 201 c 0
 185 180 175 156 168 129 c 0
 161 99 158 78 158 67 c 0
 158 43 165 31 180 31 c 0
 207 31 221 42 232 58 c 1
 252 91 254 90 258 130 c 0
 260 148 261 161 262 169 c 1
EndSplineSet
Validated: 1
EndChar

StartChar: uniE533
Encoding: 58675 58675 122
Width: 1390
VWidth: 2048
Flags: HW
LayerCount: 2
Fore
SplineSet
-94 -69 m 0
 -72.6142 -69 -59 -99.9216 -59 -120 c 0
 -59 -140.113 -71.6027 -151.814 -80 -165 c 0
 -84.6641 -172.333 -88.3301 -177 -91 -179 c 0
 -96.5211 -186.362 -92.3376 -188.966 -82 -190 c 1
 -46.9243 -190 -27.7785 -135.5 -15 -101 c 0
 -8.33301 -83 -3.33301 -65.667 0 -49 c 0
 20.7062 39.2938 38.6638 130.336 58 220 c 1
 0 220 l 1
 0 258 l 1
 70 258 l 1
 83.4288 295.847 92.9568 322.66 110 349 c 0
 130.666 379 152.333 402 175 418 c 0
 197.667 434 222.667 442 250 442 c 0
 278.318 442 295.595 428.326 301 404 c 2
 305 388 l 1
 305 354.861 303.997 351.993 292 328 c 0
 288.862 320.94 274.617 302.946 261 301 c 0
 235.46 297.35 228.809 311.048 225 332 c 1
 225 359.279 236.326 376.217 254 388 c 2
 268 398 l 1
 268 420.553 228.996 415.278 216 406 c 0
 185.968 384.547 167.916 302.68 156 258 c 1
 233.5 257.5 l 1
 229 220 l 1
 148 220 l 1
 128.986 111.195 87.9391 -34.5585 45 -117 c 0
 21.3431 -163.132 -19.3023 -223 -72 -223 c 0
 -116.617 -223 -143 -186.317 -143 -140 c 0
 -143 -108.178 -127.689 -69 -94 -69 c 0
1014 -140 m 0
 1014 -186.313 1040.38 -223 1085 -223 c 0
 1137.61 -223 1178.41 -163.005 1202 -117 c 0
 1244.82 -34.7948 1286.03 111.455 1305 220 c 1
 1390 220 l 1
 1390 260 l 1
 1313 260 l 1
 1318.09 279.062 1337.12 345.319 1344 363 c 1
 1354 385 1363.67 399.333 1373 406 c 0
 1386.03 415.304 1425 420.563 1425 398 c 1
 1411 388 l 2
 1393.31 376.208 1382 359.297 1382 332 c 1
 1385.7 311.603 1391.71 297.245 1418 301 c 0
 1431.61 302.945 1445.87 320.96 1449 328 c 0
 1460.99 351.987 1462 354.851 1462 388 c 1
 1458 404 l 2
 1455.02 417.46 1440.58 435.473 1430 439 c 0
 1424 441 1416.33 442 1407 442 c 0
 1379.67 442 1354.67 434 1332 418 c 0
 1297.66 393.767 1264.75 353.489 1245 305 c 0
 1240.33 294.333 1234.33 278.667 1227 258 c 1
 1079 258 l 1
 1084.1 277.121 1103.09 345.222 1110 363 c 1
 1120 385 1129.67 399.333 1139 406 c 0
 1152.03 415.302 1191 420.565 1191 398 c 1
 1177 388 l 2
 1159.33 376.216 1148 359.28 1148 332 c 1
 1151.71 311.613 1157.71 297.242 1184 301 c 0
 1197.62 302.946 1211.86 320.94 1215 328 c 0
 1227 351.993 1228 354.861 1228 388 c 1
 1224 404 l 2
 1218.6 428.326 1201.32 442 1173 442 c 0
 1145.67 442 1120.67 434 1098 418 c 0
 1075.33 402 1053.67 379 1033 349 c 0
 1015.96 322.661 1006.43 295.847 993 258 c 1
 847 258 l 1
 868 362 898 414 935 414 c 0
 948 414 954 409 959 400 c 1
 959 396 957 394 953 394 c 1
 936 384 918 358 918 332 c 1
 920 311 929 300 945 300 c 1
 977 306 996 337 996 374 c 0
 996 408 981 444 947 444 c 0
 902 444 864 426 833 390 c 0
 800 351 776 307 761 258 c 1
 617 258 l 1
 638 362 668 414 705 414 c 0
 717 414 724 410 728 400 c 1
 728 396 726 394 723 394 c 1
 704 383 686 361 686 332 c 1
 688 311 698 300 716 300 c 1
 733 305 745 313 753 325 c 1
 762 341 766 358 766 376 c 1
 764 411 753 442 717 442 c 0
 617 442 555 344 532 260 c 1
 388 260 l 1
 395 299 406 334 420 366 c 0
 434 398 452 414 475 414 c 0
 482 414 488 412 493 409 c 1
 499 400 l 1
 499 396 497 394 494 394 c 1
 474 385 457 359 457 332 c 1
 459 311 469 300 486 300 c 1
 517 306 536 338 536 376 c 0
 536 412 520 442 487 442 c 0
 457 442 429 434 404 417 c 1
 379 398 358 375 341 347 c 0
 324 320 315 291 306 258 c 1
 226 258 l 1
 228.5 220.5 l 1
 289 220 l 1
 286 208 283 195 280 182 c 0
 264 104 247 26 230 -51 c 1
 215 -104 l 1
 204 -129 196 -160 178 -175 c 1
 169 -185 159 -190 148 -190 c 0
 141 -190 138 -188 138 -183 c 1
 152 -164 l 1
 166 -141 l 2
 170 -134 172 -126 172 -118 c 0
 172 -95 157 -69 134 -69 c 1
 101 -81 93 -97 88 -136 c 1
 93 -169 l 1
 105 -199 121 -223 156 -223 c 1
 175 -221 l 1
 215 -211 252 -170 285 -98 c 1
 316 -35 365 135 378 220 c 1
 519 220 l 1
 499.772 129.774 481.424 37.7559 460 -51 c 1
 439 -144 412 -190 378 -190 c 0
 372 -190 369 -188 369 -183 c 1
 390 -154 401 -133 401 -118 c 0
 401 -98.0508 392.846 -78.9385 378 -73 c 1
 375 -70 370 -69 364 -69 c 1
 337 -83 319 -97 319 -136 c 0
 319 -183 342 -223 386 -223 c 1
 404 -221 l 1
 431 -214 452 -199 469 -177 c 0
 486 -155 501 -129 516 -98 c 1
 549 -36 595 131 609 220 c 1
 749 220 l 1
 731 134 l 1
 717 72 704 11 690 -51 c 1
 680 -88 670 -116 657 -148 c 1
 644 -176 628 -190 609 -190 c 0
 602 -190 599 -188 599 -183 c 1
 604 -174 605 -172 612 -162 c 2
 622 -147 l 2
 627 -139 631 -124 631 -116 c 0
 630 -92 618 -69 595 -69 c 1
 564 -79 553 -99 549 -136 c 1
 549 -148 551 -159 555 -169 c 1
 564 -200 582 -223 617 -223 c 1
 635 -221 l 1
 690.296 -203.305 720.052 -146.436 746 -98 c 1
 773 -42 794 24 812 99 c 1
 823 136 831 176 838 220 c 1
 981 220 l 1
 961.664 130.336 943.706 39.2939 923 -49 c 0
 919.667 -65.667 914.667 -83 908 -101 c 0
 895.221 -135.5 876.075 -190 841 -190 c 1
 818.858 -187.785 836.124 -175.811 843 -165 c 0
 851.398 -151.813 864 -140.113 864 -120 c 0
 864 -99.9219 850.386 -69 829 -69 c 0
 795.31 -69 780 -108.178 780 -140 c 0
 780 -186.317 806.383 -223 851 -223 c 0
 903.698 -223 944.343 -163.132 968 -117 c 0
 1010.94 -34.5586 1051.99 111.195 1071 220 c 1
 1215 220 l 1
 1171 12 l 1
 1157 -49 l 2
 1150.42 -81.9016 1134.77 -122.182 1122 -149 c 0
 1109.33 -176.333 1093.67 -190 1075 -190 c 1
 1052.86 -187.785 1070.12 -175.813 1077 -165 c 0
 1085.4 -151.804 1098 -140.122 1098 -120 c 0
 1098 -99.9207 1084.38 -69 1063 -69 c 0
 1029.32 -69 1014 -108.183 1014 -140 c 0
EndSplineSet
Validated: 37
EndChar

StartChar: uniE52C
Encoding: 58668 58668 123
Width: 711
VWidth: 2048
Flags: HW
LayerCount: 2
Fore
SplineSet
605 1 m 0
 583.079 1 554.652 19.0217 544 35 c 1
 488 -123 l 1
 485 -127 l 1
 487.667 -133.667 491.667 -137.333 497 -138 c 2
 529 -138 l 1
 529 -167 l 1
 356 -167 l 1
 356 -138 l 1
 377 -138 l 2
 381 -138 385.667 -136.333 391 -133 c 1
 395 -129 398 -124.333 400 -119 c 2
 519 212 l 1
 519 218 l 1
 516 228 l 1
 510 231 l 1
 487.432 231 472.151 205.534 462 188 c 1
 451 171 l 1
 441 151 l 1
 428.371 121.295 416.258 91.0756 404 61 c 0
 395.211 39.3936 373 16 360 3 c 0
 347 -10 331 -17 314 -18 c 1
 296 -18 280 -13 265 -4 c 1
 249 11 l 1
 246 18 244 23 244 28 c 1
 264 91 288 152 309 214 c 1
 309 221 304 226 294 227 c 1
 278 227 263 212 250 182 c 1
 186 0 l 1
 115 0 l 1
 192 214 l 1
 192 223 186 227 175 227 c 0
 166 227 158 223 153 216 c 0
 148 209 141 197 133 182 c 1
 69 0 l 1
 0 0 l 1
 77 210 l 1
 77 214 l 2
 77 224 72 226 65 230 c 1
 40 230 13 183 -1 157 c 0
 -6 148 -13 134 -22 115 c 1
 -44 115 l 1
 -25 154 -4 191 20 222 c 0
 41 249 67 262 99 262 c 0
 120 262 130 243 133 221 c 1
 152 238 167 248 178 253 c 0
 189 259 202 262 217 262 c 0
 238 262 249 243 252 221 c 1
 274 238 301 262 337 262 c 0
 358 262 380 248 380 227 c 2
 380 220 l 1
 317 37 l 1
 317 24 321 17 329 16 c 0
 337 16 346 21 355 31 c 0
 364 41 370 47 371 48 c 0
 375 55 389.617 79.6699 391 83 c 2
 418 148 l 1
 440 190.667 447.667 200.333 467 225 c 0
 486.333 249.667 511.667 262.333 543 263 c 0
 556.906 263 571 239.895 571 223 c 1
 595 237 l 1
 620 250 l 1
 632 254.667 644.333 257 657 257 c 0
 711.154 257 736.836 209.009 738 152 c 0
 738 105.42 726.827 84.0333 706 58 c 0
 683.495 29.0644 650.544 1 605 1 c 0
667 169 m 0
 667 195.223 656.907 215 631 215 c 0
 617 215 607.333 210.333 602 201 c 0
 590 180.333 580.333 156.333 573 129 c 1
 566.333 99 563 78.333 563 67 c 0
 563 43 570.333 31 585 31 c 0
 611.798 31 625.652 41.6075 637 58 c 1
 656.524 90.5408 658.559 90.0317 663 130 c 0
 665 148 666.333 161 667 169 c 0
EndSplineSet
Validated: 1
EndChar

StartChar: uniE52D
Encoding: 58669 58669 124
Width: 637
VWidth: 2048
Flags: HW
LayerCount: 2
Fore
SplineSet
311 -69 m 0
 332.386 -69 346 -99.9216 346 -120 c 0
 346 -140.113 333.397 -151.814 325 -165 c 128
 320.336 -172.333 316.67 -177 314 -179 c 0
 308.479 -186.363 312.662 -188.966 323 -190 c 1
 358.076 -190 377.222 -135.5 390 -101 c 128
 396.667 -83 401.667 -65.667 405 -49 c 0
 425.706 39.2938 443.664 130.336 463 220 c 1
 405 220 l 1
 405 258 l 1
 475 258 l 1
 488.429 295.847 497.957 322.661 515 349 c 0
 535.666 379 557.333 402 580 418 c 128
 602.667 434 627.667 442 655 442 c 0
 683.318 442 700.595 428.326 706 404 c 2
 710 388 l 1
 710 354.861 708.997 351.993 697 328 c 0
 693.862 320.94 679.617 302.946 666 301 c 128
 661.333 300.333 655.667 300.333 649 301 c 0
 636.394 303.801 632.434 318.612 630 332 c 1
 630 359.28 641.325 376.216 659 388 c 2
 673 398 l 1
 673 406.667 667 412 655 414 c 0
 641.667 415.33 630.333 412.663 621 406 c 128
 611.667 399.333 602 385 592 363 c 1
 585.086 345.222 566.1 279.121 561 260 c 1
 638 260 l 1
 638 220 l 1
 553 220 l 1
 533.986 111.195 492.939 -34.5584 450 -117 c 0
 426.343 -163.132 385.698 -223 333 -223 c 0
 288.383 -223 262 -186.317 262 -140 c 0
 262 -108.178 277.311 -69 311 -69 c 0
337 262 m 0
 358 262 380 248 380 227 c 2
 380 220 l 1
 317 37 l 1
 317 24 321 17 329 16 c 0
 337 16 346 21 355 31 c 128
 364 41 370 47 371 48 c 0
 375 55 389.633 79.6631 391 83 c 2
 405 124 l 1
 428 124 l 1
 404 61 l 2
 395.696 39.2031 373 16 360 3 c 128
 347 -10 331 -17 314 -18 c 1
 296 -18 280 -13 265 -4 c 1
 249 11 l 1
 246 18 244 23 244 28 c 1
 264 91 288 152 309 214 c 1
 309 221 304 226 294 227 c 1
 278 227 263 212 250 182 c 1
 186 0 l 1
 115 0 l 1
 192 214 l 1
 192 223 186 227 175 227 c 0
 166 227 158 223 153 216 c 128
 148 209 141 197 133 182 c 1
 69 0 l 1
 0 0 l 1
 77 210 l 1
 77 214 l 2
 77 224 72 226 65 230 c 1
 40 230 13 183 -1 157 c 0
 -6 148 -13 134 -22 115 c 1
 -44 115 l 1
 -25 154 -4 191 20 222 c 0
 41 249 67 262 99 262 c 0
 120 262 130 243 133 221 c 1
 152 238 167 248 178 253 c 0
 189 259 202 262 217 262 c 0
 238 262 249 243 252 221 c 1
 274 238 301 262 337 262 c 0
EndSplineSet
Validated: 33
EndChar

StartChar: uniE52E
Encoding: 58670 58670 125
Width: 306
VWidth: 2048
Flags: HW
LayerCount: 2
Fore
SplineSet
239 -69 m 4
 260.386 -69 274 -99.9216 274 -120 c 4
 274 -140.113 261.397 -151.814 253 -165 c 132
 248.336 -172.333 244.67 -177 242 -179 c 4
 236.479 -186.362 240.662 -188.966 251 -190 c 5
 286.076 -190 305.222 -135.5 318 -101 c 132
 324.667 -83 329.667 -65.667 333 -49 c 4
 353.706 39.2938 371.664 130.336 391 220 c 5
 333 220 l 5
 333 258 l 5
 403 258 l 5
 416.429 295.847 425.957 322.66 443 349 c 4
 463.666 379 485.333 402 508 418 c 132
 530.667 434 555.667 442 583 442 c 4
 611.318 442 628.595 428.326 634 404 c 6
 638 388 l 5
 638 354.861 636.997 351.993 625 328 c 4
 621.862 320.94 607.617 302.946 594 301 c 132
 589.333 300.333 583.667 300.333 577 301 c 4
 564.394 303.801 560.434 318.612 558 332 c 5
 558 359.28 569.325 376.216 587 388 c 6
 601 398 l 5
 601 406.667 595 412 583 414 c 4
 569.667 415.33 558.333 412.663 549 406 c 132
 539.667 399.333 530 385 520 363 c 5
 513.086 345.222 494.1 279.121 489 260 c 5
 566 260 l 5
 566 220 l 5
 481 220 l 5
 461.986 111.195 420.939 -34.5584 378 -117 c 4
 354.343 -163.132 313.698 -223 261 -223 c 4
 216.383 -223 190 -186.317 190 -140 c 4
 190 -108.178 205.311 -69 239 -69 c 4
200 1 m 0
 178.079 1 149.652 19.0218 139 35 c 1
 83 -123 l 1
 80 -127 l 1
 82.667 -133.667 86.667 -137.333 92 -138 c 2
 124 -138 l 1
 124 -167 l 1
 -49 -167 l 1
 -49 -138 l 1
 -28 -138 l 2
 -24 -138 -19.333 -136.333 -14 -133 c 1
 -10 -129 -7 -124.333 -5 -119 c 2
 114 212 l 1
 114 218 l 1
 111 228 l 1
 105 231 l 1
 82.4313 231 67.1506 205.534 57 188 c 1
 46 171 l 1
 38.1452 155.521 30.5578 139.776 23 124 c 1
 0 124 l 1
 22 166.667 42.667 200.333 62 225 c 128
 81.333 249.667 106.667 262.333 138 263 c 0
 151.906 263 166 239.895 166 223 c 1
 190 237 l 1
 215 250 l 1
 227 254.667 239.333 257 252 257 c 0
 306.154 257 331.836 209.008 333 152 c 0
 333 105.42 321.827 84.0333 301 58 c 0
 278.495 29.0644 245.544 1 200 1 c 0
262 169 m 0
 262 195.223 251.908 215 226 215 c 0
 212 215 202.333 210.333 197 201 c 0
 185 180.333 175.333 156.333 168 129 c 1
 161.333 99 158 78.333 158 67 c 0
 158 43 165.333 31 180 31 c 0
 206.799 31 220.652 41.6075 232 58 c 1
 251.524 90.5412 253.559 90.0315 258 130 c 128
 260 148 261.333 161 262 169 c 0
EndSplineSet
Validated: 33
EndChar

StartChar: uniE534
Encoding: 58676 58676 126
Width: 532
VWidth: 2048
Flags: HW
LayerCount: 2
Fore
SplineSet
432 1 m 0
 410.079 1 381.652 19.0217 371 35 c 1
 315 -123 l 1
 312 -127 l 1
 314.667 -133.667 318.667 -137.333 324 -138 c 2
 356 -138 l 1
 356 -167 l 1
 183 -167 l 1
 183 -138 l 1
 204 -138 l 2
 208 -138 212.667 -136.333 218 -133 c 1
 222 -129 225 -124.333 227 -119 c 2
 346 212 l 1
 346 218 l 1
 343 228 l 1
 337 231 l 1
 314.432 231 299.151 205.534 289 188 c 1
 278 171 l 1
 270.145 155.521 262.558 139.776 255 124 c 1
 232 124 l 1
 254 166.667 274.667 200.333 294 225 c 128
 313.333 249.667 338.667 262.333 370 263 c 0
 383.906 263 398 239.895 398 223 c 1
 422 237 l 1
 447 250 l 1
 459 254.667 471.333 257 484 257 c 0
 538.154 257 563.836 209.009 565 152 c 0
 565 105.42 553.827 84.0333 533 58 c 0
 510.495 29.0644 477.544 1 432 1 c 0
494 169 m 0
 494 195.223 483.908 215 458 215 c 0
 444 215 434.333 210.333 429 201 c 0
 417 180.333 407.333 156.333 400 129 c 1
 393.333 99 390 78.333 390 67 c 0
 390 43 397.333 31 412 31 c 0
 438.798 31 452.652 41.6075 464 58 c 1
 483.524 90.5408 485.559 90.0317 490 130 c 128
 492 148 493.333 161 494 169 c 0
-94 -69 m 0
 -72.6142 -69 -59 -99.9216 -59 -120 c 0
 -59 -140.113 -71.6027 -151.814 -80 -165 c 128
 -84.6641 -172.333 -88.3301 -177 -91 -179 c 0
 -96.5211 -186.362 -92.3376 -188.966 -82 -190 c 1
 -46.9243 -190 -27.7785 -135.5 -15 -101 c 128
 -8.33301 -83 -3.33301 -65.667 0 -49 c 0
 20.7062 39.2938 38.6638 130.336 58 220 c 1
 0 220 l 1
 0 258 l 1
 70 258 l 1
 83.4288 295.847 92.9568 322.66 110 349 c 0
 130.666 379 152.333 402 175 418 c 128
 197.667 434 222.667 442 250 442 c 0
 278.318 442 295.595 428.326 301 404 c 2
 305 388 l 1
 305 354.861 303.997 351.993 292 328 c 0
 288.862 320.94 274.617 302.946 261 301 c 128
 256.333 300.333 250.667 300.333 244 301 c 0
 231.393 303.801 227.434 318.612 225 332 c 1
 225 359.279 236.326 376.217 254 388 c 0
 261 393 261 393 268 398 c 1
 268 406.667 262 412 250 414 c 0
 236.667 415.33 225.333 412.663 216 406 c 128
 206.667 399.333 197 385 187 363 c 1
 180.086 345.221 161.1 279.122 156 260 c 1
 233 260 l 1
 233 220 l 1
 148 220 l 1
 128.986 111.195 87.9391 -34.5585 45 -117 c 0
 21.3431 -163.132 -19.3023 -223 -72 -223 c 0
 -116.617 -223 -143 -186.317 -143 -140 c 0
 -143 -108.178 -127.689 -69 -94 -69 c 0
EndSplineSet
Validated: 33
EndChar

StartChar: uniE535
Encoding: 58677 58677 127
Width: 492
VWidth: 2048
Flags: HW
LayerCount: 2
Fore
SplineSet
405 115 m 4
 426 115 439 92 439 67 c 4
 439 44 431 25 415 9 c 5
 400 -8 376 -16 342 -16 c 4
 330 -16 321 -15 315 -12 c 6
 303 -6 l 5
 286 4 l 5
 271 11 262 14 257 14 c 4
 248 14 238 9 227 0 c 5
 196 0 l 5
 196 16 l 5
 405 193 l 5
 341 192 l 5
 318 189 309 177 297 162 c 5
 273 162 l 5
 303 249 l 5
 492 249 l 5
 492 217 l 5
 281 54 l 5
 294 60 307 63 320 63 c 4
 334 63 373 45 383 43 c 5
 392 44 397 51 397 62 c 5
 384 62 377 70 375 85 c 5
 375 102 388 115 405 115 c 4
-94 -69 m 4
 -72.6142 -69 -59 -99.9216 -59 -120 c 4
 -59 -140.113 -71.6027 -151.814 -80 -165 c 132
 -84.6641 -172.333 -88.3301 -177 -91 -179 c 4
 -96.5211 -186.362 -92.3376 -188.966 -82 -190 c 5
 -46.9243 -190 -27.7785 -135.5 -15 -101 c 132
 -8.33301 -83 -3.33301 -65.667 0 -49 c 4
 20.7062 39.2938 38.6638 130.336 58 220 c 5
 0 220 l 5
 0 258 l 5
 70 258 l 5
 83.4288 295.847 92.9568 322.66 110 349 c 4
 130.666 379 152.333 402 175 418 c 132
 197.667 434 222.667 442 250 442 c 4
 278.318 442 295.595 428.326 301 404 c 6
 305 388 l 5
 305 354.861 303.997 351.993 292 328 c 4
 288.862 320.94 274.617 302.946 261 301 c 132
 256.333 300.333 250.667 300.333 244 301 c 4
 231.393 303.801 227.434 318.612 225 332 c 5
 225 359.279 236.326 376.217 254 388 c 4
 261 393 261 393 268 398 c 5
 268 406.667 262 412 250 414 c 4
 236.667 415.33 225.333 412.663 216 406 c 132
 206.667 399.333 197 385 187 363 c 5
 180.086 345.221 161.1 279.122 156 260 c 5
 233 260 l 5
 233 220 l 5
 148 220 l 5
 128.986 111.195 87.9391 -34.5585 45 -117 c 4
 21.3431 -163.132 -19.3023 -223 -72 -223 c 4
 -116.617 -223 -143 -186.317 -143 -140 c 4
 -143 -108.178 -127.689 -69 -94 -69 c 4
EndSplineSet
Validated: 33
EndChar

StartChar: uniE536
Encoding: 58678 58678 128
Width: 428
VWidth: 2048
Flags: HW
LayerCount: 2
Fore
SplineSet
100 -69 m 4
 121.386 -69 135 -99.9216 135 -120 c 4
 135 -140.113 122.397 -151.814 114 -165 c 4
 109.336 -172.333 105.67 -177 103 -179 c 4
 97.4789 -186.362 101.662 -188.966 112 -190 c 5
 147.076 -190 166.222 -135.5 179 -101 c 4
 185.667 -83 190.667 -65.667 194 -49 c 4
 214.706 39.2938 232.664 130.336 252 220 c 5
 194 220 l 5
 194 258 l 5
 264 258 l 5
 277.429 295.847 286.957 322.66 304 349 c 4
 324.666 379 346.333 402 369 418 c 4
 391.667 434 416.667 442 444 442 c 4
 472.318 442 489.595 428.326 495 404 c 6
 499 388 l 5
 499 354.861 497.997 351.993 486 328 c 4
 482.862 320.94 468.617 302.946 455 301 c 4
 429.46 297.35 422.809 311.048 419 332 c 5
 419 359.28 430.325 376.216 448 388 c 4
 455 393 455 393 462 398 c 5
 462 420.553 422.996 415.278 410 406 c 4
 380.695 385.066 361.653 303.695 350 260 c 5
 427 260 l 5
 427 220 l 5
 342 220 l 5
 322.986 111.195 281.939 -34.5584 239 -117 c 4
 215.343 -163.132 174.698 -223 122 -223 c 4
 77.3834 -223 51 -186.317 51 -140 c 4
 51 -108.178 66.3106 -69 100 -69 c 4
81 33 m 6
 102 33 119 48 121 67 c 5
 121 85.3072 108.9 96.5701 94 107 c 5
 72 120 56 133 47 145 c 4
 38 157 33 171 32 188 c 5
 32 238 72 270 119 270 c 5
 147 267 l 5
 156 264 164 260 171 254 c 5
 186 245 194 230 194 211 c 5
 193 201 l 5
 187 191 l 6
 184 186 179 182 170 181 c 5
 153 181 144 189 141 205 c 5
 145 224 l 5
 145 234 131 240 121 242 c 4
 102 245 89 226 86 206 c 5
 86 199 90 191 97 184 c 5
 106 177 115 170 123 163 c 4
 151 140 166 126 167 123 c 5
 175 113 179 100 179 84 c 6
 179 74 l 6
 179 53 169 35 150 20 c 5
 134 10 112 2 89 0 c 5
 42 0 0 26 0 67 c 5
 1 82 l 5
 6 95 l 5
 16 104 l 5
 29 108 l 5
 45 108 53 98 53 77 c 4
 53 64 48 61 45 49 c 5
 45 41 56 33 68 33 c 6
 81 33 l 6
EndSplineSet
Validated: 33
EndChar

StartChar: uniE537
Encoding: 58679 58679 129
Width: 728
VWidth: 2048
Flags: HW
LayerCount: 2
Fore
SplineSet
628 1 m 0
 606.079 1 577.652 19.0217 567 35 c 1
 511 -123 l 1
 508 -127 l 1
 510.667 -133.667 514.667 -137.333 520 -138 c 2
 552 -138 l 1
 552 -167 l 1
 379 -167 l 1
 379 -138 l 1
 400 -138 l 2
 404 -138 408.667 -136.333 414 -133 c 1
 418 -129 421 -124.333 423 -119 c 2
 542 212 l 1
 542 218 l 1
 539 228 l 1
 533 231 l 1
 510.432 231 495.151 205.534 485 188 c 1
 474 171 l 1
 466.145 155.521 458.558 139.776 451 124 c 1
 428 124 l 1
 450 166.667 470.667 200.333 490 225 c 128
 509.333 249.667 534.667 262.333 566 263 c 0
 579.906 263 594 239.895 594 223 c 1
 618 237 l 1
 643 250 l 1
 655 254.667 667.333 257 680 257 c 0
 734.154 257 759.836 209.009 761 152 c 0
 761 105.42 749.827 84.0333 729 58 c 0
 706.495 29.0644 673.544 1 628 1 c 0
690 169 m 0
 690 195.223 679.907 215 654 215 c 0
 640 215 630.333 210.333 625 201 c 0
 613 180.333 603.333 156.333 596 129 c 1
 589.333 99 586 78.333 586 67 c 0
 586 43 593.333 31 608 31 c 0
 634.798 31 648.652 41.6075 660 58 c 1
 679.524 90.5408 681.559 90.0317 686 130 c 128
 688 148 689.333 161 690 169 c 0
100 -69 m 0
 121.386 -69 135 -99.9216 135 -120 c 0
 135 -140.113 122.397 -151.814 114 -165 c 0
 109.336 -172.333 105.67 -177 103 -179 c 0
 97.4789 -186.362 101.662 -188.966 112 -190 c 1
 147.076 -190 166.222 -135.5 179 -101 c 0
 185.667 -83 190.667 -65.667 194 -49 c 0
 214.706 39.2938 232.664 130.336 252 220 c 1
 194 220 l 1
 194 258 l 1
 264 258 l 1
 277.429 295.847 286.957 322.66 304 349 c 0
 324.666 379 346.333 402 369 418 c 0
 391.667 434 416.667 442 444 442 c 0
 472.318 442 489.595 428.326 495 404 c 2
 499 388 l 1
 499 354.861 497.997 351.993 486 328 c 0
 482.862 320.94 468.617 302.946 455 301 c 0
 429.46 297.35 422.809 311.048 419 332 c 1
 419 359.28 430.325 376.216 448 388 c 0
 455 393 455 393 462 398 c 1
 462 420.553 422.996 415.278 410 406 c 0
 380.695 385.066 361.653 303.695 350 260 c 1
 427 260 l 1
 427 220 l 1
 342 220 l 1
 322.986 111.195 281.939 -34.5584 239 -117 c 0
 215.343 -163.132 174.698 -223 122 -223 c 0
 77.3834 -223 51 -186.317 51 -140 c 0
 51 -108.178 66.3106 -69 100 -69 c 0
81 33 m 2
 102 33 119 48 121 67 c 1
 121 85.3072 108.9 96.5701 94 107 c 1
 72 120 56 133 47 145 c 0
 38 157 33 171 32 188 c 1
 32 238 72 270 119 270 c 1
 147 267 l 1
 156 264 164 260 171 254 c 1
 186 245 194 230 194 211 c 1
 193 201 l 1
 187 191 l 2
 184 186 179 182 170 181 c 1
 153 181 144 189 141 205 c 1
 145 224 l 1
 145 234 131 240 121 242 c 0
 102 245 89 226 86 206 c 1
 86 199 90 191 97 184 c 1
 106 177 115 170 123 163 c 0
 151 140 166 126 167 123 c 1
 175 113 179 100 179 84 c 2
 179 74 l 2
 179 53 169 35 150 20 c 1
 134 10 112 2 89 0 c 1
 42 0 0 26 0 67 c 1
 1 82 l 1
 6 95 l 1
 16 104 l 1
 29 108 l 1
 45 108 53 98 53 77 c 0
 53 64 48 61 45 49 c 1
 45 41 56 33 68 33 c 2
 81 33 l 2
EndSplineSet
Validated: 33
EndChar

StartChar: uniE538
Encoding: 58680 58680 130
Width: 1028
VWidth: 2048
Flags: HW
LayerCount: 2
Fore
SplineSet
990 169 m 1
 990 195 980 215 954 215 c 0
 940 215 930 210 925 201 c 0
 913 180 903 156 896 129 c 0
 889 99 886 78 886 67 c 0
 886 43 893 31 908 31 c 0
 935 31 949 42 960 58 c 1
 980 91 982 90 986 130 c 0
 988 148 989 161 990 169 c 1
690 169 m 1
 690 195 680 215 654 215 c 0
 640 215 630 210 625 201 c 0
 613 180 603 156 596 129 c 0
 589 99 586 78 586 67 c 0
 586 43 593 31 608 31 c 0
 635 31 649 42 660 58 c 1
 680 91 682 90 686 130 c 0
 688 148 689 161 690 169 c 1
628 1 m 0
 606 1 578 19 567 35 c 1
 511 -123 l 1
 508 -127 l 1
 511 -134 515 -137 520 -138 c 1
 552 -138 l 1
 552 -167 l 1
 379 -167 l 1
 379 -138 l 1
 400 -138 l 2
 404 -138 409 -136 414 -133 c 1
 418 -129 421 -124 423 -119 c 2
 542 212 l 1
 542 218 l 1
 539 228 l 1
 533 231 l 1
 510 231 495 206 485 188 c 1
 474 171 l 1
 466 156 459 140 451 124 c 1
 428 124 l 1
 450 167 471 200 490 225 c 0
 509 250 535 262 566 263 c 0
 580 263 594 240 594 223 c 1
 618 237 l 1
 643 250 l 1
 655 255 667 257 680 257 c 0
 725 257 752 222 759 179 c 1
 784 220 810 262 866 263 c 0
 880 263 894 240 894 223 c 1
 918 237 l 1
 943 250 l 1
 955 255 967 257 980 257 c 0
 1034 257 1060 209 1061 152 c 0
 1061 105 1050 84 1029 58 c 0
 1006 29 974 1 928 1 c 0
 906 1 878 19 867 35 c 1
 811 -123 l 1
 808 -127 l 1
 811 -134 815 -137 820 -138 c 1
 852 -138 l 1
 852 -167 l 1
 679 -167 l 1
 679 -138 l 1
 700 -138 l 2
 704 -138 709 -136 714 -133 c 1
 718 -129 721 -124 723 -119 c 2
 842 212 l 1
 842 218 l 1
 839 228 l 1
 833 231 l 1
 810 231 795 206 785 188 c 1
 774 171 l 1
 770 162 765 154 761 145 c 1
 760 102 749 83 729 58 c 0
 706 29 674 1 628 1 c 0
100 -69 m 0
 121 -69 135 -100 135 -120 c 0
 135 -140 122 -152 114 -165 c 0
 109 -172 106 -177 103 -179 c 0
 97 -186 102 -189 112 -190 c 1
 147 -190 166 -136 179 -101 c 0
 186 -83 191 -66 194 -49 c 1
 215 39 233 130 252 220 c 1
 194 220 l 1
 194 258 l 1
 264 258 l 1
 277 296 287 323 304 349 c 0
 325 379 346 402 369 418 c 0
 392 434 417 442 444 442 c 0
 472 442 490 428 495 404 c 2
 499 388 l 1
 499 355 498 352 486 328 c 0
 483 321 469 303 455 301 c 0
 429 297 423 311 419 332 c 1
 419 359 430 376 448 388 c 2
 462 398 l 1
 462 421 423 415 410 406 c 0
 381 385 362 304 350 260 c 1
 427 260 l 1
 427 220 l 1
 342 220 l 1
 323 111 282 -35 239 -117 c 0
 215 -163 175 -223 122 -223 c 0
 77 -223 51 -186 51 -140 c 0
 51 -108 66 -69 100 -69 c 0
81 33 m 2
 102 33 119 48 121 67 c 1
 121 85 109 97 94 107 c 0
 72 120 56 133 47 145 c 0
 38 157 33 171 32 188 c 1
 32 238 72 270 119 270 c 1
 147 267 l 1
 156 264 164 260 171 254 c 1
 186 245 194 230 194 211 c 1
 193 201 l 1
 187 191 l 2
 184 186 179 182 170 181 c 1
 153 181 144 189 141 205 c 1
 145 224 l 1
 145 234 131 240 121 242 c 0
 102 245 89 226 86 206 c 1
 86 199 90 191 97 184 c 1
 106 177 115 170 123 163 c 0
 151 140 166 126 167 123 c 1
 175 113 179 100 179 84 c 2
 179 74 l 2
 179 53 169 35 150 20 c 1
 134 10 112 2 89 0 c 1
 42 0 0 26 0 67 c 1
 1 82 l 1
 6 95 l 1
 16 104 l 1
 29 108 l 1
 45 108 53 98 53 77 c 0
 53 64 48 61 45 49 c 1
 45 41 56 33 68 33 c 2
 81 33 l 2
EndSplineSet
Validated: 33
EndChar

StartChar: uniE53B
Encoding: 58683 58683 131
Width: 920
VWidth: 2048
Flags: HW
LayerCount: 2
Fore
SplineSet
833 115 m 0
 854 115 867 92 867 67 c 0
 867 44 859 25 843 9 c 1
 828 -8 804 -16 770 -16 c 0
 758 -16 749 -15 743 -12 c 2
 731 -6 l 1
 714 4 l 1
 699 11 690 14 685 14 c 0
 676 14 666 9 655 0 c 1
 624 0 l 1
 624 16 l 1
 833 193 l 1
 769 192 l 1
 746 189 737 177 725 162 c 1
 701 162 l 1
 731 249 l 1
 920 249 l 1
 920 217 l 1
 709 54 l 1
 722 60 735 63 748 63 c 0
 762 63 801 45 811 43 c 1
 820 44 825 51 825 62 c 1
 812 62 805 70 803 85 c 1
 803 102 816 115 833 115 c 0
334 -69 m 0
 355.386 -69 369 -99.9216 369 -120 c 0
 369 -140.113 356.397 -151.814 348 -165 c 128
 343.336 -172.333 339.67 -177 337 -179 c 0
 331.479 -186.363 335.662 -188.966 346 -190 c 1
 381.076 -190 400.222 -135.5 413 -101 c 128
 419.667 -83 424.667 -65.667 428 -49 c 0
 448.706 39.2938 466.664 130.336 486 220 c 1
 428 220 l 1
 428 258 l 1
 498 258 l 1
 511.429 295.847 520.957 322.661 538 349 c 0
 558.666 379 580.333 402 603 418 c 128
 625.667 434 650.667 442 678 442 c 0
 706.318 442 723.595 428.326 729 404 c 2
 733 388 l 1
 733 354.861 731.997 351.993 720 328 c 0
 716.862 320.94 702.617 302.946 689 301 c 128
 684.333 300.333 678.667 300.333 672 301 c 0
 659.394 303.801 655.434 318.612 653 332 c 1
 653 359.28 664.325 376.216 682 388 c 2
 696 398 l 1
 696 406.667 690 412 678 414 c 0
 664.667 415.33 653.333 412.663 644 406 c 128
 634.667 399.333 625 385 615 363 c 1
 608.086 345.222 589.1 279.121 584 260 c 1
 661 260 l 1
 661 220 l 1
 576 220 l 1
 556.986 111.195 515.939 -34.5584 473 -117 c 0
 449.343 -163.132 408.698 -223 356 -223 c 0
 311.383 -223 285 -186.317 285 -140 c 0
 285 -108.178 300.311 -69 334 -69 c 0
100 -69 m 0
 121.386 -69 135 -99.9216 135 -120 c 0
 135 -140.113 122.397 -151.814 114 -165 c 0
 109.336 -172.333 105.67 -177 103 -179 c 0
 97.4789 -186.362 101.662 -188.966 112 -190 c 1
 147.076 -190 166.222 -135.5 179 -101 c 0
 185.667 -83 190.667 -65.667 194 -49 c 0
 214.706 39.2938 232.664 130.336 252 220 c 1
 194 220 l 1
 194 258 l 1
 264 258 l 1
 277.429 295.847 286.957 322.66 304 349 c 0
 324.666 379 346.333 402 369 418 c 0
 391.667 434 416.667 442 444 442 c 0
 472.318 442 489.595 428.326 495 404 c 2
 499 388 l 1
 499 354.861 497.997 351.993 486 328 c 0
 482.862 320.94 468.617 302.946 455 301 c 0
 429.46 297.35 422.809 311.048 419 332 c 1
 419 359.28 430.325 376.216 448 388 c 0
 455 393 455 393 462 398 c 1
 462 420.553 422.996 415.278 410 406 c 0
 380.695 385.066 361.653 303.695 350 260 c 1
 427 260 l 1
 427 220 l 1
 342 220 l 1
 322.986 111.195 281.939 -34.5584 239 -117 c 0
 215.343 -163.132 174.698 -223 122 -223 c 0
 77.3834 -223 51 -186.317 51 -140 c 0
 51 -108.178 66.3106 -69 100 -69 c 0
81 33 m 2
 102 33 119 48 121 67 c 1
 121 85.3072 108.9 96.5701 94 107 c 1
 72 120 56 133 47 145 c 0
 38 157 33 171 32 188 c 1
 32 238 72 270 119 270 c 1
 147 267 l 1
 156 264 164 260 171 254 c 1
 186 245 194 230 194 211 c 1
 193 201 l 1
 187 191 l 2
 184 186 179 182 170 181 c 1
 153 181 144 189 141 205 c 1
 145 224 l 1
 145 234 131 240 121 242 c 0
 102 245 89 226 86 206 c 1
 86 199 90 191 97 184 c 1
 106 177 115 170 123 163 c 0
 151 140 166 126 167 123 c 1
 175 113 179 100 179 84 c 2
 179 74 l 2
 179 53 169 35 150 20 c 1
 134 10 112 2 89 0 c 1
 42 0 0 26 0 67 c 1
 1 82 l 1
 6 95 l 1
 16 104 l 1
 29 108 l 1
 45 108 53 98 53 77 c 0
 53 64 48 61 45 49 c 1
 45 41 56 33 68 33 c 2
 81 33 l 2
EndSplineSet
Validated: 33
EndChar

StartChar: uniE539
Encoding: 58681 58681 132
Width: 688
VWidth: 2048
Flags: HW
LayerCount: 2
Fore
SplineSet
601 115 m 4
 622 115 635 92 635 67 c 4
 635 44 627 25 611 9 c 5
 596 -8 572 -16 538 -16 c 4
 526 -16 517 -15 511 -12 c 6
 499 -6 l 5
 482 4 l 5
 467 11 458 14 453 14 c 4
 444 14 434 9 423 0 c 5
 392 0 l 5
 392 16 l 5
 601 193 l 5
 537 192 l 5
 514 189 505 177 493 162 c 5
 469 162 l 5
 499 249 l 5
 688 249 l 5
 688 217 l 5
 477 54 l 5
 490 60 503 63 516 63 c 4
 530 63 569 45 579 43 c 5
 588 44 593 51 593 62 c 5
 580 62 573 70 571 85 c 5
 571 102 584 115 601 115 c 4
100 -69 m 4
 121.386 -69 135 -99.9216 135 -120 c 4
 135 -140.113 122.397 -151.814 114 -165 c 4
 109.336 -172.333 105.67 -177 103 -179 c 4
 97.4789 -186.362 101.662 -188.966 112 -190 c 5
 147.076 -190 166.222 -135.5 179 -101 c 4
 185.667 -83 190.667 -65.667 194 -49 c 4
 214.706 39.2938 232.664 130.336 252 220 c 5
 194 220 l 5
 194 258 l 5
 264 258 l 5
 277.429 295.847 286.957 322.66 304 349 c 4
 324.666 379 346.333 402 369 418 c 4
 391.667 434 416.667 442 444 442 c 4
 472.318 442 489.595 428.326 495 404 c 6
 499 388 l 5
 499 354.861 497.997 351.993 486 328 c 4
 482.862 320.94 468.617 302.946 455 301 c 4
 429.46 297.35 422.809 311.048 419 332 c 5
 419 359.28 430.325 376.216 448 388 c 4
 455 393 455 393 462 398 c 5
 462 420.553 422.996 415.278 410 406 c 4
 380.695 385.066 361.653 303.695 350 260 c 5
 427 260 l 5
 427 220 l 5
 342 220 l 5
 322.986 111.195 281.939 -34.5584 239 -117 c 4
 215.343 -163.132 174.698 -223 122 -223 c 4
 77.3834 -223 51 -186.317 51 -140 c 4
 51 -108.178 66.3106 -69 100 -69 c 4
81 33 m 6
 102 33 119 48 121 67 c 5
 121 85.3072 108.9 96.5701 94 107 c 5
 72 120 56 133 47 145 c 4
 38 157 33 171 32 188 c 5
 32 238 72 270 119 270 c 5
 147 267 l 5
 156 264 164 260 171 254 c 5
 186 245 194 230 194 211 c 5
 193 201 l 5
 187 191 l 6
 184 186 179 182 170 181 c 5
 153 181 144 189 141 205 c 5
 145 224 l 5
 145 234 131 240 121 242 c 4
 102 245 89 226 86 206 c 5
 86 199 90 191 97 184 c 5
 106 177 115 170 123 163 c 4
 151 140 166 126 167 123 c 5
 175 113 179 100 179 84 c 6
 179 74 l 6
 179 53 169 35 150 20 c 5
 134 10 112 2 89 0 c 5
 42 0 0 26 0 67 c 5
 1 82 l 5
 6 95 l 5
 16 104 l 5
 29 108 l 5
 45 108 53 98 53 77 c 4
 53 64 48 61 45 49 c 5
 45 41 56 33 68 33 c 6
 81 33 l 6
EndSplineSet
Validated: 33
EndChar

StartChar: uniE53A
Encoding: 58682 58682 133
Width: 988
VWidth: 2048
Flags: HW
LayerCount: 2
Fore
SplineSet
888 1 m 0
 866.079 1 837.652 19.0217 827 35 c 1
 771 -123 l 1
 768 -127 l 1
 770.667 -133.667 774.667 -137.333 780 -138 c 2
 812 -138 l 1
 812 -167 l 1
 639 -167 l 1
 639 -138 l 1
 660 -138 l 2
 664 -138 668.667 -136.333 674 -133 c 1
 678 -129 681 -124.333 683 -119 c 2
 802 212 l 1
 802 218 l 1
 799 228 l 1
 793 231 l 1
 770.432 231 755.151 205.534 745 188 c 1
 734 171 l 1
 726.145 155.521 718.558 139.776 711 124 c 1
 688 124 l 1
 710 166.667 730.667 200.333 750 225 c 128
 769.333 249.667 794.667 262.333 826 263 c 0
 839.906 263 854 239.895 854 223 c 1
 878 237 l 1
 903 250 l 1
 915 254.667 927.333 257 940 257 c 0
 994.154 257 1019.84 209.009 1021 152 c 0
 1021 105.42 1009.83 84.0333 989 58 c 0
 966.495 29.0644 933.544 1 888 1 c 0
950 169 m 0
 950 195.223 939.907 215 914 215 c 0
 900 215 890.333 210.333 885 201 c 0
 873 180.333 863.333 156.333 856 129 c 1
 849.333 99 846 78.333 846 67 c 0
 846 43 853.333 31 868 31 c 0
 894.798 31 908.652 41.6075 920 58 c 1
 939.524 90.5408 941.559 90.0317 946 130 c 128
 948 148 949.333 161 950 169 c 0
601 115 m 0
 622 115 635 92 635 67 c 0
 635 44 627 25 611 9 c 1
 596 -8 572 -16 538 -16 c 0
 526 -16 517 -15 511 -12 c 2
 499 -6 l 1
 482 4 l 1
 467 11 458 14 453 14 c 0
 444 14 434 9 423 0 c 1
 392 0 l 1
 392 16 l 1
 601 193 l 1
 537 192 l 1
 514 189 505 177 493 162 c 1
 469 162 l 1
 499 249 l 1
 688 249 l 1
 688 217 l 1
 477 54 l 1
 490 60 503 63 516 63 c 0
 530 63 569 45 579 43 c 1
 588 44 593 51 593 62 c 1
 580 62 573 70 571 85 c 1
 571 102 584 115 601 115 c 0
100 -69 m 0
 121.386 -69 135 -99.9216 135 -120 c 0
 135 -140.113 122.397 -151.814 114 -165 c 0
 109.336 -172.333 105.67 -177 103 -179 c 0
 97.4789 -186.362 101.662 -188.966 112 -190 c 1
 147.076 -190 166.222 -135.5 179 -101 c 0
 185.667 -83 190.667 -65.667 194 -49 c 0
 214.706 39.2938 232.664 130.336 252 220 c 1
 194 220 l 1
 194 258 l 1
 264 258 l 1
 277.429 295.847 286.957 322.66 304 349 c 0
 324.666 379 346.333 402 369 418 c 0
 391.667 434 416.667 442 444 442 c 0
 472.318 442 489.595 428.326 495 404 c 2
 499 388 l 1
 499 354.861 497.997 351.993 486 328 c 0
 482.862 320.94 468.617 302.946 455 301 c 0
 429.46 297.35 422.809 311.048 419 332 c 1
 419 359.28 430.325 376.216 448 388 c 0
 455 393 455 393 462 398 c 1
 462 420.553 422.996 415.278 410 406 c 0
 380.695 385.066 361.653 303.695 350 260 c 1
 427 260 l 1
 427 220 l 1
 342 220 l 1
 322.986 111.195 281.939 -34.5584 239 -117 c 0
 215.343 -163.132 174.698 -223 122 -223 c 0
 77.3834 -223 51 -186.317 51 -140 c 0
 51 -108.178 66.3106 -69 100 -69 c 0
81 33 m 2
 102 33 119 48 121 67 c 1
 121 85.3072 108.9 96.5701 94 107 c 1
 72 120 56 133 47 145 c 0
 38 157 33 171 32 188 c 1
 32 238 72 270 119 270 c 1
 147 267 l 1
 156 264 164 260 171 254 c 1
 186 245 194 230 194 211 c 1
 193 201 l 1
 187 191 l 2
 184 186 179 182 170 181 c 1
 153 181 144 189 141 205 c 1
 145 224 l 1
 145 234 131 240 121 242 c 0
 102 245 89 226 86 206 c 1
 86 199 90 191 97 184 c 1
 106 177 115 170 123 163 c 0
 151 140 166 126 167 123 c 1
 175 113 179 100 179 84 c 2
 179 74 l 2
 179 53 169 35 150 20 c 1
 134 10 112 2 89 0 c 1
 42 0 0 26 0 67 c 1
 1 82 l 1
 6 95 l 1
 16 104 l 1
 29 108 l 1
 45 108 53 98 53 77 c 0
 53 64 48 61 45 49 c 1
 45 41 56 33 68 33 c 2
 81 33 l 2
EndSplineSet
Validated: 33
EndChar

StartChar: uniE53C
Encoding: 58684 58684 134
Width: 457
VWidth: 2048
Flags: HW
LayerCount: 2
Fore
SplineSet
131 -69 m 0
 152.386 -69 166 -99.9216 166 -120 c 0
 166 -140.113 153.397 -151.814 145 -165 c 128
 140.336 -172.333 136.67 -177 134 -179 c 0
 128.479 -186.362 132.662 -188.966 143 -190 c 1
 178.076 -190 197.222 -135.5 210 -101 c 128
 216.667 -83 221.667 -65.667 225 -49 c 0
 245.706 39.2938 263.664 130.336 283 220 c 1
 225 220 l 1
 225 258 l 1
 295 258 l 1
 308.429 295.847 317.957 322.66 335 349 c 0
 355.666 379 377.333 402 400 418 c 128
 422.667 434 447.667 442 475 442 c 0
 503.318 442 520.595 428.326 526 404 c 2
 530 388 l 1
 530 354.861 528.997 351.993 517 328 c 0
 513.862 320.94 499.617 302.946 486 301 c 128
 481.333 300.333 475.667 300.333 469 301 c 0
 456.394 303.801 452.434 318.612 450 332 c 1
 450 359.28 461.325 376.216 479 388 c 2
 493 398 l 1
 493 406.667 487 412 475 414 c 0
 461.667 415.33 450.333 412.663 441 406 c 128
 431.667 399.333 422 385 412 363 c 1
 405.086 345.221 386.1 279.122 381 260 c 1
 458 260 l 1
 458 220 l 1
 373 220 l 1
 353.986 111.195 312.939 -34.5584 270 -117 c 0
 246.343 -163.132 205.698 -223 153 -223 c 0
 108.383 -223 82 -186.317 82 -140 c 0
 82 -108.178 97.3106 -69 131 -69 c 0
194 174 m 0
 180 174 171 186 171 203 c 1
 172 214 l 1
 175 226 l 1
 175 231 172 233 167 233 c 0
 154 233 141 223 129 202 c 1
 113 170 l 1
 92 116 78 57 60 0 c 1
 0 0 l 1
 57 194 l 1
 57 199 l 2
 57 210 54 215 49 215 c 0
 34 215 29 206 19 194 c 0
 10 183 2 171 -6 158 c 1
 -20 166 l 1
 -14 181 -4 191 8 204 c 0
 27 223 58 252 91 252 c 0
 106 252 113 243 113 224 c 1
 112 217 112 210 111 203 c 1
 127 227 150 259 185 259 c 0
 206 259 225 240 225 219 c 0
 225 189 215 174 194 174 c 0
EndSplineSet
Validated: 33
EndChar

StartChar: uniE53D
Encoding: 58685 58685 135
Width: 717
VWidth: 2048
Flags: HW
LayerCount: 2
Fore
SplineSet
630 115 m 0
 651 115 664 92 664 67 c 0
 664 44 656 25 640 9 c 1
 625 -8 601 -16 567 -16 c 0
 555 -16 546 -15 540 -12 c 2
 528 -6 l 1
 511 4 l 1
 496 11 487 14 482 14 c 0
 473 14 463 9 452 0 c 1
 421 0 l 1
 421 16 l 1
 630 193 l 1
 566 192 l 1
 543 189 534 177 522 162 c 1
 498 162 l 1
 528 249 l 1
 717 249 l 1
 717 217 l 1
 506 54 l 1
 519 60 532 63 545 63 c 0
 559 63 598 45 608 43 c 1
 617 44 622 51 622 62 c 1
 609 62 602 70 600 85 c 1
 600 102 613 115 630 115 c 0
131 -69 m 0
 152.386 -69 166 -99.9216 166 -120 c 0
 166 -140.113 153.397 -151.814 145 -165 c 128
 140.336 -172.333 136.67 -177 134 -179 c 0
 128.479 -186.362 132.662 -188.966 143 -190 c 1
 178.076 -190 197.222 -135.5 210 -101 c 128
 216.667 -83 221.667 -65.667 225 -49 c 0
 245.706 39.2938 263.664 130.336 283 220 c 1
 225 220 l 1
 225 258 l 1
 295 258 l 1
 308.429 295.847 317.957 322.66 335 349 c 0
 355.666 379 377.333 402 400 418 c 128
 422.667 434 447.667 442 475 442 c 0
 503.318 442 520.595 428.326 526 404 c 2
 530 388 l 1
 530 354.861 528.997 351.993 517 328 c 0
 513.862 320.94 499.617 302.946 486 301 c 128
 481.333 300.333 475.667 300.333 469 301 c 0
 456.394 303.801 452.434 318.612 450 332 c 1
 450 359.28 461.325 376.216 479 388 c 2
 493 398 l 1
 493 406.667 487 412 475 414 c 0
 461.667 415.33 450.333 412.663 441 406 c 128
 431.667 399.333 422 385 412 363 c 1
 405.086 345.221 386.1 279.122 381 260 c 1
 458 260 l 1
 458 220 l 1
 373 220 l 1
 353.986 111.195 312.939 -34.5584 270 -117 c 0
 246.343 -163.132 205.698 -223 153 -223 c 0
 108.383 -223 82 -186.317 82 -140 c 0
 82 -108.178 97.3106 -69 131 -69 c 0
194 174 m 0
 180 174 171 186 171 203 c 1
 172 214 l 1
 175 226 l 1
 175 231 172 233 167 233 c 0
 154 233 141 223 129 202 c 1
 113 170 l 1
 92 116 78 57 60 0 c 1
 0 0 l 1
 57 194 l 1
 57 199 l 2
 57 210 54 215 49 215 c 0
 34 215 29 206 19 194 c 0
 10 183 2 171 -6 158 c 1
 -20 166 l 1
 -14 181 -4 191 8 204 c 0
 27 223 58 252 91 252 c 0
 106 252 113 243 113 224 c 1
 112 217 112 210 111 203 c 1
 127 227 150 259 185 259 c 0
 206 259 225 240 225 219 c 0
 225 189 215 174 194 174 c 0
EndSplineSet
Validated: 33
EndChar

StartChar: uniE510
Encoding: 58640 58640 136
Width: 266
VWidth: 2048
Flags: HW
LayerCount: 2
Fore
SplineSet
86 180 m 5
 70.667 197.333 61.333 219.667 58 247 c 5
 58 257.667 60.667 268.667 66 280 c 132
 71.333 291.333 79 301 89 309 c 4
 110.333 324.333 136.333 332 167 332 c 4
 196.333 332 220 323 238 305 c 132
 256 287 265.333 267.667 266 247 c 4
 266 230.333 260.333 215.333 249 202 c 132
 237.667 188.667 220.667 176.667 198 166 c 5
 219.333 140.667 230 114 230 86 c 4
 230 62.667 220 42.333 200 25 c 5
 178.667 9 148.667 1 110 1 c 4
 76 1 49.333 9.33301 30 26 c 132
 10.667 42.667 0.666992 62.667 0 86 c 4
 0 104 7.33301 122.333 22 141 c 4
 34.667 157 56 170 86 180 c 5
98 168 m 5
 78.667 156 64.333 143.333 55 130 c 132
 45.667 116.667 40.667 102 40 86 c 5
 42 63.333 49 47.667 61 39 c 132
 73 30.333 91.333 24.333 116 21 c 5
 132.667 21 145.334 25 154 33 c 132
 162.667 41 167.334 53.667 168 71 c 5
 165.333 92.333 142 124.667 98 168 c 5
187 180 m 5
 213 200 226 223.667 226 251 c 4
 226 267.667 220.667 282.333 210 295 c 132
 199.333 307.667 185.333 314.333 168 315 c 5
 140 315 124.333 300.333 121 271 c 5
 123 259 l 5
 130.333 237 151.667 210.667 187 180 c 5
EndSplineSet
Validated: 1
EndChar

StartChar: uniE514
Encoding: 58644 58644 137
Width: 426
VWidth: 2048
Flags: HW
LayerCount: 2
Fore
SplineSet
108 41 m 6
 108 23 123 19 141 17 c 5
 153 18 l 5
 167 20 l 5
 162 0 l 5
 3 0 l 5
 8 20 l 5
 27 20 l 6
 42 20 52 21 56 23 c 4
 61 27 65 34 68 44 c 6
 120 255 l 5
 121 260 l 5
 117 264 114 266 112 266 c 6
 59 267 l 5
 64 287 l 5
 81 287 98 290 115 296 c 5
 134 301 150 308 165 318 c 5
 177 318 l 5
 110 52 l 5
 108 46 l 5
 108 41 l 6
224 137 m 5
 215 139 213 139 211 150 c 5
 211 157 216 165 227 174 c 5
 236 202 244 231 252 259 c 6
 268 320 l 5
 315 311 l 6
 320 310 328 309 340 309 c 4
 345 308 349 308 354 308 c 4
 380 308 402 312 420 321 c 5
 426 317 l 5
 408 285 385 266 337 266 c 4
 326 266 288 272 279 273 c 5
 253 187 l 5
 273 198 285 201 312 203 c 5
 363 203 393 170 393 119 c 4
 393 88 381 59 356 32 c 132
 331 5 300 -8 263 -8 c 4
 219 -8 180 16 180 62 c 4
 180 86 191 103 214 103 c 4
 228 103 240 90 240 75 c 4
 240 68 239 64 237 62 c 6
 221 49 l 5
 213 44 l 5
 211 40 l 5
 211 22 236 11 258 11 c 4
 279 11 298 21 317 41 c 132
 336 61 345 88 346 122 c 4
 346 159 325 179 291 179 c 4
 265 179 258 174 245 162 c 5
 242 149 238 137 224 137 c 5
EndSplineSet
Validated: 1
EndChar

StartChar: uniE517
Encoding: 58647 58647 138
Width: 504
VWidth: 2048
Flags: HW
LayerCount: 2
Fore
SplineSet
166 311 m 4
 226 311 260 290 260 231 c 4
 260 204 248 180 220 167 c 6
 150 135 l 5
 113 125 81 105 54 75 c 5
 75 75 l 5
 101 73 l 5
 113 67 l 6
 127 61 141 56 155 50 c 4
 161 47 168 46 176 46 c 5
 191 50 l 5
 202 58 l 5
 207 63 213 71 221 84 c 5
 238 75 l 5
 222 47 l 6
 220 43 206 19 202 16 c 4
 183 -5 164 -15 145 -15 c 6
 135 -15 l 5
 122 -9 110 -3 99 5 c 6
 84 16 l 5
 72 23 61 26 52 26 c 5
 42 23 33 18 28 9 c 6
 23 0 l 5
 0 0 l 5
 0 27 6 51 20 72 c 4
 27 82 34 88 39 93 c 6
 67 118 l 5
 87 129 107 140 126 151 c 5
 145 160 l 6
 171.668 171.667 203 202.434 203 235 c 5
 204 247 l 5
 204 260 200 271 192 278 c 5
 186 287 177 292 164 292 c 4
 135 292 118 277 112 248 c 5
 115 236 l 5
 117 220 l 5
 117 200 109 191 92 191 c 4
 78 191 66 204 66 219 c 4
 66 267 118 311 166 311 c 4
410 311 m 4
 470 311 504 290 504 231 c 4
 504 204 492 180 464 167 c 6
 394 135 l 5
 357 125 325 105 298 75 c 5
 319 75 l 5
 345 73 l 5
 357 67 l 6
 371 61 385 56 399 50 c 4
 405 47 412 46 420 46 c 5
 435 50 l 5
 446 58 l 5
 451 63 457 71 465 84 c 5
 482 75 l 5
 466 47 l 6
 464 43 450 19 446 16 c 4
 427 -5 408 -15 389 -15 c 6
 379 -15 l 5
 366 -9 354 -3 343 5 c 6
 328 16 l 5
 316 23 305 26 296 26 c 5
 286 23 277 18 272 9 c 6
 267 0 l 5
 244 0 l 5
 244 27 250 51 264 72 c 4
 271 82 278 88 283 93 c 6
 311 118 l 5
 331 129 351 140 370 151 c 5
 389 160 l 6
 415.668 171.667 447 202.434 447 235 c 5
 448 247 l 5
 448 260 444 271 436 278 c 5
 430 287 421 292 408 292 c 4
 379 292 362 277 356 248 c 5
 359 236 l 5
 361 220 l 5
 361 200 353 191 336 191 c 4
 322 191 310 204 310 219 c 4
 310 267 362 311 410 311 c 4
EndSplineSet
Validated: 1
EndChar

StartChar: uniE515
Encoding: 58645 58645 139
Width: 926
VWidth: 2048
Flags: HW
LayerCount: 2
Fore
SplineSet
444.507 144.677 m 6
 484.504 266.369 l 5
 486.31 272.688 489.9 284.224 489.9 292.15 c 4
 489.9 300.021 485.382 309.1 474.65 309.1 c 4
 450.853 309.1 433.919 270.594 425.9 251.348 c 5
 424.452 247.73 424.168 247.9 422.8 247.9 c 4
 420.65 247.9 420.2 248.587 420.2 249.65 c 4
 420.2 253.098 421.361 256.358 423.887 262.248 c 5
 437.611 293.132 456.837 325.35 488.25 325.35 c 4
 501.129 325.35 508.459 319.403 511.7 310.976 c 4
 513.372 306.628 511.514 288.8 523.95 288.8 c 4
 531.836 288.8 536.9 299.109 542.623 305.548 c 5
 553.132 317.673 564.728 326.2 582.6 326.2 c 4
 596.735 326.2 604.656 320.834 608.615 310.937 c 5
 610.259 306.664 608.419 288.8 620.85 288.8 c 4
 628.711 288.8 633.871 299.188 639.448 305.462 c 5
 650.01 316.836 661.848 326.2 679.5 326.2 c 4
 701.138 326.2 710.15 310.448 710.15 291.3 c 4
 710.15 252.496 675.3 194.885 675.3 165.5 c 4
 675.3 156.266 681.026 147.7 691.4 147.7 c 4
 710.54 147.7 719.488 172.069 725.744 187.709 c 5
 727.777 193.132 728.15 191.9 728.8 191.9 c 4
 730.782 191.9 730.55 191.328 730.55 191 c 4
 730.55 188.726 730.052 186.379 728.461 182.401 c 5
 719.214 158.025 706.578 138.25 679.5 138.25 c 4
 657.655 138.25 648.45 146.247 648.45 164.65 c 4
 648.45 195.414 681.6 250.296 681.6 281.95 c 4
 681.6 292.662 671.748 302.3 659.95 302.3 c 4
 631.975 302.3 607.049 266.243 595.996 233.085 c 4
 567.097 146.385 l 4
 566.552 144.749 566.577 143.35 566.577 143.35 c 5
 541.8 143.35 l 5
 541.8 143.35 541.088 143.721 541.412 144.694 c 4
 579.653 261.115 l 4
 582.339 269.17 583.4 275.184 583.4 281.1 c 4
 583.4 293.587 575.178 302.3 563.05 302.3 c 4
 535.046 302.3 511.131 266.189 500.097 233.084 c 4
 471.196 146.384 l 4
 470.719 144.953 470.416 143.754 470.316 143.399 c 5
 469.305 143.336 468.776 143.35 467.4 143.35 c 4
 444.9 143.35 l 5
 444.9 143.35 444.196 143.743 444.507 144.677 c 6
853 196 m 1
 844.333 176.667 835 162.667 825 154 c 128
 815 145.333 802.667 141 788 141 c 0
 774 141 763.667 145.667 757 155 c 128
 750.333 164.333 746.667 176.667 746 192 c 0
 746 202.667 746.333 210.667 747 216 c 128
 747.667 221.333 750.667 230 756 242 c 128
 761.333 254 770 267.333 782 282 c 0
 807.333 312 831 327 853 327 c 0
 868.333 327 879 318.333 885 301 c 1
 887 311 l 1
 890 321 l 1
 892 323 894.667 324 898 324 c 2
 905 324 l 2
 909 324 911 322 911 318 c 2
 910 310 l 1
 877 193 l 1
 874 179 l 1
 872 166 l 1
 872 157.333 874.667 153 880 153 c 0
 884 153 890 157.333 898 166 c 1
 902.667 172.667 906.334 179 909 185 c 128
 911.667 191 915.334 199.667 920 211 c 1
 926 208 l 1
 922.665 194 920.332 185.667 919 183 c 128
 917.665 180.333 915.332 176.333 912 171 c 128
 908.665 165.667 905.332 161 902 157 c 128
 898.666 153 895.332 150 892 148 c 1
 886.667 143.333 879.667 141 871 141 c 0
 856.333 141 849 149.333 849 166 c 1
 850 178 l 1
 853 196 l 1
797 150 m 0
 807 150 816.667 155 826 165 c 1
 844 193 l 1
 865 238 l 1
 874 268 l 2
 876.667 276 878 283.667 878 291 c 0
 878 301 875.667 308 871 312 c 1
 868.333 316 863.333 318.667 856 320 c 1
 836.667 320 815.667 296.667 793 250 c 1
 786 232 l 1
 782 223 l 1
 779 214 l 2
 777 206.667 775.333 200.333 774 195 c 128
 772.667 189.666 772 184.332 772 179 c 0
 772 171 773.667 164.333 777 159 c 128
 780.333 153.667 787 150.667 797 150 c 0
108 41 m 2
 108 23 123 19 141 17 c 1
 153 18 l 1
 167 20 l 1
 162 0 l 1
 3 0 l 1
 8 20 l 1
 27 20 l 2
 42 20 52 21 56 23 c 0
 61 27 65 34 68 44 c 2
 120 255 l 1
 121 260 l 1
 117 264 114 266 112 266 c 2
 59 267 l 1
 64 287 l 1
 81 287 98 290 115 296 c 1
 134 301 150 308 165 318 c 1
 177 318 l 1
 110 52 l 1
 108 46 l 1
 108 41 l 2
224 137 m 1
 215 139 213 139 211 150 c 1
 211 157 216 165 227 174 c 1
 236 202 244 231 252 259 c 2
 268 320 l 1
 315 311 l 2
 320 310 328 309 340 309 c 0
 345 308 349 308 354 308 c 0
 380 308 402 312 420 321 c 1
 426 317 l 1
 408 285 385 266 337 266 c 0
 326 266 288 272 279 273 c 1
 253 187 l 1
 273 198 285 201 312 203 c 1
 363 203 393 170 393 119 c 0
 393 88 381 59 356 32 c 128
 331 5 300 -8 263 -8 c 0
 219 -8 180 16 180 62 c 0
 180 86 191 103 214 103 c 0
 228 103 240 90 240 75 c 0
 240 68 239 64 237 62 c 2
 221 49 l 1
 213 44 l 1
 211 40 l 1
 211 22 236 11 258 11 c 0
 279 11 298 21 317 41 c 128
 336 61 345 88 346 122 c 0
 346 159 325 179 291 179 c 0
 265 179 258 174 245 162 c 1
 242 149 238 137 224 137 c 1
EndSplineSet
Validated: 1
EndChar

StartChar: uniE516
Encoding: 58646 58646 140
Width: 916
VWidth: 2048
Flags: HW
LayerCount: 2
Fore
SplineSet
434.506 1.67285 m 6
 474.504 123.369 l 5
 476.311 129.688 479.9 141.225 479.9 149.15 c 4
 479.9 157.021 475.382 166.1 464.65 166.1 c 4
 440.854 166.1 423.919 127.594 415.9 108.349 c 5
 414.451 104.729 414.168 104.9 412.8 104.9 c 4
 410.65 104.9 410.2 105.588 410.2 106.65 c 4
 410.2 110.099 411.361 113.358 413.887 119.248 c 5
 427.611 150.132 446.837 182.35 478.25 182.35 c 4
 491.129 182.35 498.459 176.403 501.699 167.977 c 4
 503.372 163.629 501.515 145.8 513.95 145.8 c 4
 521.836 145.8 526.9 156.109 532.622 162.548 c 5
 543.132 174.674 554.728 183.2 572.6 183.2 c 4
 586.735 183.2 594.655 177.835 598.615 167.937 c 5
 600.259 163.665 598.419 145.8 610.85 145.8 c 4
 618.711 145.8 623.871 156.188 629.447 162.462 c 5
 640.01 173.836 651.848 183.2 669.5 183.2 c 4
 691.139 183.2 700.15 167.447 700.15 148.3 c 4
 700.15 109.496 665.3 51.8848 665.3 22.5 c 4
 665.3 13.2666 671.026 4.7002 681.4 4.7002 c 4
 700.54 4.7002 709.487 29.0693 715.744 44.71 c 5
 717.776 50.1318 718.149 48.9004 718.8 48.9004 c 4
 720.781 48.9004 720.55 48.3281 720.55 48 c 4
 720.55 45.7266 720.053 43.3799 718.461 39.4014 c 5
 709.214 15.0244 696.578 -4.75 669.5 -4.75 c 4
 647.655 -4.75 638.45 3.24609 638.45 21.6504 c 4
 638.45 52.415 671.6 107.296 671.6 138.95 c 4
 671.6 149.662 661.748 159.3 649.95 159.3 c 4
 621.946 159.3 598.031 123.189 586.996 90.084 c 4
 558.098 3.38477 l 4
 557.62 1.95312 557.316 0.754883 557.216 0.398438 c 5
 556.206 0.334961 555.677 0.349609 554.3 0.349609 c 4
 531.8 0.349609 l 5
 531.8 0.349609 531.088 0.720703 531.412 1.69336 c 4
 569.652 118.115 l 4
 572.339 126.17 573.4 132.184 573.4 138.1 c 4
 573.4 150.587 565.178 159.3 553.05 159.3 c 4
 525.046 159.3 501.132 123.189 490.098 90.085 c 4
 461.196 3.38379 l 4
 460.65 1.74707 460.677 0.349609 460.677 0.349609 c 5
 434.9 0.349609 l 5
 434.9 0.349609 434.195 0.742188 434.506 1.67285 c 6
843 56 m 1
 834.333 36.667 825 22.667 815 14 c 128
 805 5.33301 792.667 1 778 1 c 0
 764 1 753.667 5.66699 747 15 c 128
 740.333 24.333 736.667 36.667 736 52 c 0
 736 62.667 736.333 70.667 737 76 c 128
 737.667 81.333 740.667 90 746 102 c 128
 751.333 114 760 127.333 772 142 c 0
 797.333 172 821 187 843 187 c 0
 858.333 187 869 178.333 875 161 c 1
 877 171 l 1
 880 181 l 1
 882 183 884.667 184 888 184 c 2
 895 184 l 2
 899 184 901 182 901 178 c 2
 900 170 l 1
 867 53 l 1
 864 39 l 1
 862 26 l 1
 862 17.333 864.667 13 870 13 c 0
 874 13 880 17.333 888 26 c 1
 892.667 32.667 896.334 39 899 45 c 128
 901.667 51 905.334 59.667 910 71 c 1
 916 68 l 1
 912.665 54 910.332 45.667 909 43 c 128
 907.665 40.333 905.332 36.333 902 31 c 128
 898.665 25.667 895.332 21 892 17 c 128
 888.666 13 885.332 10 882 8 c 1
 876.667 3.33301 869.667 1 861 1 c 0
 846.333 1 839 9.33301 839 26 c 1
 840 38 l 1
 843 56 l 1
787 10 m 0
 797 10 806.667 15 816 25 c 1
 834 53 l 1
 855 98 l 1
 864 128 l 2
 866.667 136 868 143.667 868 151 c 0
 868 161 865.667 168 861 172 c 1
 858.333 176 853.333 178.667 846 180 c 1
 826.667 180 805.667 156.667 783 110 c 1
 776 92 l 1
 772 83 l 1
 769 74 l 2
 767 66.667 765.333 60.333 764 55 c 128
 762.667 49.666 762 44.332 762 39 c 0
 762 31 763.667 24.333 767 19 c 128
 770.333 13.667 777 10.667 787 10 c 0
108 41 m 2
 108 23 123 19 141 17 c 1
 153 18 l 1
 167 20 l 1
 162 0 l 1
 3 0 l 1
 8 20 l 1
 27 20 l 2
 42 20 52 21 56 23 c 0
 61 27 65 34 68 44 c 2
 120 255 l 1
 121 260 l 1
 117 264 114 266 112 266 c 2
 59 267 l 1
 64 287 l 1
 81 287 98 290 115 296 c 1
 134 301 150 308 165 318 c 1
 177 318 l 1
 110 52 l 1
 108 46 l 1
 108 41 l 2
224 137 m 1
 215 139 213 139 211 150 c 1
 211 157 216 165 227 174 c 1
 236 202 244 231 252 259 c 2
 268 320 l 1
 315 311 l 2
 320 310 328 309 340 309 c 0
 345 308 349 308 354 308 c 0
 380 308 402 312 420 321 c 1
 426 317 l 1
 408 285 385 266 337 266 c 0
 326 266 288 272 279 273 c 1
 253 187 l 1
 273 198 285 201 312 203 c 1
 363 203 393 170 393 119 c 0
 393 88 381 59 356 32 c 128
 331 5 300 -8 263 -8 c 0
 219 -8 180 16 180 62 c 0
 180 86 191 103 214 103 c 0
 228 103 240 90 240 75 c 0
 240 68 239 64 237 62 c 2
 221 49 l 1
 213 44 l 1
 211 40 l 1
 211 22 236 11 258 11 c 0
 279 11 298 21 317 41 c 128
 336 61 345 88 346 122 c 0
 346 159 325 179 291 179 c 0
 265 179 258 174 245 162 c 1
 242 149 238 137 224 137 c 1
EndSplineSet
Validated: 1
EndChar

